<svg width="42" height="42" viewBox="0 0 42 42" fill="none" xmlns="http://www.w3.org/2000/svg">
<path d="M41.4281 16.9199H39.75V16.8334H21V25.1667H32.774C31.0562 30.0178 26.4406 33.5001 21 33.5001C14.0969 33.5001 8.49999 27.9032 8.49999 21.0001C8.49999 14.097 14.0969 8.50008 21 8.50008C24.1865 8.50008 27.0854 9.70216 29.2927 11.6657L35.1854 5.773C31.4646 2.30529 26.4875 0.166748 21 0.166748C9.49478 0.166748 0.166656 9.49487 0.166656 21.0001C0.166656 32.5053 9.49478 41.8334 21 41.8334C32.5052 41.8334 41.8333 32.5053 41.8333 21.0001C41.8333 19.6032 41.6896 18.2397 41.4281 16.9199Z" fill="#FFC107"/>
<path d="M2.56876 11.3032L9.41355 16.323C11.2656 11.7376 15.751 8.50008 21 8.50008C24.1865 8.50008 27.0854 9.70216 29.2927 11.6657L35.1854 5.773C31.4646 2.30529 26.4875 0.166748 21 0.166748C12.9979 0.166748 6.05834 4.68446 2.56876 11.3032Z" fill="#FF3D00"/>
<path d="M21 41.8333C26.3812 41.8333 31.2708 39.7739 34.9677 36.425L28.5198 30.9687C26.4281 32.5531 23.8281 33.5 21 33.5C15.5812 33.5 10.9802 30.0448 9.24687 25.2229L2.45312 30.4573C5.90104 37.2041 12.9031 41.8333 21 41.8333Z" fill="#4CAF50"/>
<path d="M41.4281 16.9197H39.75V16.8333H21V25.1666H32.774C31.949 27.4968 30.45 29.5062 28.5167 30.9697L28.5198 30.9676L34.9677 36.4239C34.5115 36.8385 41.8333 31.4166 41.8333 20.9999C41.8333 19.603 41.6896 18.2395 41.4281 16.9197Z" fill="#1976D2"/>
</svg>
