<svg width="47" height="47" viewBox="0 0 47 47" fill="none" xmlns="http://www.w3.org/2000/svg">
<path d="M23.5 0.583252C17.4221 0.583252 11.5932 2.99768 7.29548 7.29539C2.99777 11.5931 0.583344 17.422 0.583344 23.4999C0.583344 29.5778 2.99777 35.4067 7.29548 39.7044C11.5932 44.0022 17.4221 46.4166 23.5 46.4166C29.5779 46.4166 35.4068 44.0022 39.7045 39.7044C44.0022 35.4067 46.4167 29.5778 46.4167 23.4999C46.4167 17.422 44.0022 11.5931 39.7045 7.29539C35.4068 2.99768 29.5779 0.583252 23.5 0.583252Z" fill="#3F51B5"/>
<path d="M29.6508 23.5H25.7917V37.25H20.0625V23.5H16.625V18.9167H20.0625V16.1552C20.0648 12.1356 21.7343 9.75 26.47 9.75H30.375V14.3333H27.7545C25.9108 14.3333 25.7917 15.0208 25.7917 16.3076V18.9167H30.375L29.6508 23.5Z" fill="white"/>
</svg>
