<svg width="44" height="44" viewBox="0 0 44 44" fill="none" xmlns="http://www.w3.org/2000/svg">
<path d="M21.8385 0.171875C9.87222 0.171875 0.171875 9.87222 0.171875 21.8385C0.171875 33.8049 9.87222 43.5052 21.8385 43.5052C33.8049 43.5052 43.5052 33.8049 43.5052 21.8385C43.5052 9.87222 33.8049 0.171875 21.8385 0.171875ZM21.8385 7.3941C29.8164 7.3941 36.283 13.8607 36.283 21.8385C36.283 28.4145 31.8849 33.954 25.8728 35.7011C25.6289 35.4733 25.397 35.1488 25.4073 34.7349C25.4317 33.7851 25.4073 31.5695 25.4073 30.7552C25.4073 29.3577 24.5222 28.3661 24.5222 28.3661C24.5222 28.3661 31.457 28.4434 31.457 21.0433C31.457 18.1887 29.9671 16.7022 29.9671 16.7022C29.9671 16.7022 30.7509 13.6539 29.6955 12.3611C28.5129 12.2329 26.3948 13.4908 25.4902 14.0785C25.4902 14.0785 24.057 13.4914 21.6728 13.4914C19.2886 13.4914 17.8554 14.0785 17.8554 14.0785C16.9517 13.4908 14.8327 12.2338 13.6501 12.3611C12.5947 13.6539 13.3785 16.7022 13.3785 16.7022C13.3785 16.7022 11.8851 18.1878 11.8851 21.0433C11.8851 28.4434 18.8199 28.3661 18.8199 28.3661C18.8199 28.3661 18.0308 29.2654 17.9506 30.5525C17.4872 30.7159 16.8554 30.9104 16.2526 30.9104C14.7991 30.9104 13.6939 29.4975 13.2886 28.8439C12.8887 28.1993 12.0687 27.659 11.305 27.659C10.8021 27.659 10.5573 27.9115 10.5573 28.1985C10.5573 28.4856 11.2632 28.6868 11.7281 29.2195C12.7095 30.3434 12.69 32.8694 16.1856 32.8694C16.5993 32.8694 17.3437 32.7761 17.9365 32.6948C17.9332 33.4881 17.924 34.2476 17.9365 34.7349C17.9459 35.1097 17.7552 35.4091 17.538 35.6324C11.6608 33.8019 7.3941 28.3186 7.3941 21.8385C7.3941 13.8607 13.8607 7.3941 21.8385 7.3941Z" fill="black"/>
</svg>
