<svg width="15" height="17" viewBox="0 0 15 17" fill="none" xmlns="http://www.w3.org/2000/svg">
<path d="M4.2796 0.541992V2.54758H6.4194V2.60775C2.78174 3.08909 0 6.0373 0 9.56713C0 13.4379 3.35949 16.5867 7.4893 16.5867C11.6191 16.5867 14.9786 13.4379 14.9786 9.56713C14.9786 8.66462 14.7646 7.82227 14.4437 7.06015L12.4964 7.82227C12.7318 8.40389 12.8388 8.96546 12.8388 9.58719C12.8388 12.375 10.4636 14.6012 7.4893 14.6012C4.51498 14.6012 2.1398 12.375 2.1398 9.58719C2.1398 6.79942 4.51498 4.57322 7.4893 4.57322C8.13124 4.57322 8.75178 4.6735 9.37233 4.89412L10.0999 3.00886C9.6077 2.84842 9.09415 2.76819 8.5592 2.68797V2.56763H10.699V0.562048H4.2796V0.541992ZM14.9786 2.86847C14.9786 2.86847 7.16833 8.50417 6.76177 8.88523C6.35521 9.28635 6.35521 9.86797 6.76177 10.2691C7.16833 10.6702 7.81027 10.6702 8.23823 10.2691C8.66619 9.86797 15 2.86847 15 2.86847H14.9786Z" fill="#4DA44E"/>
</svg>
