<svg width="21" height="18" viewBox="0 0 21 18" fill="none" xmlns="http://www.w3.org/2000/svg">
<path d="M10.4582 0.835205C6.60956 0.835205 3.03984 1.68758 0 3.15793L1.47809 4.88398C4.07171 3.62673 7.13944 2.94483 10.4582 2.94483C13.8048 2.94483 16.9283 3.60542 19.5219 4.88398L21 3.15793C17.9602 1.66627 14.3068 0.835205 10.4582 0.835205ZM10.4582 7.22801C8.25498 7.22801 6.2749 7.71813 4.51793 8.5705L5.99602 10.3605C7.30677 9.72121 8.78486 9.35895 10.4303 9.35895C12.0757 9.35895 13.6653 9.72121 14.9761 10.3605L16.4542 8.5705C14.7251 7.73944 12.6335 7.22801 10.4303 7.22801H10.4582ZM10.4582 13.6208C8.9243 13.6208 7.66932 14.5797 7.66932 15.7518C7.66932 16.9238 8.9243 17.8827 10.4582 17.8827C11.992 17.8827 13.247 16.9238 13.247 15.7518C13.247 14.5797 11.992 13.6208 10.4582 13.6208Z" fill="url(#paint0_linear_109_147)"/>
<defs>
<linearGradient id="paint0_linear_109_147" x1="10.5" y1="0.835205" x2="10.5" y2="30" gradientUnits="userSpaceOnUse">
<stop stop-color="#F68B1D"/>
<stop offset="1" stop-color="#EE4610"/>
</linearGradient>
</defs>
</svg>
