<svg width="214" height="278" viewBox="0 0 214 278" fill="none" xmlns="http://www.w3.org/2000/svg">
<g clip-path="url(#clip0_117_531)">
<path fill-rule="evenodd" clip-rule="evenodd" d="M87.2398 86.3364C87.2398 118.445 114.268 144.475 147.608 144.475C180.948 144.475 207.975 118.445 207.975 86.3364C207.975 54.2276 180.948 28.198 147.608 28.198C114.268 28.198 87.2398 54.2276 87.2398 86.3364Z" fill="#FAA54E" fill-opacity="0.7"/>
<path fill-rule="evenodd" clip-rule="evenodd" d="M153.105 30.4147C155.005 29.8948 157.037 29.6678 158.976 30.0506C160.913 30.4335 162.746 31.4787 163.726 33.0639C164.846 34.8734 164.74 37.0873 164.602 39.1656C164.256 44.3726 163.91 49.5796 163.565 54.7852C163.469 56.2294 163.384 57.734 163.993 59.0693C164.604 60.4033 166.133 61.5008 167.676 61.208C168.46 61.0589 169.122 60.5846 169.867 60.3079C170.611 60.0325 171.602 60.0218 172.068 60.6209C172.346 60.9769 172.358 61.4525 172.305 61.8891C172.077 63.8142 170.781 65.6063 168.939 66.5453C170.023 66.063 171.382 67.0692 171.399 68.1735C171.418 69.2804 170.448 70.2356 169.331 70.648C168.215 71.0591 166.975 71.0443 165.772 71.0228C166.763 71.0376 167.527 72.0116 167.429 72.9184C167.331 73.8238 166.554 74.5801 165.641 74.9348C164.729 75.2894 163.703 75.3042 162.717 75.2196C160.62 75.0409 158.529 74.4216 156.876 73.2206C153.991 71.1222 152.823 67.5407 152.783 64.1581C152.742 60.7754 153.657 57.4519 154.171 54.1028C155.362 46.3312 154.387 38.4334 153.413 30.6377C153.651 30.5719 153.886 30.506 154.123 30.4402" fill="#FF7081"/>
<path fill-rule="evenodd" clip-rule="evenodd" d="M163.692 147.661C161.35 149.775 160.461 153.067 162.694 155.607C164.797 157.999 168.867 158.506 171.493 156.599C177.836 151.998 171.225 143.507 164.381 145.264C163.114 145.589 163.43 147.288 164.682 147.355C166.683 147.462 168.825 147.533 170.425 148.852C172.14 150.269 172.179 152.664 170.77 154.292C167.041 158.604 160.56 152.254 164.478 148.399C164.973 147.913 164.21 147.194 163.692 147.661Z" fill="#7CABFF"/>
<path fill-rule="evenodd" clip-rule="evenodd" d="M95.4823 125.113C94.6872 124.237 93.8093 123.564 93.411 122.392C92.6159 120.056 94.134 118.896 95.9166 118.027C97.7313 117.141 99.1959 116.109 99.7344 113.977C100.576 110.646 97.8489 106.539 94.3625 107.527C93.232 107.847 93.5687 109.343 94.3411 109.807C95.4195 110.454 96.8654 110.825 97.0471 112.37C97.2903 114.435 95.33 115.025 93.9603 115.77C92.4796 116.575 91.3625 117.802 90.8908 119.494C90.0823 122.408 91.7567 126.365 95.032 126.198C95.4943 126.174 95.8164 125.481 95.4823 125.113Z" fill="#7E2E84"/>
<path fill-rule="evenodd" clip-rule="evenodd" d="M84.9465 160.57C85.2572 162.488 87.3536 166.547 89.5604 167.108C90.7349 167.407 91.6075 166.672 92.5207 166.074C94.1801 164.988 95.8178 163.877 97.4584 162.767C98.0551 162.363 98.4079 161.584 97.9636 160.934C96.5118 158.811 95.0614 156.687 93.6096 154.563C93.2219 153.997 92.3276 153.648 91.683 154.084C89.8725 155.301 87.9111 156.424 86.2792 157.852C85.1555 158.836 86.587 160.445 87.8632 159.804C89.7143 158.872 91.3941 157.547 93.1043 156.397C92.4612 156.236 91.8195 156.076 91.1777 155.916C92.6281 158.04 94.08 160.162 95.5304 162.285C95.6988 161.675 95.8672 161.064 96.0356 160.454C95.0512 161.119 94.064 161.783 93.0826 162.452C92.5265 162.832 90.6653 164.489 90.0468 164.423C89.4922 164.364 88.3307 162.488 87.9895 162.102C87.2926 161.315 86.6393 160.571 85.7406 159.989C85.308 159.707 84.8826 160.171 84.9465 160.57Z" fill="#FBC580"/>
<path fill-rule="evenodd" clip-rule="evenodd" d="M181.535 74.1917C181.846 76.1102 183.942 80.1707 186.149 80.731C187.324 81.0291 188.196 80.2935 189.109 79.6959C190.767 78.6111 192.406 77.4986 194.047 76.389C194.644 75.9846 194.996 75.2075 194.552 74.5561C193.1 72.4334 191.65 70.3093 190.198 68.1865C189.811 67.6193 188.916 67.2715 188.272 67.7062C186.461 68.9236 184.5 70.0457 182.868 71.4755C181.744 72.4596 183.174 74.0689 184.452 73.4257C186.303 72.4941 187.983 71.1691 189.693 70.0194C189.05 69.8579 188.408 69.6992 187.766 69.5377C189.217 71.6618 190.669 73.7846 192.119 75.9087C192.287 75.2972 192.456 74.6858 192.624 74.0758C191.64 74.7424 190.653 75.4049 189.671 76.0743C189.115 76.4538 187.254 78.1114 186.636 78.0452C186.081 77.9858 184.918 76.1102 184.578 75.7251C183.881 74.937 183.23 74.1931 182.329 73.612C181.895 73.3291 181.47 73.7928 181.535 74.1917Z" fill="#FBC580"/>
<path fill-rule="evenodd" clip-rule="evenodd" d="M190.088 107.995C186.482 109.678 182.936 111.455 179.397 113.277C178.545 113.716 178.411 114.62 179.071 115.305C181.665 117.997 184.223 120.698 187.009 123.19C187.546 123.67 188.412 123.395 188.692 122.779C190.423 118.989 193.049 113.822 192.331 109.52C192.147 108.427 190.484 107.93 190.038 109.149C189.342 111.057 189.346 113.196 188.899 115.182C188.383 117.474 187.711 119.77 186.694 121.892L188.579 121.694C186.038 118.808 183.289 116.15 180.543 113.464C180.528 114.089 180.511 114.716 180.495 115.341C183.964 113.387 187.401 111.402 190.79 109.313C191.505 108.873 190.858 107.636 190.088 107.995Z" fill="#FF7081"/>
<path fill-rule="evenodd" clip-rule="evenodd" d="M121.848 157.527C124.431 154.554 127.043 151.241 129.061 147.824C129.698 146.745 128.128 145.513 127.326 146.494C124.821 149.556 122.6 153.156 120.68 156.633C120.273 157.371 121.287 158.173 121.848 157.527Z" fill="#FF7081"/>
<path fill-rule="evenodd" clip-rule="evenodd" d="M211.357 55.5514L211.16 55.3843C210.293 54.6474 208.872 54.5014 208.028 55.3843C207.176 56.2764 207.206 57.5014 208.028 58.3935C208.087 58.4567 208.145 58.5185 208.203 58.583C208.979 59.4251 210.577 59.4001 211.357 58.583C212.134 57.7698 212.291 56.3448 211.357 55.5514Z" fill="#241352"/>
<path fill-rule="evenodd" clip-rule="evenodd" d="M106.72 138.607C106.654 138.552 106.588 138.495 106.522 138.44C105.656 137.701 104.234 137.557 103.391 138.44C102.539 139.332 102.569 140.556 103.391 141.449C103.449 141.512 103.507 141.574 103.564 141.637C104.341 142.48 105.939 142.456 106.72 141.637C107.496 140.825 107.654 139.4 106.72 138.607Z" fill="#241352"/>
<path fill-rule="evenodd" clip-rule="evenodd" d="M138.409 68.4771L97.8637 83.2137L101.733 67.3392L91.1889 64.7422C91.1889 64.7422 79.8467 95.7746 87.7239 96.6037C101.514 98.0587 122.38 92.7645 122.38 92.7645L138.409 68.4771Z" fill="#FFAFA7"/>
<path fill-rule="evenodd" clip-rule="evenodd" d="M124.035 102.36L124.124 132.628C134.348 144.881 169.938 129.037 169.938 129.037L170.353 116.658L171.18 87.1711C170.36 75.4289 159.173 69.6648 159.173 69.6648C154.55 67.4193 147.496 66.1422 141.142 66.4483C134.509 66.7679 132.869 69.8653 130.137 75.7662C127.929 80.5348 124.035 85.0069 124.035 102.36Z" fill="#241352"/>
<path fill-rule="evenodd" clip-rule="evenodd" d="M157.21 38.3346L156.732 44.398C156.732 44.398 162.082 45.094 160.558 49.7966C159.033 54.4992 155.372 52.4409 155.372 52.4409C155.372 52.4409 154.457 64.4931 141.648 60.6711C131.451 57.6306 132.075 44.9081 133.369 34.0621C133.872 29.8602 137.995 26.9716 142.304 27.7802L150.005 29.2265C154.456 30.061 157.553 33.9766 157.21 38.3346Z" fill="#FFAFA7"/>
<path fill-rule="evenodd" clip-rule="evenodd" d="M157.381 49.2388L153.872 67.1761C153.082 71.2183 148.923 73.8033 144.75 72.8497C140.883 71.9647 138.406 68.3437 139.1 64.5924L141.006 54.3114L157.381 49.2388Z" fill="#FFAFA7"/>
<path fill-rule="evenodd" clip-rule="evenodd" d="M142.421 49.8366C142.439 49.8324 142.473 50.102 142.215 50.299C141.945 50.4862 141.513 50.0951 141.402 49.4636C141.259 48.8588 141.277 48.1296 141.297 47.3892C141.324 46.5831 141.351 45.7869 141.379 44.9515C141.523 41.4955 141.748 38.7044 141.881 38.7183C142.015 38.7295 142.006 41.5416 141.862 44.9976C141.821 45.8302 141.782 46.6265 141.742 47.4311C141.695 48.1799 141.653 48.8266 141.73 49.3184C141.785 49.8143 142.015 50.049 142.166 50.0252C142.32 49.9987 142.389 49.8017 142.421 49.8366Z" fill="#241352"/>
<path fill-rule="evenodd" clip-rule="evenodd" d="M138.988 59.2186C139.093 59.0407 141.603 60.7104 145.272 60.7668C148.942 60.8444 151.532 59.2662 151.628 59.4478C151.684 59.5104 151.132 59.9902 150.016 60.4887C148.911 60.9872 147.198 61.4545 145.256 61.4181C143.314 61.3843 141.628 60.8557 140.548 60.3171C139.456 59.7785 138.93 59.28 138.988 59.2186Z" fill="#241352"/>
<path fill-rule="evenodd" clip-rule="evenodd" d="M141.299 52.4151C141.381 52.3501 141.665 52.5845 142.185 52.7872C142.693 52.9923 143.485 53.1402 144.26 52.9108C145.035 52.675 145.584 52.1258 145.869 51.6823C146.165 51.2363 146.25 50.8909 146.358 50.8998C146.443 50.8998 146.547 51.2898 146.324 51.8836C146.115 52.4609 145.501 53.2294 144.478 53.5429C143.45 53.8436 142.47 53.5531 141.94 53.1962C141.389 52.8356 141.229 52.4622 141.299 52.4151Z" fill="#241352"/>
<path fill-rule="evenodd" clip-rule="evenodd" d="M157.396 49.6718C157.391 49.5823 157.602 49.5287 157.825 49.345C157.936 49.2496 158.026 49.1228 158.056 48.9518C158.086 48.7738 158.045 48.64 157.955 48.6051C157.872 48.5656 157.803 48.6016 157.794 48.6191L157.381 48.3515C157.706 47.5303 158.006 46.9719 158.107 47.0278C158.207 47.0824 158.076 47.7362 157.807 48.5865L157.395 48.319C157.551 47.9886 157.888 47.9165 158.127 48.0386C158.304 48.1107 158.463 48.3364 158.503 48.5435C158.553 48.7564 158.531 48.9599 158.481 49.1263C158.381 49.4683 158.148 49.6648 157.972 49.7323C157.603 49.8673 157.396 49.7428 157.396 49.6718Z" fill="#241352"/>
<path fill-rule="evenodd" clip-rule="evenodd" d="M148.763 38.599C148.696 38.455 149.291 38.1516 150.051 38.3321C150.814 38.5093 151.166 39.0342 151.028 39.1305C150.894 39.2424 150.455 39.0142 149.888 38.8902C149.325 38.7496 148.817 38.7551 148.763 38.599Z" fill="#241352"/>
<path fill-rule="evenodd" clip-rule="evenodd" d="M137.267 36.6C137.178 36.4616 137.829 36.0929 138.752 36.1593C139.675 36.2224 140.236 36.6776 140.118 36.8016C140.008 36.9389 139.414 36.7783 138.689 36.734C137.965 36.6753 137.347 36.7507 137.267 36.6Z" fill="#241352"/>
<path fill-rule="evenodd" clip-rule="evenodd" d="M156.39 44.4824C152.89 41.0971 151.862 35.4574 150.913 30.7008C147.672 33.0428 143.215 33.6184 139.478 32.1788C138.306 33.546 136.928 34.7409 135.406 35.7103C134.973 35.9865 134.459 36.2531 133.966 36.1054C133.379 35.9304 133.117 35.2618 132.978 34.6698C132.531 32.7721 132.515 30.7418 133.182 28.9097C133.849 27.0777 135.246 25.4671 137.077 24.7643C139.033 24.0123 141.237 24.3391 143.269 24.8614C146.329 25.6489 149.279 26.8589 152.006 28.4449C154.684 30.0021 157.257 32.0612 158.392 34.9269C159.529 37.7912 159.523 43.3613 156.784 44.8091" fill="#FF7081"/>
<path fill-rule="evenodd" clip-rule="evenodd" d="M136.364 68.7427C139.927 67.4382 112.537 76.8138 112.537 76.8138L115.314 94.0883L125.732 90.9373L136.364 68.7427Z" fill="#241352"/>
<path fill-rule="evenodd" clip-rule="evenodd" d="M100.33 68.0645C100.33 68.0645 107.308 58.6014 106.064 58.6069C104.82 58.611 104.171 60.3926 101.755 61.6118C101.755 61.6118 105.612 49.7788 104.418 50.027C103.224 50.2752 100.378 57.8704 100.191 57.8622C100.005 57.854 102.647 49.344 101.656 49.2398C100.666 49.1356 98.2388 57.0517 98.2388 57.0517C98.2388 57.0517 99.9014 49.5264 98.8524 49.3577C97.8034 49.189 96.2553 56.1218 96.2553 56.1218C96.2553 56.1218 97.4924 50.2999 96.5381 50.1573C95.957 50.0723 90.6894 64.5124 90.6894 64.5124C90.8279 64.5124 100.33 68.0645 100.33 68.0645Z" fill="#FFAFA7"/>
<path fill-rule="evenodd" clip-rule="evenodd" d="M154.811 101.286C154.758 101.292 154.65 100.811 154.498 99.9366C154.345 99.0622 154.15 97.7955 153.926 96.2276C153.478 93.0904 152.906 88.7601 152.333 83.9572C152.201 82.7494 152.131 81.5337 152.337 80.3594C152.527 79.1851 153.067 78.0804 153.825 77.2288C155.35 75.5029 157.451 74.6781 159.185 74.3674C160.943 74.0528 162.392 74.1519 163.365 74.259C164.341 74.3755 164.863 74.5201 164.856 74.5616C164.847 74.6152 164.307 74.5616 163.34 74.5308C162.378 74.5067 160.962 74.488 159.303 74.8495C157.667 75.203 155.74 76.0318 154.384 77.6238C153.712 78.4125 153.249 79.3833 153.082 80.4638C152.902 81.5417 152.968 82.6999 153.1 83.8876C153.672 88.6758 154.158 93.0261 154.467 96.174C154.622 97.7473 154.734 99.0247 154.795 99.9071C154.855 100.791 154.864 101.281 154.811 101.286Z" fill="#241352"/>
<path fill-rule="evenodd" clip-rule="evenodd" d="M153.357 99.678C153.378 99.492 158.158 99.8133 164.031 100.396C169.906 100.979 174.65 101.602 174.629 101.788C174.609 101.972 169.831 101.652 163.955 101.068C158.082 100.487 153.336 99.864 153.357 99.678Z" fill="#241352"/>
<mask id="mask0_117_531" style="mask-type:luminance" maskUnits="userSpaceOnUse" x="68" y="21" width="54" height="30">
<path d="M68.2815 21.1633H121.964V50.941H68.2815V21.1633Z" fill="white"/>
</mask>
<g mask="url(#mask0_117_531)">
<path fill-rule="evenodd" clip-rule="evenodd" d="M121.964 22.6744V43.1682H107.915L107.468 50.9408L99.2121 42.7184H68.2815L71.0055 21.1628L121.964 22.6744Z" fill="#7E2E84"/>
</g>
<path fill-rule="evenodd" clip-rule="evenodd" d="M118.172 28.6584C104.506 28.4403 90.7505 28.365 77.0849 28.5931C76.8264 28.5975 76.8264 28.9065 77.0849 28.9109C90.7505 29.1391 104.506 29.0626 118.172 28.8445C118.324 28.8434 118.325 28.6607 118.172 28.6584Z" fill="#E6E2EB"/>
<path fill-rule="evenodd" clip-rule="evenodd" d="M118.172 33.0878C104.506 32.8707 90.7505 32.7943 77.0849 33.0225C76.8264 33.0269 76.8264 33.3359 77.0849 33.3403C90.7505 33.5684 104.506 33.492 118.172 33.2749C118.324 33.2727 118.325 33.09 118.172 33.0878Z" fill="#E6E2EB"/>
<path fill-rule="evenodd" clip-rule="evenodd" d="M116.448 37.5175C108.163 37.3104 99.7428 37.2473 91.4562 37.4522C91.2003 37.4588 91.2003 37.7634 91.4562 37.77C99.7428 37.9738 108.163 37.9117 116.448 37.7047C116.598 37.7013 116.6 37.5208 116.448 37.5175Z" fill="#E6E2EB"/>
<path fill-rule="evenodd" clip-rule="evenodd" d="M137.678 41.9381C137.527 42.009 137.299 41.8584 137.084 41.6668C136.873 41.4708 136.703 41.2626 136.767 41.1131C136.826 40.9669 137.194 40.9725 137.495 41.246C137.796 41.5195 137.826 41.8728 137.678 41.9381Z" fill="#241352"/>
<path fill-rule="evenodd" clip-rule="evenodd" d="M148.66 42.5858C148.508 42.6396 148.242 42.4287 147.983 42.1566C147.727 41.8817 147.545 41.6215 147.653 41.5201C147.757 41.4197 148.159 41.5493 148.463 41.8708C148.766 42.1922 148.81 42.5346 148.66 42.5858Z" fill="#241352"/>
<path fill-rule="evenodd" clip-rule="evenodd" d="M146.352 51.884C146.618 52.9319 146.366 53.96 145.788 54.1796C145.213 54.4008 144.529 53.7312 144.263 52.6833C143.999 51.6369 144.251 50.6088 144.828 50.3877C145.404 50.168 146.088 50.8376 146.352 51.884Z" fill="#241352" fill-opacity="0.2"/>
<path fill-rule="evenodd" clip-rule="evenodd" d="M152.782 45.6173C152.789 46.6874 151.508 47.5655 149.92 47.5774C148.333 47.5893 147.041 46.7321 147.033 45.6619C147.026 44.5918 148.307 43.7137 149.896 43.7018C151.482 43.6899 152.775 44.5472 152.782 45.6173Z" fill="#241352" fill-opacity="0.15"/>
<path fill-rule="evenodd" clip-rule="evenodd" d="M140.134 46.171C140.14 47.2411 138.86 48.1192 137.272 48.1311C135.684 48.1431 134.393 47.2858 134.384 46.2156C134.377 45.1455 135.658 44.2674 137.247 44.2555C138.833 44.2436 140.127 45.1009 140.134 46.171Z" fill="#241352" fill-opacity="0.15"/>
<path fill-rule="evenodd" clip-rule="evenodd" d="M157.528 36.4927C157.468 36.4148 157.691 36.1049 157.488 35.5356C157.318 34.9853 156.803 34.1962 156.393 33.2937C155.526 31.4955 154.95 29.9608 155.108 29.8639C155.265 29.767 156.102 31.1569 156.976 32.9687C157.388 33.8903 157.832 34.6604 157.939 35.425C157.99 35.7936 157.924 36.1349 157.796 36.3138C157.67 36.494 157.554 36.5241 157.528 36.4927Z" fill="#6F35A5"/>
<path fill-rule="evenodd" clip-rule="evenodd" d="M127.016 95.0773L124.61 125.306L157.956 129.525L155.7 94.6421L127.016 95.0773Z" fill="#7CABFF"/>
<path fill-rule="evenodd" clip-rule="evenodd" d="M128.635 74.3764V97.9643L132.659 96.6088V69.7256L128.635 70.8263" fill="#7CABFF"/>
<path fill-rule="evenodd" clip-rule="evenodd" d="M159.515 70.833C159.515 70.833 144.584 72.6663 148.999 95.9219L152.74 96.3032C152.74 96.3032 148.52 74.4547 162.556 72.8956L159.515 70.833Z" fill="#7CABFF"/>
<path fill-rule="evenodd" clip-rule="evenodd" d="M155.456 97.4104C155.456 97.4104 160.526 126.276 153.377 125.567C129.861 123.23 115.859 122.914 115.859 122.914L111.962 130.735C111.871 132.067 156.494 144.41 163.664 140.329C168.727 137.447 176.792 129.685 173.131 106.491L172.266 98.7168L155.456 97.4104Z" fill="#FFAFA7"/>
<path fill-rule="evenodd" clip-rule="evenodd" d="M167.992 78.5292C167.992 78.5292 173.417 83.6326 174.629 102.947L153.634 100.671C153.634 100.671 150.136 67.7777 167.992 78.5292Z" fill="#241352"/>
<path fill-rule="evenodd" clip-rule="evenodd" d="M118.49 123.23C118.49 123.23 106.918 119.753 107.314 120.897C107.711 122.04 109.681 122.083 111.651 123.927C111.651 123.927 98.7116 124.061 99.3352 125.082C99.9574 126.104 108.377 126.36 108.429 126.533C108.48 126.708 99.217 126.925 99.4263 127.869C99.6342 128.814 108.241 128.583 108.241 128.583C108.241 128.583 100.263 129.396 100.426 130.414C100.591 131.432 107.946 130.699 107.946 130.699C107.946 130.699 101.79 131.372 101.949 132.294C102.047 132.856 119.974 132.984 120.011 133.398C120.031 133.613 118.49 123.23 118.49 123.23Z" fill="#FFAFA7"/>
<path fill-rule="evenodd" clip-rule="evenodd" d="M132.828 94.0885C132.917 94.0798 133.139 94.6031 133.225 95.5611C133.255 96.0321 133.229 96.6572 132.911 97.275C132.619 97.8652 131.973 98.518 131.077 98.518C130.199 98.5078 129.551 97.9525 129.182 97.4015C128.798 96.8171 128.696 96.2255 128.651 95.7515C128.59 94.7965 128.716 94.2411 128.807 94.2353C128.921 94.228 128.985 94.811 129.17 95.6658C129.272 96.0844 129.426 96.5874 129.738 96.9945C130.049 97.403 130.553 97.7649 131.075 97.7606C131.596 97.7693 132.051 97.3812 132.312 96.9349C132.581 96.4915 132.662 95.9899 132.698 95.5582C132.75 94.6874 132.714 94.1001 132.828 94.0885Z" fill="#241352"/>
<path fill-rule="evenodd" clip-rule="evenodd" d="M131.238 95.4073C131.277 95.4637 131.232 95.5708 131.283 95.6954C131.351 95.8386 131.417 95.8727 131.541 95.7989C131.658 95.7139 131.65 95.64 131.543 95.5228C131.447 95.4286 131.329 95.4286 131.292 95.3722C131.243 95.3307 131.381 95.1404 131.681 95.2116C131.816 95.2485 131.988 95.3491 132.061 95.5717C132.139 95.8016 132.012 96.075 131.811 96.1987C131.619 96.3336 131.315 96.3465 131.13 96.1867C130.949 96.0344 130.921 95.8386 130.939 95.701C130.987 95.4009 131.217 95.3482 131.238 95.4073Z" fill="#241352"/>
<path fill-rule="evenodd" clip-rule="evenodd" d="M152.48 94.6453C152.56 94.6077 152.866 94.9032 152.76 95.464C152.675 95.9824 152.055 96.7853 150.855 96.8568C149.651 96.8665 148.949 96.1083 148.809 95.5972C148.644 95.0462 148.918 94.7313 149.002 94.7628C149.12 94.7846 149.088 95.0801 149.333 95.4446C149.549 95.7995 150.135 96.2464 150.822 96.227C151.509 96.2004 152.044 95.7159 152.223 95.3465C152.427 94.9674 152.365 94.6743 152.48 94.6453Z" fill="#241352"/>
<path fill-rule="evenodd" clip-rule="evenodd" d="M151.136 92.8319C151.095 92.7526 151.219 92.4353 151.545 92.4272C151.699 92.4289 151.909 92.5163 152.069 92.84C152.242 93.1541 152.254 93.7578 152.095 94.1253C151.962 94.517 151.623 94.7874 151.344 94.5575C151.059 94.2985 151.04 93.8566 151.065 93.5911C151.091 93.3046 151.205 93.0925 151.303 93.0424C151.402 92.9938 151.453 93.0569 151.457 93.1071C151.456 93.2285 151.37 93.358 151.419 93.6138C151.488 93.9116 151.544 93.9213 151.672 93.6704C151.786 93.3936 151.678 93.1573 151.493 93.0165C151.322 92.8918 151.172 92.9355 151.136 92.8319Z" fill="#241352"/>
<path fill-rule="evenodd" clip-rule="evenodd" d="M149.781 107.929C149.617 107.887 149.59 107.268 149.61 106.537C149.633 105.807 149.69 105.194 149.856 105.164C150.017 105.132 150.233 105.757 150.209 106.562C150.187 107.368 149.94 107.972 149.781 107.929Z" fill="#241352"/>
<path fill-rule="evenodd" clip-rule="evenodd" d="M147.055 112.883C146.961 112.743 147.171 112.227 147.455 111.65C147.742 111.074 148.014 110.623 148.133 110.71C148.251 110.792 148.157 111.429 147.844 112.06C147.533 112.691 147.146 113.021 147.055 112.883Z" fill="#241352"/>
<path fill-rule="evenodd" clip-rule="evenodd" d="M142.434 115.433C142.403 115.273 143.023 115.08 143.779 114.897C144.537 114.719 145.189 114.606 145.295 114.748C145.399 114.885 144.856 115.248 144.022 115.447C143.19 115.645 142.463 115.588 142.434 115.433Z" fill="#241352"/>
<path fill-rule="evenodd" clip-rule="evenodd" d="M136.119 114.787C136.213 114.642 136.866 114.733 137.626 114.889C138.386 115.048 139.007 115.225 138.983 115.387C138.964 115.543 138.247 115.617 137.415 115.444C136.584 115.272 136.025 114.927 136.119 114.787Z" fill="#241352"/>
<path fill-rule="evenodd" clip-rule="evenodd" d="M132.127 111.266C132.241 111.17 132.511 111.618 132.8 112.191C133.087 112.767 133.301 113.281 133.215 113.432C133.133 113.579 132.752 113.266 132.437 112.635C132.121 112.006 132.017 111.357 132.127 111.266Z" fill="#241352"/>
<path fill-rule="evenodd" clip-rule="evenodd" d="M131.503 105.717C131.669 105.737 131.752 106.348 131.801 107.078C131.845 107.811 131.839 108.433 131.675 108.482C131.518 108.532 131.253 107.938 131.204 107.135C131.151 106.331 131.341 105.694 131.503 105.717Z" fill="#241352"/>
<path fill-rule="evenodd" clip-rule="evenodd" d="M135.534 105.202C135.527 105.362 134.877 105.472 134.084 105.45C133.289 105.428 132.654 105.281 132.659 105.122C132.668 104.963 133.317 104.852 134.11 104.874C134.904 104.897 135.541 105.043 135.534 105.202Z" fill="#241352"/>
<path fill-rule="evenodd" clip-rule="evenodd" d="M141.283 105.202C141.276 105.362 140.626 105.472 139.832 105.45C139.039 105.429 138.402 105.282 138.409 105.122C138.416 104.963 139.066 104.852 139.86 104.874C140.653 104.897 141.29 105.043 141.283 105.202Z" fill="#241352"/>
<path fill-rule="evenodd" clip-rule="evenodd" d="M147.608 105.202C147.6 105.362 146.95 105.472 146.157 105.45C145.363 105.428 144.726 105.281 144.733 105.122C144.74 104.963 145.39 104.852 146.184 104.874C146.978 104.897 147.615 105.043 147.608 105.202Z" fill="#241352"/>
<path fill-rule="evenodd" clip-rule="evenodd" d="M150.076 166.655C150.85 162.88 151.477 158.819 151.631 154.954C151.679 153.749 149.878 153.448 149.671 154.665C149.019 158.49 148.784 162.576 148.757 166.459C148.752 167.269 149.908 167.473 150.076 166.655Z" fill="#FF957E"/>
<path fill-rule="evenodd" clip-rule="evenodd" d="M169.963 179.026C169.897 178.971 169.831 178.915 169.765 178.859C168.899 178.122 167.476 177.977 166.634 178.859C165.78 179.751 165.812 180.976 166.634 181.868L166.808 182.058C167.584 182.9 169.182 182.875 169.963 182.058C170.739 181.246 170.895 179.821 169.963 179.026Z" fill="#241352"/>
<mask id="mask1_117_531" style="mask-type:luminance" maskUnits="userSpaceOnUse" x="3" y="137" width="122" height="116">
<path d="M3.86983 137.082H124.163V253H3.86983V137.082Z" fill="white"/>
</mask>
<g mask="url(#mask1_117_531)">
<path fill-rule="evenodd" clip-rule="evenodd" d="M124.163 195.041C124.163 227.05 97.2344 253.001 64.0165 253.001C30.7972 253.001 3.86983 227.05 3.86983 195.041C3.86983 163.031 30.7972 137.082 64.0165 137.082C97.2344 137.082 124.163 163.031 124.163 195.041Z" fill="#FAA54E" fill-opacity="0.7"/>
</g>
<path fill-rule="evenodd" clip-rule="evenodd" d="M72.8665 175.342L113.413 190.078L109.542 174.205L120.086 171.606C120.086 171.606 131.428 202.637 123.551 203.468C109.761 204.923 88.8962 199.629 88.8962 199.629L72.8665 175.342Z" fill="#FFAFA7"/>
<path fill-rule="evenodd" clip-rule="evenodd" d="M86.6648 210.331L86.5759 240.6C76.3527 252.853 40.7624 237.008 40.7624 237.008L40.347 224.629L39.5204 195.142C40.3401 183.4 51.5274 177.636 51.5274 177.636C56.1507 175.39 63.2038 174.115 69.5594 174.419C76.1916 174.74 77.8308 177.836 80.5634 183.737C82.7723 188.506 86.6648 192.978 86.6648 210.331Z" fill="#6F35A5"/>
<path fill-rule="evenodd" clip-rule="evenodd" d="M55.2438 204.274C55.2438 204.274 50.1743 233.141 57.3234 232.431C80.8388 230.094 94.841 229.78 94.841 229.78L98.7384 237.599C98.8289 238.931 54.2061 251.273 47.0358 247.194C41.9735 244.311 33.9085 236.551 37.5694 213.356L38.4343 205.581L55.2438 204.274Z" fill="#FFAFA7"/>
<path fill-rule="evenodd" clip-rule="evenodd" d="M42.1335 185.947C42.1335 185.947 36.7084 191.052 35.4959 210.365L56.4911 208.089C56.4911 208.089 59.9898 175.195 42.1335 185.947Z" fill="#6F35A5"/>
<path fill-rule="evenodd" clip-rule="evenodd" d="M52.34 145.752L52.8173 151.816C52.8173 151.816 47.467 152.511 48.9932 157.215C50.5181 161.917 54.1774 159.859 54.1774 159.859C54.1774 159.859 55.0926 171.91 67.9038 168.089C78.099 165.047 77.4753 152.326 76.1813 141.48C75.6787 137.278 71.5547 134.389 67.2463 135.198L59.5446 136.643C55.094 137.479 51.9965 141.394 52.34 145.752Z" fill="#FFAFA7"/>
<path fill-rule="evenodd" clip-rule="evenodd" d="M53.3188 156.103L56.8293 174.04C57.6196 178.082 61.7773 180.667 65.9507 179.713C69.8177 178.828 72.2945 175.209 71.6001 171.456L69.6946 161.175L53.3188 156.103Z" fill="#FFAFA7"/>
<path fill-rule="evenodd" clip-rule="evenodd" d="M67.7041 156.701C67.7367 156.667 67.8054 156.863 67.9597 156.891C68.1103 156.913 68.3398 156.678 68.3956 156.182C68.4727 155.691 68.43 155.044 68.3835 154.295C68.3436 153.49 68.3045 152.696 68.2636 151.862C68.1196 148.406 68.1103 145.595 68.2441 145.582C68.3779 145.57 68.6019 148.359 68.7469 151.816C68.7748 152.651 68.8017 153.449 68.8287 154.253C68.8482 154.992 68.8668 155.723 68.7237 156.328C68.6121 156.959 68.18 157.35 67.9105 157.163C67.6521 156.966 67.6865 156.696 67.7041 156.701Z" fill="#241352"/>
<path fill-rule="evenodd" clip-rule="evenodd" d="M72.287 167.19C72.3468 167.251 71.8186 167.749 70.7272 168.288C69.6475 168.826 67.9608 169.354 66.0187 169.389C64.0767 169.425 62.3637 168.958 61.2592 168.459C60.1429 167.961 59.5914 167.481 59.6469 167.419C59.7446 167.237 62.333 168.815 66.0027 168.736C69.6723 168.681 72.1819 167.012 72.287 167.19Z" fill="#241352"/>
<path fill-rule="evenodd" clip-rule="evenodd" d="M68.8266 158.725C68.8963 158.773 68.7364 159.146 68.1856 159.507C67.6539 159.863 66.6752 160.154 65.6473 159.853C64.6236 159.541 64.0099 158.771 63.8007 158.194C63.5793 157.6 63.6818 157.21 63.7679 157.21C63.8759 157.201 63.9606 157.547 64.2559 157.994C64.5416 158.436 65.091 158.985 65.8647 159.221C66.641 159.45 67.4311 159.303 67.9409 159.097C68.4589 158.895 68.7446 158.66 68.8266 158.725Z" fill="#241352"/>
<path fill-rule="evenodd" clip-rule="evenodd" d="M52.154 157.643C52.155 157.714 51.9471 157.838 51.5788 157.704C51.4036 157.635 51.1696 157.438 51.0698 157.097C51.0195 156.931 50.9971 156.728 51.0474 156.514C51.0875 156.307 51.2469 156.081 51.4231 156.011C51.6637 155.887 52.0002 155.961 52.155 156.291L51.7438 156.557C51.4744 155.707 51.343 155.054 51.4437 154.999C51.5443 154.943 51.8445 155.502 52.1689 156.322L51.7569 156.591C51.7476 156.572 51.6795 156.536 51.5956 156.576C51.5052 156.611 51.4642 156.745 51.4949 156.923C51.5248 157.093 51.6143 157.22 51.7252 157.316C51.948 157.5 52.1596 157.554 52.154 157.643Z" fill="#241352"/>
<path fill-rule="evenodd" clip-rule="evenodd" d="M62.5126 145.463C62.458 145.619 61.95 145.614 61.3873 145.754C60.8197 145.879 60.3798 146.106 60.2472 145.994C60.1096 145.898 60.4616 145.373 61.2225 145.196C61.9847 145.016 62.5795 145.319 62.5126 145.463Z" fill="#241352"/>
<path fill-rule="evenodd" clip-rule="evenodd" d="M73.4333 143.464C73.3537 143.614 72.7353 143.54 72.0112 143.598C71.2858 143.642 70.692 143.803 70.5823 143.665C70.4644 143.541 71.0266 143.086 71.9495 143.023C72.8724 142.957 73.5224 143.325 73.4333 143.464Z" fill="#241352"/>
<path fill-rule="evenodd" clip-rule="evenodd" d="M54.3093 151.346C57.809 147.961 58.8369 142.321 59.7862 137.565C63.0268 139.907 67.484 140.482 71.2207 139.043C72.3932 140.41 73.771 141.603 75.2935 142.573C75.7261 142.849 76.2401 143.117 76.7333 142.969C77.3203 142.793 77.5821 142.126 77.7212 141.532C78.169 139.636 78.1855 137.606 77.5187 135.772C76.8504 133.94 75.4533 132.331 73.6222 131.628C71.6657 130.876 69.464 131.203 67.4317 131.725C64.3715 132.513 61.4216 133.723 58.6936 135.309C56.0151 136.865 53.4441 138.925 52.3074 141.789C51.1721 144.655 51.1776 150.224 53.9153 151.673" fill="#241352"/>
<path fill-rule="evenodd" clip-rule="evenodd" d="M74.3357 175.607C70.7749 174.302 98.1635 183.678 98.1635 183.678L95.3847 200.952L84.9673 197.801L74.3357 175.607Z" fill="#6F35A5"/>
<path fill-rule="evenodd" clip-rule="evenodd" d="M92.21 229.54C92.21 229.54 103.783 226.064 103.386 227.207C102.988 228.351 101.018 228.393 99.0506 230.239C99.0506 230.239 111.987 230.372 111.365 231.394C110.743 232.414 102.322 232.67 102.271 232.845C102.221 233.019 111.482 233.236 111.274 234.18C111.065 235.124 102.459 234.895 102.459 234.895C102.459 234.895 110.436 235.706 110.273 236.725C110.11 237.744 102.755 237.01 102.755 237.01C102.755 237.01 108.911 237.684 108.75 238.604C108.652 239.168 90.7266 239.295 90.6894 239.708C90.6696 239.925 92.21 229.54 92.21 229.54Z" fill="#FFAFA7"/>
<path fill-rule="evenodd" clip-rule="evenodd" d="M109.796 175.482C109.796 175.482 102.817 166.02 104.061 166.024C105.305 166.029 105.954 167.81 108.371 169.031C108.371 169.031 104.515 157.196 105.707 157.444C106.902 157.693 109.749 165.288 109.936 165.281C110.121 165.271 107.478 156.763 108.469 156.657C109.459 156.553 111.887 164.469 111.887 164.469C111.887 164.469 110.224 156.944 111.273 156.775C112.323 156.607 113.87 163.539 113.87 163.539C113.87 163.539 112.633 157.717 113.587 157.575C114.168 157.49 119.436 171.93 119.436 171.93C119.297 171.93 109.796 175.482 109.796 175.482Z" fill="#FFAFA7"/>
<path fill-rule="evenodd" clip-rule="evenodd" d="M46.0774 200.952C46.1519 200.945 46.4058 201.351 46.4196 202.159C46.4169 202.55 46.2388 203.117 45.6841 203.473C45.4191 203.65 45.0244 203.776 44.6159 203.696C44.2116 203.62 43.9066 203.374 43.6858 203.158C43.2428 202.694 42.953 202.419 42.4976 202.37C42.0628 202.309 41.6695 202.44 41.417 202.647C40.8871 203.081 40.9036 203.583 40.796 203.577C40.7242 203.618 40.4496 203.041 41.0458 202.335C41.3369 201.998 41.9221 201.723 42.5735 201.78C42.895 201.803 43.2386 201.907 43.5284 202.105C43.8114 202.297 44.0128 202.529 44.2116 202.72C44.925 203.594 45.8621 202.74 45.9131 202.112C46.0263 201.446 45.9601 200.96 46.0774 200.952Z" fill="#FCF2FC"/>
<path fill-rule="evenodd" clip-rule="evenodd" d="M52.174 196.032C52.1292 195.976 52.379 195.558 53.1284 195.111C53.4964 194.902 54.1195 194.738 54.7346 194.987C55.036 195.101 55.3564 195.347 55.4908 195.714C55.6266 196.076 55.5519 196.451 55.4637 196.741C55.2546 197.343 55.146 197.721 55.3333 198.11C55.4976 198.488 55.8235 198.73 56.1466 198.819C56.8227 199.003 57.2843 198.721 57.3346 198.81C57.4092 198.844 57.0087 199.373 56.0434 199.28C55.5791 199.232 55.0211 198.915 54.7414 198.367C54.6002 198.098 54.5214 197.77 54.5581 197.435C54.5934 197.105 54.7061 196.821 54.7821 196.56C55.2356 195.524 53.958 195.24 53.3416 195.538C52.6641 195.806 52.2405 196.122 52.174 196.032Z" fill="#FCF2FC"/>
<path fill-rule="evenodd" clip-rule="evenodd" d="M52.174 183.297C52.1292 183.241 52.379 182.823 53.1271 182.377C53.495 182.168 54.1182 182.002 54.7346 182.252C55.036 182.366 55.3564 182.611 55.4895 182.979C55.6266 183.341 55.5519 183.717 55.4637 184.006C55.2546 184.608 55.1446 184.986 55.3333 185.373C55.4976 185.753 55.8221 185.994 56.1452 186.084C56.8227 186.268 57.2843 185.986 57.3346 186.075C57.4093 186.109 57.0087 186.638 56.042 186.545C55.5777 186.495 55.0211 186.179 54.7414 185.632C54.6002 185.363 54.5214 185.035 54.5567 184.699C54.592 184.371 54.7061 184.086 54.7821 183.826C55.2356 182.79 53.958 182.505 53.3416 182.804C52.6627 183.072 52.2405 183.387 52.174 183.297Z" fill="#FCF2FC"/>
<path fill-rule="evenodd" clip-rule="evenodd" d="M64.5328 199.838C64.4759 199.885 64.0021 199.691 63.4548 199.042C63.1964 198.722 62.963 198.165 63.1756 197.579C63.2728 197.294 63.509 196.979 63.8938 196.826C64.2716 196.669 64.6828 196.706 65.0037 196.763C65.6719 196.902 66.0901 196.97 66.4916 196.766C66.8861 196.583 67.1167 196.264 67.1848 195.96C67.3251 195.323 66.9778 194.925 67.0695 194.871C67.1014 194.8 67.7071 195.122 67.6918 196.015C67.6807 196.444 67.389 196.983 66.8236 197.287C66.5457 197.439 66.1998 197.539 65.8331 197.534C65.4747 197.529 65.1579 197.45 64.8704 197.403C63.7104 197.074 63.5187 198.27 63.8952 198.81C64.2452 199.408 64.6231 199.77 64.5328 199.838Z" fill="#FCF2FC"/>
<path fill-rule="evenodd" clip-rule="evenodd" d="M73.4377 213.11C73.4789 213.174 73.1846 213.609 72.367 214.037C71.9646 214.236 71.3006 214.367 70.6779 214.052C70.3722 213.903 70.058 213.614 69.9471 213.203C69.8347 212.8 69.9442 212.399 70.0608 212.092C70.3267 211.453 70.4717 211.051 70.3082 210.617C70.166 210.193 69.8475 209.906 69.5162 209.785C68.8252 209.532 68.3205 209.804 68.275 209.705C68.1996 209.661 68.6603 209.118 69.6627 209.292C70.1433 209.38 70.6992 209.765 70.9466 210.381C71.0717 210.684 71.1286 211.045 71.0632 211.407C70.9992 211.761 70.857 212.063 70.7561 212.338C70.1973 213.429 71.5096 213.836 72.1779 213.558C72.9073 213.318 73.3751 213.008 73.4377 213.11Z" fill="#FCF2FC"/>
<path fill-rule="evenodd" clip-rule="evenodd" d="M84.9361 192.069C84.9787 192.133 84.683 192.569 83.8655 192.996C83.4631 193.196 82.7991 193.327 82.1764 193.011C81.8707 192.862 81.5565 192.573 81.4456 192.163C81.3333 191.761 81.4428 191.359 81.5593 191.052C81.8252 190.412 81.9702 190.01 81.8067 189.576C81.6645 189.152 81.3461 188.866 81.0148 188.744C80.3238 188.492 79.8191 188.765 79.7736 188.665C79.6982 188.62 80.1603 188.077 81.1612 188.252C81.6418 188.34 82.1977 188.725 82.4451 189.34C82.5702 189.643 82.6271 190.005 82.5617 190.366C82.4977 190.721 82.3555 191.022 82.2546 191.297C81.6958 192.389 83.0081 192.795 83.6764 192.517C84.4057 192.277 84.8735 191.967 84.9361 192.069Z" fill="#FCF2FC"/>
<path fill-rule="evenodd" clip-rule="evenodd" d="M91.5622 188.783C91.6129 188.727 92.1728 188.844 92.9156 189.412C93.2679 189.695 93.6477 190.225 93.5478 190.86C93.5063 191.169 93.3201 191.53 92.9356 191.754C92.5588 191.977 92.1036 192.01 91.7406 192.007C90.9824 191.978 90.5117 191.981 90.1211 192.259C89.7335 192.514 89.5535 192.877 89.5474 193.201C89.5397 193.875 90.0072 194.223 89.9196 194.293C89.9011 194.372 89.169 194.146 88.9829 193.231C88.8999 192.79 89.0952 192.19 89.6427 191.785C89.9103 191.58 90.2656 191.419 90.6655 191.36C91.0562 191.304 91.4192 191.332 91.7437 191.332C93.0787 191.468 93.0202 190.213 92.4881 189.726C91.9713 189.174 91.4776 188.869 91.5622 188.783Z" fill="#FCF2FC"/>
<path fill-rule="evenodd" clip-rule="evenodd" d="M61.939 224.184C61.9802 224.248 61.6859 224.683 60.8684 225.11C60.466 225.31 59.802 225.441 59.1792 225.126C58.8735 224.976 58.5593 224.686 58.4484 224.277C58.3361 223.874 58.4441 223.473 58.5607 223.166C58.828 222.527 58.9731 222.125 58.8081 221.691C58.6674 221.267 58.3489 220.98 58.0176 220.859C57.3252 220.606 56.8204 220.879 56.7763 220.779C56.701 220.733 57.1616 220.192 58.1626 220.366C58.6446 220.453 59.2006 220.839 59.448 221.455C59.5731 221.758 59.6285 222.119 59.5646 222.481C59.5006 222.835 59.3584 223.137 59.2574 223.412C58.6987 224.503 60.011 224.91 60.6778 224.632C61.4087 224.392 61.8765 224.082 61.939 224.184Z" fill="#FCF2FC"/>
<path fill-rule="evenodd" clip-rule="evenodd" d="M78.0325 203.163C77.9734 203.204 77.5521 202.946 77.119 202.197C76.9155 201.829 76.7672 201.212 77.0389 200.617C77.1662 200.325 77.4261 200.019 77.8067 199.899C78.1808 199.778 78.5628 199.863 78.8568 199.959C79.4658 200.184 79.8491 200.303 80.2521 200.132C80.6445 199.981 80.9018 199.671 81.0029 199.358C81.2129 198.698 80.9359 198.237 81.0291 198.192C81.0685 198.119 81.5961 198.528 81.4714 199.472C81.4071 199.927 81.0672 200.464 80.4988 200.72C80.2192 200.85 79.8819 200.917 79.538 200.869C79.2033 200.825 78.9145 200.704 78.652 200.621C77.6046 200.141 77.2752 201.387 77.5626 202.001C77.8159 202.675 78.1257 203.099 78.0325 203.163Z" fill="#FCF2FC"/>
<path fill-rule="evenodd" clip-rule="evenodd" d="M81.4814 214.237C81.4236 214.278 81.001 214.02 80.5679 213.271C80.3658 212.903 80.2161 212.286 80.4891 211.691C80.6151 211.399 80.8763 211.093 81.2569 210.974C81.631 210.852 82.0116 210.937 82.3056 211.034C82.9146 211.258 83.2992 211.378 83.7008 211.206C84.0932 211.055 84.3505 210.746 84.4515 210.432C84.6615 209.772 84.3859 209.311 84.4778 209.266C84.5172 209.193 85.0448 209.602 84.9214 210.546C84.8571 211.001 84.5159 211.538 83.9475 211.793C83.6693 211.924 83.3307 211.991 82.9868 211.944C82.6521 211.899 82.3647 211.777 82.1009 211.695C81.0535 211.215 80.7241 212.461 81.0115 213.075C81.2648 213.749 81.5759 214.174 81.4814 214.237Z" fill="#FCF2FC"/>
<path fill-rule="evenodd" clip-rule="evenodd" d="M58.6152 210.365C58.5436 210.355 58.4017 209.861 58.5781 208.983C58.6722 208.56 58.9733 207.983 59.5754 207.719C59.8658 207.584 60.265 207.533 60.6297 207.711C60.9917 207.881 61.2185 208.216 61.3749 208.496C61.6813 209.096 61.8882 209.458 62.3033 209.611C62.6985 209.772 63.0963 209.715 63.3828 209.546C63.9809 209.191 64.083 208.645 64.1838 208.674C64.2607 208.646 64.3814 209.331 63.6573 209.967C63.3045 210.268 62.6918 210.438 62.0951 210.234C61.798 210.138 61.5009 209.949 61.2755 209.673C61.0553 209.402 60.9201 209.107 60.7782 208.857C60.3153 207.755 59.2372 208.473 59.0409 209.144C58.7797 209.839 58.7266 210.384 58.6152 210.365Z" fill="#FCF2FC"/>
<path fill-rule="evenodd" clip-rule="evenodd" d="M79.3134 223.654C79.2417 223.644 79.0985 223.15 79.2762 222.272C79.3704 221.848 79.6714 221.272 80.2736 221.008C80.564 220.873 80.9632 220.822 81.3279 221C81.69 221.17 81.9168 221.504 82.0733 221.785C82.3797 222.385 82.5866 222.747 83.0017 222.9C83.3969 223.061 83.7948 223.004 84.0812 222.835C84.6794 222.48 84.7815 221.934 84.881 221.963C84.9579 221.935 85.0799 222.62 84.3545 223.256C84.0043 223.557 83.3889 223.728 82.7935 223.523C82.4964 223.426 82.1993 223.238 81.9738 222.961C81.7537 222.692 81.6184 222.396 81.4765 222.146C81.0136 221.042 79.9354 221.762 79.7391 222.433C79.4778 223.128 79.4248 223.673 79.3134 223.654Z" fill="#FCF2FC"/>
<path fill-rule="evenodd" clip-rule="evenodd" d="M78.1635 182.68C78.0919 182.671 77.9486 182.176 78.1264 181.298C78.2192 180.874 78.5216 180.297 79.1237 180.033C79.4141 179.899 79.8133 179.848 80.1781 180.025C80.5401 180.195 80.7669 180.53 80.9234 180.812C81.2298 181.412 81.4367 181.774 81.8518 181.925C82.247 182.088 82.6449 182.031 82.9314 181.862C83.5295 181.507 83.6316 180.959 83.7311 180.988C83.808 180.961 83.93 181.647 83.2046 182.282C82.8545 182.585 82.2391 182.754 81.6436 182.549C81.3465 182.453 81.0494 182.265 80.824 181.987C80.6038 181.718 80.4685 181.422 80.3266 181.173C79.8637 180.069 78.7855 180.789 78.5892 181.46C78.3279 182.155 78.2749 182.699 78.1635 182.68Z" fill="#FCF2FC"/>
<path fill-rule="evenodd" clip-rule="evenodd" d="M71.0043 229.171C70.9634 229.231 70.4203 229.176 69.6407 228.702C69.2684 228.465 68.8362 227.992 68.8421 227.367C68.8377 227.063 68.9618 226.695 69.2917 226.439C69.6158 226.185 70.0407 226.105 70.3823 226.071C71.1006 226.021 71.543 225.971 71.8715 225.662C72.2014 225.374 72.3197 225.003 72.2802 224.692C72.1926 224.037 71.7036 223.749 71.7766 223.672C71.7824 223.595 72.5036 223.737 72.8073 224.604C72.9489 225.022 72.8467 225.621 72.3897 226.072C72.1649 226.295 71.8539 226.489 71.486 226.586C71.1254 226.68 70.7794 226.691 70.4758 226.725C69.1983 226.73 69.4304 227.939 69.9998 228.354C70.5634 228.835 71.0699 229.08 71.0043 229.171Z" fill="#FCF2FC"/>
<path fill-rule="evenodd" clip-rule="evenodd" d="M46.5284 188.773C46.5949 188.74 47.021 189.024 47.4089 189.772C47.5887 190.14 47.6836 190.737 47.3297 191.276C47.1626 191.54 46.8526 191.805 46.4321 191.882C46.0173 191.962 45.6167 191.845 45.3109 191.726C44.6795 191.457 44.2803 191.309 43.8315 191.433C43.3941 191.538 43.0869 191.806 42.9453 192.094C42.6508 192.696 42.9 193.159 42.7952 193.194C42.7471 193.259 42.2219 192.822 42.454 191.939C42.5701 191.516 42.9906 191.041 43.6277 190.853C43.9405 190.755 44.31 190.723 44.6738 190.801C45.0278 190.874 45.3251 191.016 45.5997 191.12C46.6742 191.671 47.1569 190.525 46.912 189.917C46.7096 189.256 46.4208 188.824 46.5284 188.773Z" fill="#FCF2FC"/>
<path fill-rule="evenodd" clip-rule="evenodd" d="M70.6751 184.898C70.743 184.864 71.1677 185.148 71.5556 185.897C71.7353 186.264 71.8316 186.862 71.4763 187.4C71.3107 187.663 70.9992 187.929 70.5788 188.005C70.1641 188.086 69.7635 187.969 69.4577 187.851C68.8278 187.581 68.4286 187.432 67.9785 187.556C67.5411 187.661 67.2339 187.931 67.0924 188.218C66.7994 188.821 67.0471 189.283 66.9437 189.318C66.8942 189.383 66.369 188.945 66.6012 188.063C66.7173 187.641 67.1391 187.166 67.7747 186.977C68.0875 186.878 68.4584 186.848 68.8207 186.925C69.176 186.999 69.4719 187.14 69.7465 187.244C70.8223 187.795 71.3036 186.649 71.0587 186.04C70.8563 185.379 70.5675 184.948 70.6751 184.898Z" fill="#FCF2FC"/>
<path fill-rule="evenodd" clip-rule="evenodd" d="M56.4638 208.15C56.4106 208.145 56.4195 207.655 56.4801 206.771C56.5407 205.889 56.653 204.611 56.8082 203.038C57.117 199.89 57.6046 195.54 58.1751 190.753C58.3066 189.564 58.3731 188.407 58.1928 187.328C58.0258 186.247 57.5633 185.277 56.8909 184.488C55.5344 182.896 53.6089 182.068 51.9715 181.713C50.3121 181.352 48.8979 181.369 47.9344 181.395C46.9665 181.426 46.4286 181.479 46.4196 181.426C46.4109 181.385 46.9325 181.239 47.9093 181.123C48.8831 181.016 50.3313 180.917 52.0912 181.231C53.8246 181.543 55.926 182.367 57.4495 184.093C58.2076 184.946 58.7484 186.049 58.939 187.223C59.1444 188.398 59.0735 189.612 58.942 190.821C58.3686 195.624 57.7968 199.954 57.349 203.092C57.1244 204.66 56.9293 205.926 56.7771 206.801C56.6264 207.676 56.517 208.156 56.4638 208.15Z" fill="#241352"/>
<path fill-rule="evenodd" clip-rule="evenodd" d="M56.7684 207.649C56.7892 207.837 52.0435 208.458 46.1703 209.041C40.2958 209.625 35.5168 209.945 35.4959 209.759C35.4752 209.573 40.2195 208.95 46.0954 208.369C51.9671 207.785 56.7475 207.463 56.7684 207.649Z" fill="#241352"/>
<path fill-rule="evenodd" clip-rule="evenodd" d="M108.93 215.394C109.113 214.181 109.077 213.025 109.76 211.955C111.12 209.823 113.05 210.358 114.919 211.297C116.824 212.252 118.617 212.826 120.688 211.932C123.921 210.538 125.439 205.68 122.353 203.395C121.354 202.654 120.369 203.876 120.504 204.811C120.69 206.119 121.341 207.557 120.217 208.68C118.715 210.181 116.952 208.921 115.453 208.247C113.834 207.519 112.111 207.358 110.439 208.032C107.562 209.19 105.476 213.076 107.76 215.701C108.083 216.072 108.853 215.905 108.93 215.394Z" fill="#7E2E84"/>
<path fill-rule="evenodd" clip-rule="evenodd" d="M130.347 170.916C128.004 173.031 127.114 176.321 129.349 178.862C131.45 181.254 135.521 181.761 138.148 179.854C144.49 175.253 137.879 166.762 131.036 168.52C129.769 168.845 130.085 170.542 131.337 170.609C133.337 170.717 135.479 170.789 137.077 172.107C138.794 173.523 138.832 175.918 137.425 177.546C133.694 181.86 127.214 175.508 131.133 171.653C131.626 171.168 130.864 170.449 130.347 170.916Z" fill="#FF7081"/>
<path fill-rule="evenodd" clip-rule="evenodd" d="M36.633 167.041C34.2912 169.155 33.3997 172.445 35.6342 174.986C37.7375 177.378 41.807 177.885 44.4335 175.98C50.7763 171.378 44.1652 162.886 37.3216 164.644C36.0546 164.969 36.3706 166.666 37.6228 166.734C39.6232 166.842 41.7653 166.913 43.3647 168.232C45.0805 169.647 45.1177 172.043 43.7106 173.67C39.9795 177.983 33.4996 171.633 37.4185 167.778C37.9119 167.293 37.1502 166.574 36.633 167.041Z" fill="#7CABFF"/>
<path fill-rule="evenodd" clip-rule="evenodd" d="M5.06009 218.692C6.54917 224.187 8.18826 229.619 9.89203 235.053C10.3022 236.359 11.5449 236.77 12.6761 236.006C17.1186 233.008 21.5625 230.058 25.7696 226.736C26.5802 226.096 26.4027 224.809 25.6031 224.263C20.6748 220.9 14.0194 215.938 7.76713 215.902C6.17621 215.894 5.06422 218.118 6.67716 219.043C9.20117 220.489 12.2247 221.005 14.9208 222.12C18.0311 223.405 21.1111 224.914 23.858 226.863C23.9186 225.96 23.9805 225.06 24.0411 224.159C19.3385 227.037 14.9098 230.265 10.437 233.482L13.078 234.006C11.1692 228.639 9.2108 223.312 7.09553 218.024C6.64826 216.906 4.74218 217.519 5.06009 218.692Z" fill="#FF7081"/>
<path fill-rule="evenodd" clip-rule="evenodd" d="M137.23 195.804C141.202 196.286 145.389 196.622 149.398 196.496C150.87 196.449 150.817 194.675 149.398 194.549C145.486 194.196 141.352 194.271 137.431 194.517C136.644 194.566 136.331 195.694 137.23 195.804Z" fill="#FBC580"/>
<path fill-rule="evenodd" clip-rule="evenodd" d="M3.8458 195.804C7.81773 196.286 12.0048 196.622 16.0135 196.496C17.4871 196.449 17.4319 194.675 16.0135 194.549C12.1011 194.196 7.96777 194.271 4.0468 194.517C3.25978 194.566 2.94695 195.694 3.8458 195.804Z" fill="#FBC580"/>
<path fill-rule="evenodd" clip-rule="evenodd" d="M30.2536 189.547C30.1879 189.49 30.1221 189.435 30.0564 189.379C29.1895 188.643 27.7678 188.496 26.9242 189.379C26.0723 190.272 26.1038 191.496 26.9242 192.389L27.0995 192.579C27.8747 193.419 29.473 193.396 30.2536 192.579C31.0302 191.765 31.1877 190.34 30.2536 189.547Z" fill="#241352"/>
<path fill-rule="evenodd" clip-rule="evenodd" d="M86.3673 208.15C86.2189 208.141 86.0821 204.819 85.7912 200.701C85.4991 196.576 85.6302 193.19 85.813 193.2C85.9614 193.209 86.0971 196.531 86.3891 200.65C86.68 204.773 86.5501 208.161 86.3673 208.15Z" fill="#241352"/>
<path fill-rule="evenodd" clip-rule="evenodd" d="M109.662 176.655L120.519 173.821L121.161 175.651L110.209 178.804L109.662 176.655Z" fill="#241352"/>
<path fill-rule="evenodd" clip-rule="evenodd" d="M115.986 176.036C115.986 176.648 115.471 177.143 114.837 177.143C114.202 177.143 113.687 176.648 113.687 176.036C113.687 175.425 114.202 174.928 114.837 174.928C115.471 174.928 115.986 175.425 115.986 176.036Z" fill="#E6E2EB"/>
<path fill-rule="evenodd" clip-rule="evenodd" d="M73.3297 148.329C73.1928 148.408 72.9134 148.269 72.642 147.985C72.373 147.704 72.2568 147.351 72.404 147.266C72.5397 147.186 72.8203 147.325 73.0916 147.609C73.3596 147.89 73.4757 148.243 73.3297 148.329Z" fill="#241352"/>
<path fill-rule="evenodd" clip-rule="evenodd" d="M64.7057 149.436C64.5689 149.516 64.2895 149.376 64.0181 149.092C63.749 148.811 63.6329 148.459 63.7801 148.373C63.9157 148.293 64.1963 148.433 64.4665 148.717C64.7356 148.998 64.8517 149.35 64.7057 149.436Z" fill="#241352"/>
<path fill-rule="evenodd" clip-rule="evenodd" d="M55.0436 106.68V127.256H40.9004L40.45 135.062L32.1388 126.806H1L3.74228 105.162L55.0436 106.68Z" fill="#FAA54E"/>
<path fill-rule="evenodd" clip-rule="evenodd" d="M49.1794 113.374C35.5138 113.157 21.7583 113.081 8.09413 113.309C7.8342 113.313 7.8342 113.622 8.09413 113.627C21.7583 113.855 35.5138 113.778 49.1794 113.561C49.3326 113.559 49.3326 113.376 49.1794 113.374Z" fill="#E6E2EB"/>
<path fill-rule="evenodd" clip-rule="evenodd" d="M49.1794 117.25C35.5138 117.033 21.7583 116.957 8.09413 117.185C7.8342 117.189 7.8342 117.498 8.09413 117.503C21.7583 117.731 35.5138 117.654 49.1794 117.437C49.3326 117.435 49.3326 117.252 49.1794 117.25Z" fill="#E6E2EB"/>
<path fill-rule="evenodd" clip-rule="evenodd" d="M48.6057 121.126C40.3205 120.919 31.9005 120.857 23.6153 121.06C23.358 121.067 23.358 121.372 23.6153 121.378C31.9005 121.583 40.3205 121.52 48.6057 121.313C48.7572 121.31 48.7572 121.129 48.6057 121.126Z" fill="#E6E2EB"/>
</g>
<defs>
<clipPath id="clip0_117_531">
<rect width="211" height="232" fill="white" transform="translate(1 21)"/>
</clipPath>
</defs>
</svg>
