<svg width="245" height="206" viewBox="0 0 245 206" fill="none" xmlns="http://www.w3.org/2000/svg">
<g clip-path="url(#clip0_111_244)">
<mask id="mask0_111_244" style="mask-type:luminance" maskUnits="userSpaceOnUse" x="0" y="0" width="245" height="196">
<path d="M0 0.00732422H244.826V195.755H0V0.00732422Z" fill="white"/>
</mask>
<g mask="url(#mask0_111_244)">
<path fill-rule="evenodd" clip-rule="evenodd" d="M62.1988 192.111C32.2088 182.876 6.19532 159.924 0.868186 131.428C-4.45895 102.933 15.2184 70.8122 46.1368 64.6349C60.7562 61.7126 76.5361 64.3228 90.5027 59.4174C116.845 50.1661 125.797 18.8673 150.134 5.81331C173.582 -6.76218 205.728 2.30801 223.198 21.342C240.665 40.376 245.762 66.64 244.692 91.4568C243.118 127.917 226.155 167.238 189.947 182.655C159.435 195.646 94.924 199.327 62.1988 192.111Z" fill="#FAA54E" fill-opacity="0.7"/>
</g>
<path fill-rule="evenodd" clip-rule="evenodd" d="M25.9849 185.824C32.5926 195.843 46.2065 199.604 58.6139 199.365C71.0197 199.126 83.1508 195.74 95.5389 195.053C115.173 193.968 134.413 199.664 153.712 203.272C173.013 206.878 194.107 208.166 211.32 199.089C215.534 196.868 219.6 193.833 221.306 189.537C223.012 185.243 221.47 179.541 217.03 177.766C215.309 177.08 213.394 177.037 211.529 177.003C170.181 176.272 128.833 175.541 87.4853 174.808C66.4379 174.436 43.236 174.778 27.4468 188.061" fill="#FAA54E" fill-opacity="0.7"/>
<path fill-rule="evenodd" clip-rule="evenodd" d="M204.095 72.8927C201.552 75.117 200.584 78.5796 203.011 81.252C205.295 83.7668 209.714 84.3004 212.567 82.2957C219.455 77.4549 212.275 68.5236 204.843 70.3721C203.467 70.714 203.81 72.5006 205.17 72.5713C207.343 72.6834 209.669 72.76 211.406 74.1471C213.269 75.6359 213.312 78.155 211.782 79.8679C207.73 84.4035 200.694 77.7246 204.949 73.6695C205.486 73.158 204.657 72.4018 204.095 72.8927Z" fill="#3A3A3A" fill-opacity="0.5"/>
<path fill-rule="evenodd" clip-rule="evenodd" d="M38.3599 50.8915C35.8021 49.839 32.655 50.0822 30.3287 51.5106C28.0024 52.9389 26.5762 55.5052 26.6895 58.0598C26.7786 60.0556 27.6528 62.3271 26.2589 63.8705C25.1807 65.0615 23.2575 65.1735 21.7132 65.8103C18.7765 67.019 17.3147 70.5553 18.6503 73.2263C19.3723 74.6723 20.805 76.0034 20.5314 77.5718C20.3549 78.5874 19.4694 79.3908 18.49 79.9022C17.509 80.4123 16.4114 80.7041 15.3964 81.1552C11.6989 82.8032 9.45352 86.6313 9.55875 90.3783C9.66559 94.1254 11.9304 97.6808 15.1778 99.9847C18.4269 102.289 22.5679 103.407 26.6814 103.547C30.8047 103.688 35.1173 102.808 38.2628 100.378C40.6247 98.5534 42.1658 95.9974 43.3023 93.3751C45.4651 88.3884 46.3409 82.9447 45.8423 77.6042C45.3226 72.0618 43.3557 66.6903 42.9251 61.142C42.781 59.2832 42.8101 57.3994 42.3552 55.5819C41.9003 53.7644 40.8788 51.9675 39.1288 51.002" fill="#3A3A3A"/>
<path fill-rule="evenodd" clip-rule="evenodd" d="M37.4224 51.6091C39.7649 47.1752 44.4224 43.8128 49.6998 42.7471C52.9408 42.0926 56.4974 42.3137 59.345 43.8674C62.1942 45.421 64.1627 48.4517 63.7289 51.4499C63.4602 53.3028 62.3561 54.9567 61.6551 56.7137C60.9542 58.4723 60.7243 60.6155 62.0275 62.0601C63.1963 63.3573 65.2004 63.6771 66.7966 64.5159C69.076 65.7158 70.5087 68.1361 70.3581 70.53C70.2076 72.9239 68.4786 75.1792 66.0633 76.1329C68.4624 76.3864 70.7175 77.6084 72.1049 79.4067C73.4939 81.2065 73.9925 83.5518 73.442 85.6936C72.652 88.7625 69.9129 91.1107 66.9666 92.769C62.8741 95.0729 58.1276 96.4084 53.3196 96.6059C48.217 96.8167 42.5655 95.4414 39.7892 91.5367C37.968 88.9733 37.6895 85.7746 37.4856 82.7263C36.8688 73.5253 36.4462 64.3139 36.0237 55.1041C35.9557 53.6226 35.8894 52.1176 36.273 50.676" fill="#3A3A3A"/>
<path fill-rule="evenodd" clip-rule="evenodd" d="M54.5896 93.1798L100.337 108.796L95.9693 91.974L107.866 89.2205C107.866 89.2205 120.663 122.105 111.776 122.985C96.217 124.527 72.6755 118.917 72.6755 118.917L54.5896 93.1798Z" fill="#3A3A3A" fill-opacity="0.5"/>
<path fill-rule="evenodd" clip-rule="evenodd" d="M50.5905 164.955C50.5905 164.955 105.857 110.027 143.167 122.019C180.477 134.011 196.23 189.956 196.23 189.956L166.512 189.517C166.512 189.517 143.044 147.263 131.592 148.899C120.138 150.538 84.7695 190.756 84.7695 190.756L50.5905 164.955Z" fill="#3A3A3A" fill-opacity="0.5"/>
<path fill-rule="evenodd" clip-rule="evenodd" d="M68.0755 131.609L70.3695 163.836C58.4563 177.173 16.9827 159.93 16.9827 159.93L16.4987 146.455L15.5354 114.362C16.4906 101.582 29.5272 95.3102 29.5272 95.3102C34.9164 92.8633 43.1354 91.4748 50.54 91.8094C58.2701 92.1558 60.1804 95.5269 63.3646 101.949C65.937 107.138 72.9192 115.592 68.0755 131.609Z" fill="#3A3A3A" fill-opacity="0.5"/>
<path fill-rule="evenodd" clip-rule="evenodd" d="M24.7339 166.001C24.7339 166.001 18.3912 189.509 37.7237 193.215C57.0561 196.919 128.16 188.252 146.679 189.735C165.199 191.215 217.867 194.014 217.867 194.014L221.723 166.097C221.723 166.097 139.762 162.52 130.499 164.617C121.236 166.712 24.7339 166.001 24.7339 166.001Z" fill="#3A3A3A" fill-opacity="0.5"/>
<path fill-rule="evenodd" clip-rule="evenodd" d="M34.0029 124.902C34.0029 124.902 28.2058 156.009 36.381 155.242C63.2719 152.725 79.284 152.386 79.284 152.386L83.7409 160.811C83.8444 162.247 32.8163 175.548 24.6167 171.15C18.8277 168.046 9.60505 159.682 13.7914 134.688L14.7805 126.31L34.0029 124.902Z" fill="#3A3A3A"/>
<path fill-rule="evenodd" clip-rule="evenodd" d="M58.2667 169.56L58.2116 167.474L91.9633 163.134L100.922 134.609L138.311 133.783L128.222 164.659L58.2667 169.56Z" fill="#3A3A3A" fill-opacity="0.5"/>
<path fill-rule="evenodd" clip-rule="evenodd" d="M118.937 148.128C118.974 149.52 117.765 150.677 116.237 150.711C114.708 150.743 113.439 149.642 113.402 148.251C113.365 146.861 114.574 145.704 116.102 145.67C117.63 145.637 118.9 146.737 118.937 148.128Z" fill="#3A3A3A"/>
<path fill-rule="evenodd" clip-rule="evenodd" d="M120.045 148.104C120.097 150.053 118.404 151.671 116.263 151.718C114.123 151.766 112.346 150.224 112.294 148.275C112.242 146.326 113.936 144.708 116.076 144.662C118.216 144.615 119.993 146.157 120.045 148.104Z" fill="#3A3A3A"/>
<path fill-rule="evenodd" clip-rule="evenodd" d="M19.2117 104.27C19.2117 104.27 12.9386 109.754 11.5367 130.506L35.8131 128.06C35.8131 128.06 39.8586 92.7168 19.2117 104.27Z" fill="#3A3A3A"/>
<path fill-rule="evenodd" clip-rule="evenodd" d="M197.415 41.868C197.415 41.868 206.021 59.4652 208.42 58.5425C210.821 57.6212 233.046 45.0652 233.046 45.0652C233.046 45.0652 223.937 29.3106 222.041 28.3908C220.146 27.4724 197.415 41.868 197.415 41.868Z" fill="#3A3A3A" fill-opacity="0.5"/>
<path fill-rule="evenodd" clip-rule="evenodd" d="M222.041 28.3914C222.15 28.4283 221.517 30.234 220.404 33.1202C219.294 36.0079 217.703 39.9775 215.899 44.3451C215.854 44.4527 215.808 44.5603 215.768 44.6605L215.647 44.9539L215.305 44.9038C210.327 44.1653 205.846 43.4577 202.613 42.9094C199.38 42.361 197.396 41.9719 197.415 41.8687C197.433 41.7655 199.45 41.9674 202.707 42.3787C205.964 42.7914 210.461 43.412 215.441 44.1461L214.98 44.3908C215.02 44.2905 215.064 44.1829 215.109 44.0753C216.914 39.7077 218.593 35.7676 219.848 32.93C221.102 30.091 221.933 28.3546 222.041 28.3914Z" fill="#3A3A3A"/>
<path fill-rule="evenodd" clip-rule="evenodd" d="M205.592 56.476C205.366 56.4303 206.034 53.5397 207.087 50.0226C208.141 46.504 209.173 43.7048 209.395 43.7697C209.617 43.8345 208.948 46.7251 207.901 50.2245C206.854 53.7224 205.819 56.5217 205.592 56.476Z" fill="#3A3A3A"/>
<path fill-rule="evenodd" clip-rule="evenodd" d="M231.58 41.565C231.544 41.7743 228.442 41.5016 224.652 40.9533C220.863 40.4079 217.821 39.7947 217.857 39.5854C217.894 39.376 220.994 39.6487 224.785 40.1956C228.573 40.7425 231.615 41.3557 231.58 41.565Z" fill="#3A3A3A"/>
<path fill-rule="evenodd" clip-rule="evenodd" d="M31.3698 60.773L31.9186 67.3605C31.9186 67.3605 25.7669 68.1167 27.5218 73.2258C29.275 78.3349 33.4824 76.0987 33.4824 76.0987C33.4824 76.0987 34.5347 89.1912 49.2647 85.0403C60.9869 81.737 60.2697 67.9148 58.782 56.1312C58.2057 51.5661 53.4624 48.4278 48.5087 49.3064L39.6535 50.8777C34.5363 51.7843 30.9748 56.0384 31.3698 60.773Z" fill="#3A3A3A"/>
<path fill-rule="evenodd" clip-rule="evenodd" d="M31.9191 72.8289L35.8885 92.0991C36.7822 96.4417 41.4833 99.2188 46.2023 98.1943C50.5748 97.2435 53.3755 93.3535 52.5903 89.3235L50.4356 78.2784L31.9191 72.8289Z" fill="#3A3A3A"/>
<path fill-rule="evenodd" clip-rule="evenodd" d="M48.2113 73.0463C48.268 73.0094 48.3878 73.2173 48.6565 73.2453C48.9187 73.2703 49.3186 73.0227 49.4157 72.4994C49.5501 71.9805 49.4756 71.298 49.3947 70.508C49.3251 69.6589 49.2571 68.8187 49.1859 67.9402C48.9349 64.2934 48.9187 61.3261 49.1519 61.3128C49.385 61.2996 49.7767 64.2447 50.0277 67.8915C50.0762 68.773 50.1232 69.6132 50.1701 70.4637C50.2041 71.2435 50.2365 72.0144 49.9872 72.6527C49.7929 73.319 49.0402 73.7317 48.5707 73.5342C48.1206 73.3263 48.1805 73.0418 48.2113 73.0463Z" fill="#3A3A3A"/>
<path fill-rule="evenodd" clip-rule="evenodd" d="M52.9897 83.6958C53.0561 83.7665 52.47 84.3547 51.2591 84.9885C50.0612 85.6209 48.1898 86.2444 46.0351 86.2842C43.8804 86.327 41.9798 85.7771 40.7543 85.1905C39.5159 84.6038 38.904 84.0392 38.9655 83.9655C39.074 83.7518 41.9458 85.6076 46.0172 85.5162C50.0887 85.4514 52.8731 83.4865 52.9897 83.6958Z" fill="#3A3A3A"/>
<path fill-rule="evenodd" clip-rule="evenodd" d="M50.1123 75.7494C50.1949 75.804 50.0055 76.2359 49.3531 76.653C48.7233 77.0657 47.5642 77.4018 46.3469 77.0525C45.1343 76.6913 44.4075 75.8025 44.1598 75.1333C43.8975 74.4478 44.0189 73.9953 44.1209 73.9968C44.2488 73.9865 44.3492 74.3859 44.6989 74.9018C45.0372 75.4133 45.688 76.0501 46.6043 76.3228C47.5238 76.5882 48.4595 76.4172 49.0633 76.1798C49.6769 75.9455 50.0152 75.6742 50.1123 75.7494Z" fill="#3A3A3A"/>
<path fill-rule="evenodd" clip-rule="evenodd" d="M31.4559 73.8644C31.4576 73.9543 31.0966 74.1121 30.4571 73.9411C30.1511 73.8541 29.7464 73.605 29.5732 73.1731C29.4858 72.9623 29.4469 72.7043 29.5344 72.4346C29.604 72.1707 29.8808 71.8862 30.1868 71.7949C30.6044 71.6401 31.1888 71.7315 31.4592 72.1501L30.7436 72.4891C30.2758 71.4101 30.0492 70.5832 30.224 70.5124C30.3972 70.4417 30.9185 71.1507 31.4818 72.1914L30.7663 72.5304C30.7501 72.5083 30.6319 72.4611 30.4862 72.5127C30.3292 72.5555 30.258 72.7265 30.3114 72.952C30.3632 73.1672 30.5202 73.3279 30.7113 73.4502C31.0982 73.6831 31.4657 73.7509 31.4559 73.8644Z" fill="#3A3A3A"/>
<path fill-rule="evenodd" clip-rule="evenodd" d="M54.1106 64.6207C53.8839 64.6678 53.5828 64.233 53.4371 63.6507C53.2931 63.0685 53.361 62.5599 53.5877 62.5128C53.8143 62.4656 54.1154 62.9005 54.2595 63.4827C54.4052 64.065 54.3372 64.5735 54.1106 64.6207Z" fill="#3A3A3A"/>
<path fill-rule="evenodd" clip-rule="evenodd" d="M41.6394 65.6766C41.4144 65.7341 41.089 65.3066 40.9109 64.7243C40.7328 64.1406 40.7717 63.6232 40.9967 63.5657C41.2201 63.5097 41.5455 63.9357 41.7236 64.5194C41.9016 65.1017 41.8644 65.6191 41.6394 65.6766Z" fill="#3A3A3A"/>
<path fill-rule="evenodd" clip-rule="evenodd" d="M42.7975 60.8801C42.7263 61.0879 42.0625 61.0806 41.3276 61.2678C40.5861 61.4329 40.0114 61.7365 39.8382 61.5862C39.6585 61.4594 40.1183 60.7607 41.1139 60.5249C42.1062 60.2846 42.8849 60.6885 42.7975 60.8801Z" fill="#3A3A3A"/>
<path fill-rule="evenodd" clip-rule="evenodd" d="M55.5318 59.0421C55.4379 59.2426 54.7078 59.1438 53.853 59.2205C52.9967 59.2794 52.2957 59.4932 52.1662 59.3104C52.027 59.1468 52.6907 58.5409 53.7802 58.4569C54.8697 58.367 55.637 58.8593 55.5318 59.0421Z" fill="#3A3A3A"/>
<path fill-rule="evenodd" clip-rule="evenodd" d="M31.9191 67.3608C36.031 63.7111 37.2387 57.6306 38.3541 52.5024C42.1616 55.0275 47.3986 55.648 51.789 54.0959C53.1666 55.5699 54.7855 56.8582 56.5743 57.9019C57.0843 58.1996 57.6865 58.4885 58.2661 58.3293C58.9557 58.1406 59.2633 57.4198 59.4268 56.7801C59.9529 54.7356 59.9723 52.5466 59.1888 50.5699C58.4053 48.5962 56.7621 46.8597 54.6107 46.1021C52.3119 45.2914 49.7249 45.6437 47.3371 46.2067C43.7416 47.0558 40.2757 48.3603 37.0703 50.0702C33.9233 51.7477 30.9025 53.9691 29.5669 57.0572C28.233 60.1468 28.2394 66.1521 31.4561 67.7131" fill="#3A3A3A"/>
<path fill-rule="evenodd" clip-rule="evenodd" d="M48.7007 76.4643C48.8982 77.5035 47.9252 78.5147 46.5945 78.2626C45.2638 77.9988 44.8284 76.7164 45.4727 75.8393C46.1154 74.9505 46.9734 74.4242 47.4703 74.5068C47.9609 74.6158 48.5113 75.4148 48.7007 76.4643Z" fill="#3A3A3A"/>
<path fill-rule="evenodd" clip-rule="evenodd" d="M43.5768 70.3479C43.7808 71.3871 42.3708 72.4867 40.4039 72.5663C38.437 72.6504 36.9217 71.6701 37.0237 70.6191C37.1224 69.5593 38.5503 68.806 40.2128 68.7323C41.8754 68.6675 43.3729 69.3013 43.5768 70.3479Z" fill="#3A3A3A"/>
<path fill-rule="evenodd" clip-rule="evenodd" d="M59.1512 69.1905C59.3827 70.2253 58.1475 71.3264 56.3668 71.409C54.5844 71.493 53.2327 70.5127 53.346 69.4617C53.4577 68.4034 54.7139 67.6472 56.1499 67.575C57.5874 67.513 58.9213 68.1469 59.1512 69.1905Z" fill="#3A3A3A"/>
<path fill-rule="evenodd" clip-rule="evenodd" d="M31.7501 84.7991C31.5137 84.7946 31.3826 82.6808 31.2337 80.085C31.0896 77.4878 30.9811 75.374 31.2159 75.3474C31.4425 75.3194 31.9298 77.4155 32.0755 80.0452C32.226 82.6749 31.9783 84.8049 31.7501 84.7991Z" fill="#3A3A3A"/>
<path fill-rule="evenodd" clip-rule="evenodd" d="M56.1902 93.0393C52.2094 91.5992 82.8285 101.95 82.8285 101.95L79.7219 121.021L68.0758 117.542L56.1902 93.0393Z" fill="#3A3A3A" fill-opacity="0.5"/>
<path fill-rule="evenodd" clip-rule="evenodd" d="M37.9701 49.8976C38.9333 48.5739 39.2506 46.8758 38.8216 45.3368C38.4687 44.0692 37.418 42.8118 35.9837 42.7455C35.1694 42.7071 34.3794 43.0683 33.7804 43.5739C32.3008 44.8209 31.9204 47.0173 32.9063 48.6181C33.8921 50.2189 36.1472 51.0694 38.0882 50.5727" fill="#3A3A3A"/>
<path fill-rule="evenodd" clip-rule="evenodd" d="M220.902 172.037C220.902 172.037 230.861 159.036 229.647 163.958C228.433 168.88 218.317 190.756 218.317 190.756L220.902 172.037Z" fill="#3A3A3A" fill-opacity="0.5"/>
<path fill-rule="evenodd" clip-rule="evenodd" d="M76.4552 152.388C76.4552 152.388 89.6149 148.629 89.1633 149.866C88.7116 151.101 86.4727 151.147 84.2339 153.141C84.2339 153.141 98.9444 153.285 98.237 154.39C97.5296 155.492 87.954 155.771 87.8957 155.958C87.8391 156.147 98.3697 156.381 98.1334 157.401C97.8954 158.423 88.1094 158.173 88.1094 158.173C88.1094 158.173 97.1815 159.052 96.9953 160.152C96.8092 161.253 88.4461 160.46 88.4461 160.46C88.4461 160.46 95.4461 161.188 95.2631 162.184C95.1531 162.792 74.7684 162.929 74.7261 163.375C74.7036 163.61 76.4552 152.388 76.4552 152.388Z" fill="#3A3A3A"/>
<path fill-rule="evenodd" clip-rule="evenodd" d="M96.8278 93.0393C96.8278 93.0393 88.8371 82.8684 90.2617 82.8743C91.6863 82.8787 92.4293 84.7935 95.196 86.1039C95.196 86.1039 90.7813 73.3858 92.146 73.6526C93.514 73.9194 96.7743 82.0827 96.988 82.0739C97.2001 82.065 94.1745 72.9185 95.3093 72.8065C96.4425 72.6945 99.2221 81.2027 99.2221 81.2027C99.2221 81.2027 97.3183 73.1146 98.5195 72.9333C99.7223 72.752 101.493 80.2033 101.493 80.2033C101.493 80.2033 100.077 73.946 101.17 73.7927C101.835 73.6998 107.867 89.2215 107.867 89.2215C107.708 89.2215 96.8278 93.0393 96.8278 93.0393Z" fill="#3A3A3A" fill-opacity="0.5"/>
<path fill-rule="evenodd" clip-rule="evenodd" d="M23.1332 121.021C23.2206 121.014 23.5185 121.496 23.5347 122.457C23.5314 122.923 23.3226 123.599 22.6718 124.021C22.361 124.232 21.898 124.382 21.4188 124.286C20.9445 124.196 20.5867 123.903 20.3293 123.646C19.8081 123.094 19.4697 122.766 18.9355 122.709C18.4239 122.635 17.9626 122.791 17.6663 123.038C17.0447 123.555 17.0641 124.152 16.9378 124.145C16.8536 124.193 16.5315 123.506 17.2308 122.666C17.5724 122.265 18.2604 121.938 19.0229 122.006C19.4001 122.035 19.8032 122.158 20.1432 122.393C20.475 122.622 20.7114 122.898 20.9445 123.125C21.7831 124.165 22.8807 123.15 22.9406 122.401C23.0733 121.611 22.9956 121.03 23.1332 121.021Z" fill="#3A3A3A"/>
<path fill-rule="evenodd" clip-rule="evenodd" d="M30.3216 115.372C30.2682 115.309 30.566 114.825 31.4597 114.314C31.8984 114.073 32.6414 113.885 33.3748 114.169C33.7342 114.302 34.1162 114.583 34.2765 115.006C34.4384 115.422 34.3493 115.854 34.2441 116.187C33.9948 116.878 33.8653 117.313 34.0887 117.76C34.2846 118.195 34.6715 118.472 35.0584 118.574C35.8646 118.787 36.415 118.462 36.4749 118.565C36.5639 118.604 36.0864 119.212 34.9354 119.106C34.3817 119.05 33.7164 118.686 33.3829 118.056C33.2145 117.747 33.1206 117.369 33.1643 116.983C33.2064 116.606 33.3408 116.278 33.4314 115.979C33.9738 114.787 32.4488 114.461 31.7138 114.804C30.906 115.112 30.4009 115.475 30.3216 115.372Z" fill="#3A3A3A"/>
<path fill-rule="evenodd" clip-rule="evenodd" d="M29.8363 101.298C29.7829 101.233 30.0807 100.751 30.9727 100.239C31.4114 99.9992 32.1561 99.8091 32.8895 100.095C33.2488 100.228 33.6309 100.509 33.7895 100.932C33.953 101.348 33.864 101.78 33.7588 102.113C33.5095 102.804 33.3783 103.239 33.6034 103.684C33.7992 104.121 34.1862 104.398 34.5714 104.499C35.3793 104.713 35.9297 104.387 35.9896 104.491C36.0786 104.53 35.601 105.138 34.4484 105.032C33.8948 104.974 33.231 104.61 32.8975 103.982C32.7292 103.673 32.6353 103.295 32.6774 102.909C32.7195 102.532 32.8555 102.204 32.9461 101.905C33.4868 100.713 31.9635 100.387 31.2285 100.729C30.4191 101.038 29.9156 101.401 29.8363 101.298Z" fill="#3A3A3A"/>
<path fill-rule="evenodd" clip-rule="evenodd" d="M45.1641 119.628C45.0977 119.681 44.5457 119.452 43.9079 118.689C43.6068 118.311 43.3348 117.654 43.5825 116.963C43.6958 116.625 43.971 116.254 44.4194 116.072C44.8598 115.888 45.339 115.932 45.7129 115.999C46.4916 116.164 46.9789 116.245 47.4467 116.003C47.9065 115.786 48.1752 115.41 48.2545 115.052C48.418 114.3 48.0133 113.83 48.1202 113.767C48.1574 113.683 48.8632 114.063 48.8454 115.117C48.8324 115.624 48.4925 116.258 47.8336 116.616C47.5098 116.796 47.1067 116.914 46.6794 116.908C46.2617 116.904 45.8926 116.809 45.5575 116.753C44.2057 116.366 43.9823 117.778 44.4211 118.413C44.829 119.121 45.2693 119.547 45.1641 119.628Z" fill="#3A3A3A"/>
<path fill-rule="evenodd" clip-rule="evenodd" d="M55.6155 134.347C55.6624 134.415 55.3273 134.874 54.3965 135.327C53.9383 135.538 53.1823 135.675 52.4733 135.342C52.1252 135.185 51.7674 134.879 51.6412 134.445C51.5133 134.021 51.6379 133.596 51.7707 133.272C52.0734 132.597 52.2385 132.172 52.0524 131.714C51.8905 131.266 51.5278 130.964 51.1507 130.836C50.3639 130.569 49.7892 130.858 49.7374 130.751C49.6516 130.704 50.1777 130.131 51.3174 130.315C51.8646 130.408 52.4975 130.815 52.7792 131.465C52.9217 131.785 52.9864 132.167 52.912 132.55C52.8391 132.923 52.6772 133.241 52.5623 133.533C51.9261 134.684 53.4203 135.115 54.1812 134.82C55.0116 134.566 55.5442 134.239 55.6155 134.347Z" fill="#3A3A3A"/>
<path fill-rule="evenodd" clip-rule="evenodd" d="M67.9198 111.132C67.9667 111.2 67.6316 111.661 66.7008 112.112C66.2427 112.321 65.4866 112.46 64.7776 112.127C64.4295 111.971 64.0718 111.664 63.9455 111.232C63.8176 110.806 63.9422 110.382 64.075 110.057C64.3777 109.384 64.5428 108.959 64.3567 108.499C64.1948 108.051 63.8322 107.749 63.455 107.621C62.6682 107.354 62.0935 107.641 62.0417 107.537C61.9559 107.489 62.482 106.916 63.6217 107.1C64.1689 107.193 64.8019 107.6 65.0835 108.25C65.2276 108.57 65.2908 108.952 65.2163 109.335C65.1434 109.708 64.9816 110.026 64.8666 110.318C64.2304 111.471 65.7246 111.898 66.4855 111.605C67.316 111.351 67.8486 111.024 67.9198 111.132Z" fill="#3A3A3A"/>
<path fill-rule="evenodd" clip-rule="evenodd" d="M76.3146 107.6C76.368 107.537 76.9572 107.668 77.7391 108.313C78.1099 108.635 78.5097 109.236 78.4045 109.957C78.3608 110.306 78.1649 110.718 77.7602 110.971C77.3636 111.225 76.8844 111.262 76.5023 111.259C75.7042 111.226 75.2089 111.228 74.7977 111.543C74.3897 111.833 74.2003 112.246 74.1938 112.613C74.1857 113.378 74.6779 113.773 74.5856 113.853C74.5662 113.943 73.7956 113.686 73.5997 112.647C73.5123 112.146 73.7179 111.466 74.2942 111.005C74.5759 110.774 74.9498 110.591 75.3708 110.525C75.7819 110.461 76.164 110.492 76.5056 110.491C77.9107 110.647 77.8492 109.223 77.2891 108.67C76.7452 108.042 76.2271 107.697 76.3146 107.6Z" fill="#3A3A3A"/>
<path fill-rule="evenodd" clip-rule="evenodd" d="M42.3533 146.351C42.4002 146.418 42.0651 146.878 41.1343 147.331C40.6761 147.54 39.9201 147.679 39.2111 147.346C38.863 147.188 38.5053 146.883 38.379 146.449C38.2511 146.025 38.3757 145.6 38.5069 145.276C38.8112 144.601 38.9763 144.176 38.7902 143.718C38.6283 143.27 38.2657 142.968 37.8885 142.839C37.1001 142.573 36.5254 142.862 36.4752 142.755C36.3894 142.708 36.9139 142.135 38.0552 142.319C38.6024 142.412 39.2354 142.819 39.517 143.469C39.6595 143.789 39.7226 144.17 39.6498 144.554C39.5769 144.927 39.415 145.245 39.3001 145.535C38.6639 146.688 40.1581 147.117 40.9174 146.824C41.7494 146.57 42.2821 146.243 42.3533 146.351Z" fill="#3A3A3A"/>
<path fill-rule="evenodd" clip-rule="evenodd" d="M60.5647 124.011C60.4918 124.057 59.9722 123.771 59.4379 122.942C59.187 122.537 59.0041 121.853 59.3392 121.194C59.4962 120.871 59.8184 120.532 60.2862 120.4C60.7476 120.266 61.2187 120.36 61.5813 120.466C62.3325 120.715 62.8052 120.846 63.3022 120.658C63.7862 120.491 64.1035 120.148 64.2281 119.801C64.4872 119.072 64.1456 118.562 64.2605 118.511C64.3091 118.43 64.9599 118.883 64.8061 119.928C64.7268 120.431 64.3075 121.025 63.6065 121.309C63.2617 121.452 62.8456 121.526 62.4215 121.474C62.0087 121.424 61.6525 121.291 61.3288 121.199C60.0369 120.669 59.6306 122.046 59.9851 122.726C60.2976 123.472 60.6796 123.942 60.5647 124.011Z" fill="#3A3A3A"/>
<path fill-rule="evenodd" clip-rule="evenodd" d="M63.8331 136.013C63.7619 136.059 63.2406 135.773 62.7064 134.945C62.4571 134.539 62.2726 133.855 62.6093 133.197C62.7647 132.874 63.0868 132.536 63.5563 132.404C64.0177 132.268 64.4872 132.362 64.8498 132.47C65.6009 132.718 66.0753 132.85 66.5706 132.66C67.0547 132.493 67.372 132.151 67.4966 131.804C67.7556 131.074 67.4157 130.565 67.529 130.514C67.5776 130.434 68.2283 130.885 68.0762 131.93C67.9968 132.433 67.5759 133.027 66.875 133.312C66.5318 133.456 66.1141 133.528 65.69 133.477C65.2772 133.427 64.9226 133.294 64.5972 133.202C63.3054 132.672 62.899 134.049 63.2536 134.728C63.566 135.474 63.9497 135.944 63.8331 136.013Z" fill="#3A3A3A"/>
<path fill-rule="evenodd" clip-rule="evenodd" d="M37.4753 130.893C37.3879 130.883 37.2147 130.354 37.43 129.413C37.545 128.959 37.9124 128.342 38.6474 128.059C39.0019 127.914 39.4892 127.86 39.9344 128.05C40.3763 128.233 40.6548 128.591 40.8442 128.892C41.2182 129.534 41.4707 129.922 41.9774 130.086C42.4598 130.259 42.9455 130.198 43.2951 130.016C44.0253 129.636 44.1499 129.051 44.2729 129.082C44.3668 129.052 44.5142 129.788 43.6303 130.467C43.2013 130.79 42.4517 130.973 41.7232 130.753C41.3606 130.65 40.998 130.45 40.7228 130.152C40.454 129.863 40.2889 129.546 40.1157 129.278C39.5507 128.097 38.2346 128.868 37.995 129.586C37.6761 130.33 37.6113 130.914 37.4753 130.893Z" fill="#3A3A3A"/>
<path fill-rule="evenodd" clip-rule="evenodd" d="M61.2792 145.711C61.1918 145.701 61.017 145.172 61.2339 144.232C61.3472 143.778 61.7163 143.16 62.4513 142.877C62.8042 142.732 63.2931 142.678 63.7383 142.868C64.1802 143.051 64.457 143.409 64.6481 143.71C65.022 144.352 65.2746 144.74 65.7813 144.904C66.2621 145.078 66.7494 145.016 67.099 144.834C67.8291 144.454 67.9538 143.869 68.0752 143.9C68.1691 143.87 68.318 144.606 67.4325 145.285C67.0035 145.608 66.254 145.791 65.5271 145.571C65.1645 145.468 64.8019 145.268 64.5267 144.97C64.2579 144.681 64.0928 144.364 63.9196 144.096C63.3546 142.915 62.0369 143.686 61.7989 144.405C61.48 145.148 61.4152 145.732 61.2792 145.711Z" fill="#3A3A3A"/>
<path fill-rule="evenodd" clip-rule="evenodd" d="M60.5891 100.821C60.5017 100.81 60.3268 100.28 60.5438 99.3406C60.6571 98.8866 61.0262 98.2675 61.7612 97.986C62.1141 97.8415 62.603 97.787 63.0482 97.9771C63.4901 98.1585 63.7669 98.5181 63.9579 98.8174C64.3319 99.4615 64.5845 99.8492 65.0912 100.013C65.572 100.185 66.0592 100.125 66.4089 99.9435C67.139 99.5632 67.2637 98.978 67.3851 99.009C67.479 98.978 67.6279 99.7136 66.7424 100.393C66.3134 100.717 65.5639 100.899 64.837 100.681C64.4744 100.576 64.1117 100.375 63.8365 100.079C63.5678 99.7888 63.4027 99.4718 63.2295 99.205C62.6645 98.0228 61.3467 98.7938 61.1088 99.5131C60.7898 100.258 60.7251 100.84 60.5891 100.821Z" fill="#3A3A3A"/>
<path fill-rule="evenodd" clip-rule="evenodd" d="M52.8126 151.671C52.7672 151.74 52.165 151.676 51.3006 151.124C50.8877 150.849 50.4102 150.297 50.415 149.571C50.4102 149.218 50.5478 148.788 50.9153 148.49C51.273 148.194 51.7441 148.102 52.1229 148.061C52.9194 148.004 53.4099 147.945 53.7758 147.585C54.14 147.25 54.2712 146.82 54.2275 146.456C54.1303 145.695 53.588 145.359 53.669 145.269C53.6754 145.179 54.4751 145.344 54.8119 146.354C54.9689 146.841 54.8572 147.538 54.3489 148.063C54.1012 148.324 53.7564 148.549 53.3468 148.661C52.9469 148.772 52.5633 148.785 52.2265 148.823C50.81 148.829 51.0674 150.235 51.6988 150.719C52.3237 151.28 52.8854 151.564 52.8126 151.671Z" fill="#3A3A3A"/>
<path fill-rule="evenodd" clip-rule="evenodd" d="M24.5798 107.6C24.6559 107.56 25.1432 107.892 25.5868 108.763C25.7924 109.191 25.9008 109.885 25.4961 110.513C25.3067 110.819 24.9505 111.129 24.4697 111.219C23.9954 111.312 23.5373 111.175 23.1876 111.038C22.4656 110.724 22.0091 110.55 21.4959 110.694C20.9957 110.816 20.6444 111.13 20.4825 111.465C20.1458 112.167 20.4307 112.705 20.3109 112.746C20.2559 112.821 19.6553 112.311 19.9207 111.285C20.0535 110.793 20.5343 110.24 21.2628 110.019C21.6206 109.907 22.0431 109.87 22.4591 109.96C22.8638 110.046 23.2038 110.211 23.5179 110.332C24.7466 110.973 25.2986 109.639 25.0185 108.931C24.787 108.16 24.4568 107.659 24.5798 107.6Z" fill="#3A3A3A"/>
<path fill-rule="evenodd" clip-rule="evenodd" d="M51.8307 103.158C51.9068 103.119 52.3941 103.45 52.8377 104.321C53.0433 104.749 53.1517 105.445 52.747 106.071C52.5576 106.378 52.2015 106.687 51.7207 106.777C51.2463 106.87 50.7882 106.733 50.4385 106.596C49.7165 106.282 49.26 106.108 48.7468 106.252C48.2466 106.375 47.8953 106.689 47.7334 107.023C47.3967 107.725 47.6816 108.263 47.5618 108.304C47.5068 108.38 46.9062 107.871 47.1717 106.844C47.3044 106.351 47.7852 105.798 48.5137 105.579C48.8715 105.465 49.294 105.428 49.71 105.518C50.1148 105.604 50.4547 105.769 50.7688 105.89C51.9975 106.531 52.5495 105.197 52.2695 104.49C52.038 103.719 51.7077 103.217 51.8307 103.158Z" fill="#3A3A3A"/>
<path fill-rule="evenodd" clip-rule="evenodd" d="M35.0312 129.271C34.9729 129.265 34.9826 128.724 35.049 127.753C35.1154 126.78 35.2384 125.375 35.4084 123.641C35.7467 120.176 36.2809 115.388 36.9074 110.117C37.0499 108.808 37.1228 107.534 36.9253 106.346C36.7423 105.157 36.2356 104.088 35.499 103.22C34.0129 101.467 31.9036 100.556 30.1099 100.166C28.2919 99.7692 26.7426 99.7883 25.6871 99.8149C24.6268 99.8488 24.0375 99.9092 24.0277 99.8502C24.0181 99.8045 24.5895 99.6439 25.6596 99.5171C26.7264 99.3977 28.3129 99.2901 30.241 99.6365C32.1399 99.9785 34.4419 100.885 36.111 102.787C36.9414 103.724 37.5339 104.939 37.7428 106.231C37.9678 107.524 37.8901 108.863 37.746 110.192C37.1179 115.48 36.4914 120.247 36.0009 123.7C35.7548 125.426 35.5411 126.822 35.3744 127.783C35.2093 128.748 35.0895 129.277 35.0312 129.271Z" fill="#3A3A3A"/>
<path fill-rule="evenodd" clip-rule="evenodd" d="M36.1118 128.066C36.136 128.277 30.6044 128.983 23.755 129.642C16.9056 130.304 11.3335 130.668 11.3091 130.455C11.2849 130.246 16.8166 129.539 23.6676 128.88C30.5137 128.219 36.0875 127.854 36.1118 128.066Z" fill="#3A3A3A"/>
<path fill-rule="evenodd" clip-rule="evenodd" d="M69.8295 125.573C69.5527 125.549 70.8915 121.103 69.3633 115.807C67.9306 110.487 64.4242 107.163 64.6573 107.022C64.722 106.963 65.6853 107.688 66.88 109.162C68.0747 110.627 69.4167 112.896 70.1808 115.619C70.9352 118.341 70.9433 120.918 70.6616 122.725C70.3832 124.539 69.9186 125.596 69.8295 125.573Z" fill="#3A3A3A" fill-opacity="0.5"/>
<path fill-rule="evenodd" clip-rule="evenodd" d="M134.622 125.931C134.831 124.667 134.79 123.464 135.567 122.349C137.113 120.127 139.317 120.679 141.45 121.657C143.616 122.649 145.655 123.246 148.01 122.317C151.72 120.855 153.364 115.855 149.911 113.439C148.79 112.656 147.638 113.946 147.804 114.913C148.039 116.275 148.768 117.778 147.485 118.949C145.771 120.516 143.759 119.204 142.046 118.499C140.204 117.74 138.248 117.572 136.344 118.271C133.068 119.474 130.687 123.517 133.29 126.251C133.657 126.637 134.535 126.462 134.622 125.931Z" fill="#3A3A3A" fill-opacity="0.5"/>
<path fill-rule="evenodd" clip-rule="evenodd" d="M143.303 67.8504C143.652 69.9008 145.988 74.2271 148.451 74.8241C149.758 75.141 150.729 74.3568 151.744 73.7201C153.593 72.56 155.419 71.3734 157.248 70.1868C157.909 69.7593 158.301 68.9353 157.808 68.2454C156.19 65.9769 154.572 63.7083 152.953 61.4412C152.524 60.8413 151.535 60.4713 150.821 60.9327C148.799 62.2343 146.635 63.4415 144.79 64.948C143.528 65.9798 145.139 67.7369 146.556 67.0323C148.61 66.0093 150.483 64.6149 152.395 63.384C151.683 63.2145 150.972 63.045 150.261 62.8755C151.879 65.1426 153.497 67.4111 155.115 69.6782C155.302 69.0311 155.489 68.3825 155.675 67.7354C154.577 68.4474 153.476 69.1549 152.382 69.8698C151.833 70.228 149.588 72.0942 148.992 71.9718C148.285 71.8274 147.143 69.9715 146.697 69.4866C145.92 68.6464 145.193 67.8519 144.189 67.2298C143.707 66.9291 143.232 67.4244 143.303 67.8504Z" fill="#3A3A3A" fill-opacity="0.5"/>
<path fill-rule="evenodd" clip-rule="evenodd" d="M120.383 88.9967C117.84 91.221 116.872 94.6836 119.299 97.3546C121.581 99.8708 126.002 100.404 128.855 98.3997C135.743 93.5589 128.563 84.6276 121.131 86.4761C119.755 86.818 120.098 88.6046 121.458 88.6753C123.631 88.7874 125.957 88.864 127.692 90.2496C129.557 91.7399 129.598 94.2591 128.07 95.9719C124.018 100.508 116.98 93.8286 121.236 89.7735C121.772 89.262 120.945 88.5058 120.383 88.9967Z" fill="#3A3A3A" fill-opacity="0.5"/>
<path fill-rule="evenodd" clip-rule="evenodd" d="M178.921 109.572C178.043 113.72 177.295 117.877 176.598 122.053C176.431 123.057 177.19 123.735 178.285 123.589C182.592 123.018 186.887 122.492 191.138 121.637C191.956 121.472 192.288 120.555 191.899 119.932C189.49 116.071 186.423 110.692 181.89 108.586C180.742 108.052 179.117 109.207 179.975 110.33C181.323 112.097 183.319 113.422 184.89 115.041C186.698 116.906 188.396 118.912 189.699 121.104C190.065 120.521 190.433 119.939 190.798 119.358C186.347 119.758 181.964 120.487 177.556 121.182C178.136 121.583 178.714 121.984 179.292 122.386C179.823 118.188 180.297 113.997 180.642 109.784C180.716 108.896 179.109 108.686 178.921 109.572Z" fill="#3A3A3A" fill-opacity="0.5"/>
<path fill-rule="evenodd" clip-rule="evenodd" d="M161.112 89.2758C161.174 87.9771 158.852 87.6529 158.585 88.9633C157.745 93.0833 157.442 97.4818 157.408 101.664C157.402 102.535 158.891 102.754 159.108 101.873C160.105 97.8091 160.913 93.437 161.112 89.2758Z" fill="#3A3A3A" fill-opacity="0.5"/>
<path fill-rule="evenodd" clip-rule="evenodd" d="M222.074 102.078C223.758 102.024 223.695 99.8906 222.074 99.7373C217.6 99.3128 212.873 99.4041 208.388 99.699C207.488 99.7579 207.13 101.116 208.158 101.247C212.699 101.826 217.49 102.23 222.074 102.078Z" fill="#3A3A3A" fill-opacity="0.5"/>
<path fill-rule="evenodd" clip-rule="evenodd" d="M171.148 48.5623C175.164 50.5346 179.566 52.4567 183.917 53.7318C185.288 54.1342 186.219 52.1899 184.908 51.5915C180.815 49.7224 176.205 48.2807 171.814 47.1221C170.882 46.8775 170.275 48.1333 171.148 48.5623Z" fill="#3A3A3A" fill-opacity="0.5"/>
<path fill-rule="evenodd" clip-rule="evenodd" d="M183.885 82.0992C182.868 81.2781 181.199 81.1189 180.21 82.0992C179.21 83.0912 179.247 84.4532 180.21 85.4467C180.278 85.516 180.346 85.5868 180.416 85.6575C181.326 86.595 183.202 86.567 184.118 85.6575C185.03 84.7539 185.213 83.1693 184.118 82.2864C184.04 82.2245 183.963 82.1625 183.885 82.0992Z" fill="#3A3A3A" fill-opacity="0.5"/>
<path fill-rule="evenodd" clip-rule="evenodd" d="M201.52 69.2968C198.909 71.4417 197.914 74.7806 200.406 77.3576C202.752 79.7825 207.29 80.2971 210.22 78.3639C217.293 73.696 209.92 65.0837 202.288 66.8661C200.875 67.1959 201.228 68.9187 202.624 68.9869C204.855 69.0949 207.244 69.1688 209.028 70.5064C210.941 71.942 210.984 74.3712 209.413 76.0229C205.252 80.3966 198.027 73.9561 202.396 70.0458C202.948 69.5526 202.097 68.8234 201.52 69.2968Z" fill="#7CABFF"/>
<path fill-rule="evenodd" clip-rule="evenodd" d="M35.4513 48.2358C32.8967 47.1891 29.7535 47.431 27.43 48.8516C25.1065 50.2722 23.6821 52.8246 23.7952 55.3653C23.8842 57.3503 24.7573 59.6095 23.3651 61.1444C22.2883 62.329 20.3674 62.4404 18.8249 63.0737C15.8919 64.2759 14.4319 67.793 15.7658 70.4494C16.4869 71.8876 17.9179 73.2115 17.6446 74.7714C17.4684 75.7815 16.5839 76.5805 15.6057 77.0892C14.6259 77.5964 13.5296 77.8867 12.5158 78.3353C8.82288 79.9744 6.58026 83.7817 6.68536 87.5084C6.79208 91.2351 9.0541 94.7712 12.2976 97.0627C15.5427 99.3541 19.6786 100.467 23.7871 100.606C27.9053 100.745 32.2127 99.8701 35.3543 97.4541C37.7134 95.6391 39.2526 93.097 40.3877 90.4889C42.5479 85.5292 43.4226 80.1151 42.9246 74.8036C42.4056 69.2913 40.4411 63.949 40.011 58.4308C39.8671 56.5821 39.8962 54.7085 39.4418 52.9008C38.9875 51.0932 37.9672 49.3061 36.2194 48.3458" fill="#241352"/>
<path fill-rule="evenodd" clip-rule="evenodd" d="M35.5805 48.1037C37.8877 43.6008 42.4748 40.1861 47.6727 39.1038C50.8647 38.4391 54.3676 38.6637 57.1722 40.2415C59.9784 41.8193 61.9172 44.8971 61.4899 47.942C61.2253 49.8237 60.1379 51.5033 59.4475 53.2878C58.7571 55.0737 58.5307 57.2503 59.8142 58.7173C60.9654 60.0347 62.9393 60.3595 64.5114 61.2113C66.7563 62.4298 68.1674 64.8879 68.0191 67.319C67.8708 69.7501 66.168 72.0405 63.7891 73.009C66.152 73.2665 68.3731 74.5075 69.7395 76.3339C71.1075 78.1617 71.5986 80.5434 71.0565 82.7185C70.2784 85.8352 67.5807 88.2199 64.6788 89.904C60.6481 92.2438 55.9732 93.6001 51.2378 93.8007C46.2122 94.0147 40.646 92.6181 37.9116 88.6525C36.1179 86.0493 35.8436 82.8008 35.6427 79.7051C35.0352 70.3609 34.6191 61.0062 34.203 51.653C34.136 50.1486 34.0706 48.6201 34.4485 47.1561" fill="#241352"/>
<path fill-rule="evenodd" clip-rule="evenodd" d="M51.2273 90.8986L97.393 106.185L92.9853 89.7183L104.991 87.0229C104.991 87.0229 117.905 119.213 108.936 120.074C93.2353 121.583 69.4786 116.092 69.4786 116.092L51.2273 90.8986Z" fill="#FFAFA7"/>
<path fill-rule="evenodd" clip-rule="evenodd" d="M48.2576 161.748C48.2576 161.748 103.195 106.621 140.283 118.656C177.371 130.692 193.03 186.84 193.03 186.84L163.49 186.399C163.49 186.399 140.161 143.992 128.777 145.634C117.392 147.279 82.2332 187.644 82.2332 187.644L48.2576 161.748Z" fill="#5F2D90"/>
<path fill-rule="evenodd" clip-rule="evenodd" d="M65.2623 128.75L67.5606 160.847C55.6245 174.131 14.0713 156.957 14.0713 156.957L13.5863 143.537L12.6212 111.574C13.5782 98.8452 26.6399 92.5984 26.6399 92.5984C32.0394 90.1613 40.2742 88.7784 47.6931 89.1117C55.438 89.4567 57.3519 92.8142 60.5423 99.2107C63.1196 104.378 70.1152 112.798 65.2623 128.75Z" fill="#FBC580"/>
<path fill-rule="evenodd" clip-rule="evenodd" d="M22.5234 162.566C22.5234 162.566 16.1967 186.921 35.4803 190.76C54.7639 194.598 125.688 185.618 144.161 187.154C162.634 188.688 215.169 191.588 215.169 191.588L219.015 162.665C219.015 162.665 137.261 158.959 128.021 161.132C118.782 163.302 22.5234 162.566 22.5234 162.566Z" fill="#6F35A5"/>
<path fill-rule="evenodd" clip-rule="evenodd" d="M30.9991 121.696C30.9991 121.696 25.1802 153.104 33.3862 152.33C60.3782 149.788 76.4506 149.445 76.4506 149.445L80.9242 157.952C81.0281 159.402 29.8081 172.831 21.5777 168.391C15.7669 165.257 6.50954 156.812 10.7117 131.577L11.7045 123.118L30.9991 121.696Z" fill="#FFAFA7"/>
<path fill-rule="evenodd" clip-rule="evenodd" d="M55.7369 166.568L55.6818 164.427L89.4681 159.974L98.4361 130.702L135.864 129.855L125.765 161.538L55.7369 166.568Z" fill="#9C8BBF"/>
<path fill-rule="evenodd" clip-rule="evenodd" d="M116.56 146.105C116.6 147.606 115.302 148.854 113.663 148.89C112.024 148.925 110.662 147.738 110.622 146.237C110.582 144.738 111.879 143.489 113.519 143.453C115.158 143.418 116.52 144.604 116.56 146.105Z" fill="white"/>
<path fill-rule="evenodd" clip-rule="evenodd" d="M117.302 145.06C117.356 147.125 115.573 148.84 113.319 148.89C111.064 148.94 109.192 147.306 109.138 145.241C109.083 143.177 110.867 141.462 113.121 141.413C115.375 141.363 117.247 142.997 117.302 145.06Z" fill="white"/>
<path fill-rule="evenodd" clip-rule="evenodd" d="M16.5538 100.901C16.5538 100.901 10.3055 106.385 8.90909 127.135L33.0897 124.69C33.0897 124.69 37.1192 89.3483 16.5538 100.901Z" fill="#FBC580"/>
<path fill-rule="evenodd" clip-rule="evenodd" d="M194.515 39.1418C194.515 39.1418 203.122 57.3473 205.522 56.3927C207.923 55.4396 230.152 42.4495 230.152 42.4495C230.152 42.4495 221.041 26.1502 219.145 25.1986C217.249 24.2485 194.515 39.1418 194.515 39.1418Z" fill="#E4B1ED"/>
<path fill-rule="evenodd" clip-rule="evenodd" d="M219.003 26.5152C219.111 26.55 218.482 28.2547 217.376 30.9796C216.271 33.7058 214.689 37.4535 212.896 41.5769C212.851 41.6785 212.806 41.78 212.765 41.8747L212.645 42.1516L212.305 42.1043C207.355 41.4071 202.899 40.7391 199.684 40.2214C196.47 39.7037 194.496 39.3363 194.515 39.2389C194.533 39.1415 196.539 39.3322 199.778 39.7204C203.017 40.1101 207.488 40.696 212.44 41.389L211.981 41.62C212.022 41.5254 212.065 41.4238 212.11 41.3222C213.905 37.1988 215.574 33.4789 216.822 30.8C218.07 28.1197 218.895 26.4804 219.003 26.5152Z" fill="#002C68"/>
<path fill-rule="evenodd" clip-rule="evenodd" d="M202.732 54.3887C202.473 54.3447 203.239 51.5611 204.444 48.1742C205.651 44.7858 206.834 42.0902 207.088 42.1527C207.342 42.2151 206.576 44.9988 205.376 48.3686C204.177 51.7371 202.992 54.4327 202.732 54.3887Z" fill="#002C68"/>
<path fill-rule="evenodd" clip-rule="evenodd" d="M228.666 38.7071C228.63 38.8414 225.442 38.6665 221.546 38.3149C217.651 37.9652 214.524 37.572 214.561 37.4378C214.599 37.3035 217.786 37.4784 221.683 37.8291C225.576 38.1797 228.703 38.5729 228.666 38.7071Z" fill="#002C68"/>
<path fill-rule="evenodd" clip-rule="evenodd" d="M29.3454 58.0662L29.8863 64.7791C29.8863 64.7791 23.8232 65.5496 25.5528 70.7559C27.2808 75.9621 31.4275 73.6834 31.4275 73.6834C31.4275 73.6834 32.4646 87.025 46.9824 82.7951C58.5356 79.4289 57.8288 65.3438 56.3625 53.3361C55.7945 48.6842 51.1196 45.4862 46.2372 46.3815L37.5097 47.9827C32.4662 48.9065 28.9561 53.2415 29.3454 58.0662Z" fill="#FFAFA7"/>
<path fill-rule="evenodd" clip-rule="evenodd" d="M29.697 69.3464L33.6635 89.3222C34.5565 93.8238 39.2543 96.7026 43.9698 95.6406C48.3392 94.655 51.1378 90.6226 50.3532 86.445L48.2001 74.9955L29.697 69.3464Z" fill="#FFAFA7"/>
<path fill-rule="evenodd" clip-rule="evenodd" d="M46.0459 70.1701C46.0879 70.1334 46.1767 70.3407 46.3759 70.3686C46.5703 70.3936 46.8668 70.1466 46.9388 69.6248C47.0384 69.1073 46.9832 68.4267 46.9232 67.6387C46.8716 66.792 46.8211 65.9541 46.7683 65.0779C46.5823 61.441 46.5703 58.4818 46.7431 58.4686C46.916 58.4554 47.2064 61.3925 47.3924 65.0294C47.4284 65.9085 47.4632 66.7464 47.498 67.5946C47.5232 68.3723 47.5472 69.1411 47.3624 69.7776C47.2184 70.4421 46.6603 70.8537 46.3123 70.6567C45.9787 70.4495 46.0231 70.1657 46.0459 70.1701Z" fill="#241352"/>
<path fill-rule="evenodd" clip-rule="evenodd" d="M50.4798 80.2447C50.5465 80.337 49.9574 81.1041 48.7402 81.9308C47.5361 82.7555 45.655 83.5687 43.4892 83.6207C41.3233 83.6764 39.4129 82.9593 38.1811 82.1941C36.9363 81.429 36.3212 80.6927 36.383 80.5965C36.492 80.3178 39.3788 82.7382 43.4713 82.619C47.5637 82.5344 50.3626 79.9717 50.4798 80.2447Z" fill="#241352"/>
<path fill-rule="evenodd" clip-rule="evenodd" d="M47.4975 73.247C47.5775 73.3049 47.394 73.7634 46.7617 74.2063C46.1514 74.6445 45.028 75.0014 43.8482 74.6305C42.6731 74.247 41.9686 73.3033 41.7286 72.5928C41.4744 71.8651 41.5921 71.3846 41.6909 71.3862C41.8149 71.3752 41.9121 71.7994 42.251 72.3471C42.5789 72.8902 43.2096 73.5663 44.0977 73.8558C44.9888 74.1375 45.8956 73.9559 46.4809 73.704C47.0755 73.4551 47.4034 73.1672 47.4975 73.247Z" fill="#241352"/>
<path fill-rule="evenodd" clip-rule="evenodd" d="M29.6777 71.2085C29.6789 71.313 29.4105 71.4963 28.935 71.2976C28.7074 71.1965 28.4065 70.9069 28.2777 70.405C28.2127 70.16 28.1838 69.8601 28.2488 69.5466C28.3005 69.2399 28.5064 68.9093 28.7339 68.8031C29.0445 68.6232 29.4791 68.7294 29.6801 69.216L29.148 69.61C28.8001 68.3559 28.6316 67.3948 28.7616 67.3125C28.8904 67.2303 29.278 68.0544 29.697 69.2639L29.1649 69.658C29.1528 69.6323 29.065 69.5775 28.9566 69.6374C28.8399 69.6871 28.7869 69.8858 28.8266 70.148C28.8651 70.3981 28.9819 70.5848 29.124 70.727C29.4117 70.9977 29.6849 71.0766 29.6777 71.2085Z" fill="#241352"/>
<path fill-rule="evenodd" clip-rule="evenodd" d="M51.4673 61.1859C51.2594 61.2162 50.9832 60.9366 50.8496 60.5623C50.7174 60.1879 50.7798 59.8609 50.9877 59.8306C51.1955 59.8003 51.4717 60.0799 51.6039 60.4542C51.7375 60.8286 51.6751 61.1555 51.4673 61.1859Z" fill="#241352"/>
<path fill-rule="evenodd" clip-rule="evenodd" d="M38.1588 61.8645C37.9525 61.9013 37.654 61.6273 37.4907 61.254C37.3273 60.8798 37.363 60.5481 37.5694 60.5112C37.7743 60.4753 38.0727 60.7484 38.2361 61.1226C38.3994 61.4959 38.3652 61.8276 38.1588 61.8645Z" fill="#241352"/>
<path fill-rule="evenodd" clip-rule="evenodd" d="M40.0843 59.0021C40.0139 59.1938 39.3578 59.187 38.6312 59.3597C37.8983 59.512 37.3302 59.7921 37.1589 59.6534C36.9813 59.5364 37.4358 58.8919 38.42 58.6744C39.401 58.4527 40.1707 58.8253 40.0843 59.0021Z" fill="#241352"/>
<path fill-rule="evenodd" clip-rule="evenodd" d="M51.9613 55.867C51.8791 56.0519 51.2402 55.9608 50.4922 56.0315C49.7428 56.0859 49.1294 56.2831 49.0161 56.1145C48.8942 55.9635 49.4751 55.4047 50.4285 55.3272C51.3819 55.2442 52.0533 55.6984 51.9613 55.867Z" fill="#241352"/>
<path fill-rule="evenodd" clip-rule="evenodd" d="M29.1101 64.9093C33.1381 61.2021 34.3211 55.0258 35.4137 49.8168C39.1436 52.3816 44.2737 53.012 48.5745 51.4354C49.924 52.9326 51.5098 54.2413 53.2621 55.3013C53.7617 55.6038 54.3516 55.8972 54.9193 55.7355C55.5949 55.5439 55.8962 54.8117 56.0563 54.1619C56.5717 52.0852 56.5908 49.8617 55.8232 47.8539C55.0557 45.849 53.4461 44.0852 51.3385 43.3156C49.0867 42.4921 46.5525 42.85 44.2135 43.422C40.6914 44.2844 37.2961 45.6095 34.1562 47.3463C31.0734 49.0502 28.1142 51.3066 26.8059 54.4434C25.4992 57.5817 25.5056 63.6816 28.6566 65.2672" fill="#241352"/>
<path fill-rule="evenodd" clip-rule="evenodd" d="M43.5031 75.4233C42.389 75.1403 42.0244 73.7649 42.5639 72.8242C43.102 71.8709 43.8203 71.3065 44.2364 71.3951C44.6471 71.5121 45.1079 72.3689 45.2665 73.4946C45.4319 74.6091 44.6173 75.6937 43.5031 75.4233Z" fill="#241352" fill-opacity="0.2"/>
<path fill-rule="evenodd" clip-rule="evenodd" d="M37.9505 70.0209C36.1745 70.1101 34.8062 69.0697 34.8983 67.9543C34.9875 66.8295 36.2768 66.0301 37.7781 65.9518C39.2793 65.883 40.6315 66.5557 40.8156 67.6664C40.9998 68.7694 39.7266 69.9364 37.9505 70.0209Z" fill="#241352" fill-opacity="0.12"/>
<path fill-rule="evenodd" clip-rule="evenodd" d="M53.564 69.3412C51.7512 69.4304 50.3764 68.3899 50.4916 67.2744C50.6052 66.151 51.8829 65.3484 53.3433 65.2717C54.8054 65.206 56.1621 65.8788 56.3959 66.9865C56.6314 68.0848 55.3751 69.2536 53.564 69.3412Z" fill="#241352" fill-opacity="0.12"/>
<path fill-rule="evenodd" clip-rule="evenodd" d="M29.8344 81.5841C29.6177 81.5796 29.4974 79.451 29.3608 76.837C29.2286 74.2215 29.1291 72.0929 29.3444 72.0662C29.5523 72.038 29.9993 74.1488 30.1329 76.7969C30.271 79.4451 30.0438 81.59 29.8344 81.5841Z" fill="#6042DD"/>
<path fill-rule="evenodd" clip-rule="evenodd" d="M54.5406 89.8787C50.7089 88.4511 80.1818 98.7118 80.1818 98.7118L77.1915 117.617L65.9814 114.169L54.5406 89.8787Z" fill="#FBC580"/>
<path fill-rule="evenodd" clip-rule="evenodd" d="M35.4508 47.3651C36.3112 45.8975 36.5946 44.0147 36.2114 42.3084C35.8962 40.9029 34.9577 39.5088 33.6766 39.4352C32.9493 39.3927 32.2436 39.7931 31.7086 40.3537C30.387 41.7364 30.0472 44.1716 30.9278 45.9465C31.8084 47.7214 33.8226 48.6645 35.5564 48.1137" fill="#241352"/>
<path fill-rule="evenodd" clip-rule="evenodd" d="M217.821 168.949C217.821 168.949 227.522 155.965 226.339 160.88C225.157 165.795 215.303 187.643 215.303 187.643L217.821 168.949Z" fill="#241352"/>
<path fill-rule="evenodd" clip-rule="evenodd" d="M73.7606 149.047C73.7606 149.047 87.0444 145.148 86.5885 146.431C86.1326 147.712 83.8726 147.759 81.6126 149.828C81.6126 149.828 96.4619 149.978 95.7478 151.124C95.0337 152.267 85.3678 152.556 85.309 152.751C85.2518 152.946 95.8818 153.189 95.6432 154.248C95.403 155.307 85.5247 155.049 85.5247 155.049C85.5247 155.049 94.6823 155.96 94.4944 157.101C94.3065 158.243 85.8646 157.421 85.8646 157.421C85.8646 157.421 92.9306 158.176 92.7459 159.21C92.6348 159.84 72.0579 159.982 72.0152 160.445C71.9925 160.688 73.7606 149.047 73.7606 149.047Z" fill="#FFAFA7"/>
<path fill-rule="evenodd" clip-rule="evenodd" d="M93.8975 89.7425C93.8975 89.7425 85.5537 79.8318 87.0413 79.8376C88.5288 79.8419 89.3047 81.7077 92.1936 82.9846C92.1936 82.9846 87.5839 70.5919 89.0089 70.8519C90.4373 71.1119 93.8417 79.0663 94.0648 79.0577C94.2863 79.049 91.127 70.1366 92.3119 70.0274C93.4952 69.9183 96.3976 78.2088 96.3976 78.2088C96.3976 78.2088 94.4097 70.3276 95.6639 70.151C96.9199 69.9743 98.7692 77.235 98.7692 77.235C98.7692 77.235 97.2901 71.1377 98.4311 70.9883C99.1259 70.8979 105.424 86.0224 105.424 86.0224C105.259 86.0224 93.8975 89.7425 93.8975 89.7425Z" fill="#FFAFA7"/>
<path fill-rule="evenodd" clip-rule="evenodd" d="M20.4343 118.297C20.5113 118.289 20.7736 118.787 20.7879 119.778C20.785 120.259 20.6011 120.957 20.028 121.392C19.7543 121.609 19.3465 121.765 18.9245 121.666C18.5068 121.573 18.1917 121.27 17.9651 121.007C17.506 120.435 17.208 120.098 16.7376 120.038C16.2871 119.962 15.8807 120.124 15.6199 120.379C15.0724 120.911 15.0895 121.527 14.9783 121.521C14.9042 121.57 14.6205 120.861 15.2363 119.994C15.5372 119.581 16.1431 119.243 16.8146 119.313C17.1467 119.343 17.5017 119.47 17.8011 119.713C18.0934 119.949 18.3015 120.233 18.5068 120.467C19.2453 121.541 20.2119 120.493 20.2647 119.721C20.3816 118.905 20.3131 118.306 20.4343 118.297Z" fill="#FCF2FC"/>
<path fill-rule="evenodd" clip-rule="evenodd" d="M26.733 112.256C26.6816 112.188 26.9684 111.672 27.8286 111.125C28.2509 110.869 28.9663 110.667 29.6722 110.971C30.0182 111.113 30.386 111.413 30.5403 111.865C30.6961 112.309 30.6104 112.771 30.5091 113.127C30.2691 113.865 30.1444 114.329 30.3595 114.807C30.5481 115.271 30.9205 115.567 31.293 115.676C32.0691 115.904 32.5989 115.556 32.6566 115.666C32.7423 115.709 32.2826 116.357 31.1745 116.244C30.6416 116.184 30.001 115.795 29.68 115.123C29.5179 114.792 29.4275 114.389 29.4696 113.977C29.5101 113.574 29.6395 113.224 29.7268 112.905C30.2488 111.631 28.7808 111.283 28.0733 111.65C27.2956 111.979 26.8094 112.366 26.733 112.256Z" fill="#FCF2FC"/>
<path fill-rule="evenodd" clip-rule="evenodd" d="M26.733 97.9793C26.6816 97.91 26.9684 97.3952 27.827 96.8489C28.2494 96.5923 28.9663 96.3892 29.6722 96.6946C30.0182 96.8363 30.386 97.137 30.5387 97.5888C30.6961 98.0328 30.6104 98.494 30.5091 98.8498C30.2691 99.5882 30.1429 100.053 30.3595 100.528C30.5481 100.994 30.9205 101.29 31.2914 101.399C32.0691 101.627 32.5989 101.279 32.6566 101.389C32.7423 101.432 32.2826 102.08 31.173 101.967C30.64 101.906 30.0011 101.517 29.68 100.846C29.5179 100.515 29.4276 100.112 29.4681 99.7C29.5086 99.2969 29.6395 98.9474 29.7268 98.6279C30.2473 97.3543 28.7808 97.0063 28.0733 97.3716C27.2941 97.7022 26.8094 98.0895 26.733 97.9793Z" fill="#FCF2FC"/>
<path fill-rule="evenodd" clip-rule="evenodd" d="M42.6931 116.93C42.6195 116.98 42.0078 116.768 41.301 116.062C40.9673 115.713 40.666 115.105 40.9404 114.465C41.066 114.153 41.371 113.809 41.8679 113.641C42.3558 113.471 42.8868 113.512 43.3012 113.573C44.1641 113.726 44.704 113.801 45.2224 113.577C45.7319 113.377 46.0297 113.029 46.1176 112.698C46.2988 112.002 45.8503 111.567 45.9687 111.509C46.01 111.431 46.7921 111.783 46.7724 112.758C46.758 113.227 46.3813 113.813 45.6512 114.145C45.2924 114.311 44.8457 114.42 44.3721 114.415C43.9093 114.411 43.5003 114.323 43.129 114.271C41.6311 113.913 41.3835 115.219 41.8697 115.807C42.3217 116.461 42.8097 116.855 42.6931 116.93Z" fill="#FCF2FC"/>
<path fill-rule="evenodd" clip-rule="evenodd" d="M53.4502 131.339C53.4975 131.409 53.1597 131.884 52.2213 132.352C51.7594 132.57 50.9972 132.711 50.2824 132.367C49.9315 132.206 49.5708 131.889 49.4435 131.441C49.3146 131.002 49.4403 130.564 49.5741 130.228C49.8793 129.531 50.0458 129.092 49.8581 128.618C49.6949 128.155 49.3293 127.843 48.949 127.711C48.1558 127.435 47.5765 127.733 47.5242 127.624C47.4377 127.575 47.9681 126.982 49.1171 127.173C49.6687 127.269 50.3069 127.689 50.5909 128.361C50.7345 128.691 50.7998 129.086 50.7247 129.482C50.6512 129.867 50.488 130.196 50.3722 130.498C49.7308 131.688 51.2372 132.132 52.0042 131.828C52.8415 131.566 53.3784 131.228 53.4502 131.339Z" fill="#FCF2FC"/>
<path fill-rule="evenodd" clip-rule="evenodd" d="M66.0714 108.224C66.1188 108.294 65.7809 108.771 64.8425 109.237C64.3806 109.453 63.6185 109.596 62.9036 109.252C62.5527 109.091 62.192 108.774 62.0647 108.327C61.9358 107.887 62.0615 107.448 62.1953 107.113C62.5005 106.417 62.667 105.978 62.4793 105.503C62.3161 105.04 61.9505 104.728 61.5702 104.595C60.777 104.319 60.1977 104.616 60.1454 104.508C60.0589 104.46 60.5894 103.867 61.7383 104.057C62.29 104.153 62.9281 104.574 63.2121 105.246C63.3573 105.576 63.421 105.971 63.3459 106.367C63.2725 106.752 63.1093 107.081 62.9934 107.383C62.352 108.574 63.8584 109.016 64.6254 108.713C65.4627 108.451 65.9996 108.113 66.0714 108.224Z" fill="#FCF2FC"/>
<path fill-rule="evenodd" clip-rule="evenodd" d="M73.4654 105.393C73.5227 105.332 74.1553 105.459 74.9947 106.088C75.3926 106.401 75.8219 106.987 75.7089 107.688C75.662 108.029 75.4517 108.429 75.0173 108.676C74.5915 108.923 74.0771 108.959 73.667 108.956C72.8102 108.924 72.2784 108.926 71.837 109.233C71.3991 109.516 71.1958 109.917 71.1888 110.275C71.1801 111.02 71.7084 111.404 71.6094 111.482C71.5885 111.57 70.7613 111.32 70.551 110.308C70.4572 109.82 70.6779 109.158 71.2966 108.709C71.5989 108.484 72.0004 108.306 72.4522 108.241C72.8936 108.179 73.3038 108.209 73.6704 108.208C75.1789 108.36 75.1128 106.974 74.5115 106.435C73.9276 105.824 73.3715 105.488 73.4654 105.393Z" fill="#FCF2FC"/>
<path fill-rule="evenodd" clip-rule="evenodd" d="M39.3442 143.577C39.3915 143.647 39.0537 144.122 38.1152 144.59C37.6534 144.806 36.8912 144.949 36.1764 144.605C35.8255 144.442 35.4648 144.127 35.3375 143.679C35.2086 143.24 35.3342 142.801 35.4664 142.466C35.7733 141.769 35.9397 141.33 35.752 140.856C35.5888 140.393 35.2233 140.081 34.843 139.948C34.0482 139.672 33.4688 139.971 33.4182 139.861C33.3317 139.813 33.8605 139.22 35.0111 139.41C35.5627 139.506 36.2008 139.927 36.4848 140.599C36.6284 140.929 36.6921 141.324 36.6187 141.72C36.5452 142.105 36.382 142.434 36.2661 142.734C35.6247 143.926 37.1311 144.369 37.8965 144.066C38.7354 143.804 39.2724 143.466 39.3442 143.577Z" fill="#FCF2FC"/>
<path fill-rule="evenodd" clip-rule="evenodd" d="M57.8983 121.011C57.822 121.058 57.2779 120.774 56.7186 119.959C56.4559 119.557 56.2644 118.884 56.6152 118.233C56.7796 117.916 57.1169 117.581 57.6068 117.45C58.0898 117.317 58.5831 117.411 58.9627 117.516C59.7492 117.76 60.2441 117.891 60.7645 117.703C61.2713 117.541 61.6035 117.202 61.734 116.859C62.0052 116.14 61.6475 115.637 61.7679 115.586C61.8187 115.508 62.5001 115.954 62.3391 116.985C62.256 117.481 61.817 118.065 61.0831 118.346C60.7221 118.489 60.2865 118.561 59.8424 118.51C59.4102 118.461 59.0373 118.329 58.6983 118.238C57.3457 117.715 56.9203 119.073 57.2915 119.743C57.6186 120.479 58.0186 120.943 57.8983 121.011Z" fill="#FCF2FC"/>
<path fill-rule="evenodd" clip-rule="evenodd" d="M61.6095 132.57C61.5349 132.615 60.9891 132.333 60.4298 131.515C60.1688 131.115 59.9756 130.441 60.3281 129.791C60.4908 129.472 60.8281 129.139 61.3196 129.008C61.8027 128.875 62.2942 128.968 62.6738 129.074C63.4602 129.318 63.9568 129.449 64.4754 129.261C64.9822 129.097 65.3144 128.76 65.4449 128.416C65.7161 127.697 65.3602 127.195 65.4788 127.144C65.5296 127.066 66.211 127.511 66.0517 128.542C65.9686 129.037 65.5279 129.623 64.7941 129.904C64.4348 130.047 63.9975 130.118 63.5534 130.067C63.1213 130.018 62.7501 129.887 62.4094 129.796C61.0569 129.273 60.6315 130.631 61.0027 131.302C61.3298 132.037 61.7315 132.501 61.6095 132.57Z" fill="#FCF2FC"/>
<path fill-rule="evenodd" clip-rule="evenodd" d="M35.0358 128.494C34.9525 128.483 34.7876 127.876 34.9926 126.798C35.102 126.278 35.4519 125.57 36.1516 125.246C36.4892 125.08 36.9531 125.018 37.3769 125.236C37.7977 125.445 38.0628 125.856 38.2431 126.2C38.5991 126.937 38.8396 127.381 39.322 127.569C39.7813 127.768 40.2437 127.697 40.5766 127.489C41.2717 127.053 41.3903 126.383 41.5075 126.418C41.5969 126.384 41.7371 127.227 40.8956 128.006C40.4872 128.376 39.7736 128.586 39.08 128.334C38.7348 128.216 38.3895 127.986 38.1275 127.645C37.8717 127.314 37.7145 126.95 37.5496 126.643C37.0117 125.29 35.7586 126.173 35.5305 126.996C35.2269 127.849 35.1652 128.518 35.0358 128.494Z" fill="#FCF2FC"/>
<path fill-rule="evenodd" clip-rule="evenodd" d="M58.794 143.451C58.7108 143.44 58.5443 142.833 58.7509 141.755C58.8588 141.235 59.2102 140.527 59.91 140.203C60.246 140.037 60.7115 139.975 61.1354 140.193C61.5562 140.402 61.8197 140.813 62.0016 141.157C62.3577 141.894 62.5981 142.338 63.0806 142.526C63.5384 142.725 64.0023 142.654 64.3352 142.446C65.0304 142.01 65.1491 141.34 65.2647 141.375C65.3541 141.341 65.4959 142.184 64.6528 142.963C64.2443 143.333 63.5307 143.543 62.8386 143.291C62.4933 143.173 62.148 142.943 61.886 142.602C61.6301 142.271 61.4729 141.907 61.308 141.6C60.7701 140.247 59.5154 141.13 59.2888 141.955C58.9852 142.806 58.9235 143.475 58.794 143.451Z" fill="#FCF2FC"/>
<path fill-rule="evenodd" clip-rule="evenodd" d="M58.794 97.9003C58.7108 97.8885 58.5443 97.2803 58.7509 96.2041C58.8588 95.6838 59.2102 94.9743 59.91 94.6516C60.246 94.4861 60.7115 94.4235 61.1354 94.6415C61.5562 94.8493 61.8197 95.2615 62.0016 95.6044C62.3577 96.3427 62.5981 96.787 63.0806 96.9745C63.5384 97.1722 64.0023 97.1029 64.3352 96.8951C65.0304 96.4592 65.1491 95.7886 65.2647 95.824C65.3541 95.7886 65.4959 96.6316 64.6528 97.4104C64.2443 97.782 63.5307 97.9898 62.8386 97.7398C62.4933 97.6198 62.148 97.3901 61.886 97.0505C61.6301 96.7177 61.4729 96.3545 61.308 96.0487C60.7701 94.6938 59.5154 95.5774 59.2888 96.4018C58.9852 97.2549 58.9235 97.9222 58.794 97.9003Z" fill="#FCF2FC"/>
<path fill-rule="evenodd" clip-rule="evenodd" d="M50.3072 148.87C50.2544 148.935 49.5531 148.874 48.5465 148.35C48.0657 148.089 47.5096 147.565 47.5153 146.876C47.5096 146.541 47.6699 146.133 48.0978 145.85C48.5144 145.569 49.063 145.482 49.5041 145.443C50.4316 145.388 51.0028 145.332 51.4289 144.991C51.853 144.673 52.0057 144.264 51.9548 143.919C51.8417 143.197 51.2102 142.878 51.3044 142.792C51.312 142.707 52.2432 142.864 52.6353 143.822C52.8182 144.284 52.6881 144.946 52.0962 145.444C51.8078 145.692 51.4062 145.906 50.9293 146.012C50.4637 146.117 50.0169 146.13 49.6248 146.166C47.9753 146.172 48.275 147.507 49.0102 147.966C49.7379 148.499 50.392 148.767 50.3072 148.87Z" fill="#FCF2FC"/>
<path fill-rule="evenodd" clip-rule="evenodd" d="M22.5625 104.023C22.6389 103.981 23.128 104.331 23.5733 105.25C23.7797 105.701 23.8885 106.433 23.4823 107.095C23.2922 107.419 22.9347 107.745 22.4521 107.84C21.9759 107.938 21.5161 107.794 21.1651 107.649C20.4403 107.318 19.9821 107.134 19.467 107.287C18.9648 107.416 18.6122 107.747 18.4497 108.1C18.1117 108.84 18.3977 109.408 18.2775 109.451C18.2222 109.53 17.6193 108.992 17.8858 107.91C18.0191 107.391 18.5017 106.808 19.233 106.575C19.5921 106.456 20.0162 106.418 20.4338 106.512C20.8401 106.603 21.1813 106.777 21.4966 106.904C22.7299 107.581 23.284 106.173 23.0029 105.427C22.7705 104.614 22.439 104.085 22.5625 104.023Z" fill="#FCF2FC"/>
<path fill-rule="evenodd" clip-rule="evenodd" d="M49.2898 100.624C49.3662 100.582 49.8553 100.932 50.3006 101.85C50.507 102.301 50.6158 103.035 50.2096 103.696C50.0195 104.019 49.662 104.346 49.1793 104.441C48.7032 104.539 48.2434 104.394 47.8924 104.25C47.1676 103.918 46.7094 103.735 46.1943 103.887C45.6921 104.016 45.3395 104.348 45.177 104.7C44.839 105.441 45.125 106.008 45.0048 106.052C44.9495 106.131 44.3466 105.594 44.6131 104.511C44.7464 103.991 45.229 103.408 45.9603 103.177C46.3194 103.057 46.7435 103.018 47.1611 103.113C47.5674 103.203 47.9086 103.377 48.2239 103.505C49.4572 104.181 50.0113 102.774 49.7302 102.028C49.4978 101.215 49.1663 100.686 49.2898 100.624Z" fill="#FCF2FC"/>
<path fill-rule="evenodd" clip-rule="evenodd" d="M32.732 127.135C32.6727 127.129 32.6825 126.563 32.7501 125.546C32.8177 124.527 32.9429 123.056 33.116 121.241C33.4604 117.612 34.0042 112.6 34.642 107.08C34.7871 105.71 34.8612 104.376 34.6602 103.132C34.4739 101.887 33.9581 100.768 33.2083 99.8588C31.6954 98.0237 29.548 97.0698 27.722 96.6608C25.8713 96.2457 24.2941 96.2657 23.2196 96.2935C22.1402 96.329 21.5403 96.3923 21.5303 96.3306C21.5205 96.2827 22.1023 96.1145 23.1916 95.9817C24.2777 95.8567 25.8927 95.7441 27.8555 96.1068C29.7886 96.4648 32.1321 97.414 33.8312 99.405C34.6766 100.387 35.2798 101.658 35.4924 103.012C35.7215 104.365 35.6424 105.767 35.4957 107.159C34.8563 112.695 34.2185 117.687 33.7191 121.303C33.4686 123.11 33.2511 124.572 33.0814 125.578C32.9133 126.587 32.7913 127.141 32.732 127.135Z" fill="#241352"/>
<path fill-rule="evenodd" clip-rule="evenodd" d="M34.8939 125.808C34.9186 125.922 29.2889 126.305 22.318 126.662C15.3472 127.02 9.6763 127.217 9.65151 127.102C9.62688 126.989 15.2566 126.606 22.2291 126.249C29.1966 125.891 34.8691 125.693 34.8939 125.808Z" fill="#241352"/>
<path fill-rule="evenodd" clip-rule="evenodd" d="M66.5979 122.376C66.3321 122.352 67.6176 117.954 66.1503 112.714C64.7747 107.452 61.408 104.162 61.6319 104.023C61.694 103.963 62.6189 104.682 63.7659 106.141C64.913 107.59 66.2016 109.835 66.9352 112.529C67.6595 115.222 67.6673 117.772 67.3968 119.558C67.1295 121.353 66.6834 122.401 66.5979 122.376Z" fill="#241352"/>
<path fill-rule="evenodd" clip-rule="evenodd" d="M130.839 122.541C131.045 121.309 131.005 120.138 131.769 119.052C133.29 116.887 135.457 117.426 137.556 118.378C139.687 119.344 141.692 119.924 144.009 119.021C147.659 117.597 149.275 112.727 145.878 110.373C144.776 109.611 143.643 110.867 143.807 111.809C144.037 113.136 144.754 114.6 143.493 115.74C141.806 117.266 139.827 115.989 138.142 115.302C136.33 114.563 134.406 114.399 132.534 115.08C129.311 116.251 126.968 120.19 129.529 122.853C129.89 123.229 130.753 123.058 130.839 122.541Z" fill="#7E2E84"/>
<path fill-rule="evenodd" clip-rule="evenodd" d="M140.325 64.9668C140.658 67.0325 142.895 71.3911 145.254 71.9926C146.505 72.3119 147.435 71.5218 148.406 70.8803C150.176 69.7115 151.925 68.5161 153.676 67.3206C154.309 66.8899 154.684 66.0598 154.212 65.3648C152.663 63.0793 151.114 60.7938 149.564 58.5098C149.153 57.9054 148.206 57.5326 147.523 57.9975C145.587 59.3088 143.515 60.525 141.748 62.0427C140.54 63.0823 142.083 64.8524 143.439 64.1426C145.406 63.112 147.199 61.7071 149.029 60.4671C148.347 60.2963 147.667 60.1255 146.987 59.9548C148.535 62.2388 150.085 64.5243 151.633 66.8083C151.813 66.1563 151.991 65.5029 152.17 64.851C151.119 65.5682 150.065 66.2811 149.017 67.0013C148.492 67.3622 146.342 69.2423 145.771 69.119C145.094 68.9735 144.001 67.1038 143.574 66.6152C142.83 65.7687 142.134 64.9683 141.173 64.3416C140.711 64.0386 140.257 64.5376 140.325 64.9668Z" fill="#FBC580"/>
<path fill-rule="evenodd" clip-rule="evenodd" d="M118.369 86.2936C115.757 88.4385 114.763 91.7774 117.255 94.3531C119.599 96.7794 124.139 97.294 127.068 95.3609C134.142 90.6929 126.769 82.0805 119.137 83.863C117.724 84.1927 118.076 85.9155 119.472 85.9837C121.703 86.0918 124.092 86.1657 125.874 87.5018C127.79 88.9389 127.831 91.3681 126.262 93.0198C122.101 97.3935 114.874 90.953 119.245 87.0427C119.795 86.5495 118.945 85.8203 118.369 86.2936Z" fill="#7CABFF"/>
<path fill-rule="evenodd" clip-rule="evenodd" d="M175.977 106.535C175.135 110.815 174.418 115.103 173.749 119.411C173.589 120.447 174.317 121.147 175.367 120.996C179.497 120.407 183.615 119.865 187.691 118.983C188.475 118.812 188.793 117.866 188.42 117.223C186.111 113.24 183.169 107.691 178.823 105.518C177.723 104.967 176.164 106.158 176.987 107.317C178.28 109.14 180.194 110.507 181.699 112.177C183.433 114.101 185.061 116.171 186.311 118.432C186.662 117.831 187.014 117.231 187.365 116.631C183.096 117.044 178.895 117.796 174.668 118.513C175.224 118.926 175.778 119.34 176.332 119.755C176.841 115.424 177.296 111.101 177.627 106.754C177.698 105.837 176.157 105.621 175.977 106.535Z" fill="#FF7081"/>
<path fill-rule="evenodd" clip-rule="evenodd" d="M155.725 98.6995C156.924 94.6445 157.896 90.2821 158.135 86.1299C158.209 84.8342 155.418 84.5106 155.097 85.8181C154.087 89.9291 153.723 94.318 153.682 98.4907C153.674 99.3599 155.465 99.5791 155.725 98.6995Z" fill="#FF957E"/>
<path fill-rule="evenodd" clip-rule="evenodd" d="M205.497 98.1581C209.77 98.8978 214.277 99.4135 218.592 99.2196C220.176 99.15 220.116 96.4264 218.592 96.2307C214.381 95.6886 209.933 95.8053 205.713 96.1818C204.866 96.2571 204.529 97.9905 205.497 98.1581Z" fill="#FBC580"/>
<path fill-rule="evenodd" clip-rule="evenodd" d="M168.932 46.2159C172.757 48.0183 176.949 49.775 181.092 50.9402C182.398 51.308 183.284 49.5311 182.036 48.9842C178.139 47.276 173.748 45.9586 169.567 44.8997C168.68 44.6761 168.101 45.8238 168.932 46.2159Z" fill="#FF7081"/>
<path fill-rule="evenodd" clip-rule="evenodd" d="M181.807 79.1384C181.722 79.0701 181.636 79.0018 181.551 78.9318C180.432 78.0256 178.596 77.8499 177.507 78.9318C176.406 80.0267 176.447 81.53 177.507 82.6266C177.582 82.7031 177.657 82.7812 177.733 82.8593C178.734 83.894 180.799 83.8631 181.807 82.8593C182.81 81.8619 183.011 80.113 181.807 79.1384Z" fill="#241352"/>
<path fill-rule="evenodd" clip-rule="evenodd" d="M81.3826 3.8022C76.8645 5.22926 73.126 8.75236 71.4901 13.0577C69.8541 17.3646 70.3378 22.36 72.7253 26.3256C77.3201 33.9607 89.1179 36.4192 96.5714 31.2954C104.025 26.1716 105.465 14.6116 99.4832 7.92935C93.4998 1.2486 81.4343 0.940531 75.0939 7.30869" fill="#FAA54E" fill-opacity="0.7"/>
</g>
<defs>
<clipPath id="clip0_111_244">
<rect width="245" height="206" fill="white"/>
</clipPath>
</defs>
</svg>
