<svg width="310" height="100" viewBox="0 0 310 100" fill="none" xmlns="http://www.w3.org/2000/svg">
<g clip-path="url(#clip0_1_3)">
<g clip-path="url(#clip1_1_3)">
<path d="M307.714 46.2222H305.4C305.348 46.2222 305.296 46.2351 305.247 46.2603C305.198 46.2854 305.154 46.3224 305.117 46.3689C305.08 46.4154 305.05 46.4707 305.03 46.5315C305.01 46.5922 305 46.6574 305 46.7232V52.5972C305 52.6629 305.01 52.728 305.03 52.7887C305.051 52.8494 305.08 52.9046 305.117 52.9511C305.154 52.9976 305.198 53.0344 305.247 53.0595C305.296 53.0847 305.348 53.0976 305.4 53.0975H307.714C307.935 53.0975 308.114 52.8731 308.114 52.5972V46.7232C308.114 46.4466 307.935 46.2222 307.714 46.2222ZM306.153 46.5419H306.978V46.7819H306.153V46.5419ZM306.558 52.6028C306.49 52.6028 306.425 52.5691 306.377 52.5093C306.329 52.4496 306.302 52.3684 306.302 52.2838C306.305 52.2015 306.333 52.1238 306.38 52.0669C306.428 52.01 306.491 51.9782 306.557 51.9782C306.623 51.9782 306.686 52.01 306.734 52.0669C306.782 52.1238 306.81 52.2015 306.813 52.2838C306.812 52.4381 306.698 52.6028 306.558 52.6028ZM307.814 51.5088H305.3V47.0672H307.814V51.5088Z" fill="url(#paint0_linear_1_3)"/>
<path d="M6.15724 46.4063H3.84299C3.79039 46.4062 3.73828 46.4179 3.68968 46.4405C3.64107 46.4632 3.59691 46.4964 3.55973 46.5383C3.52255 46.5801 3.49308 46.6299 3.47301 46.6846C3.45293 46.7393 3.44265 46.7979 3.44275 46.8571V52.1437C3.44272 52.2029 3.45305 52.2615 3.47315 52.3161C3.49325 52.3708 3.52273 52.4204 3.55991 52.4622C3.59708 52.5041 3.64122 52.5372 3.68979 52.5598C3.73837 52.5824 3.79043 52.5941 3.84299 52.594H6.15724C6.378 52.594 6.55724 52.3921 6.55724 52.1437V46.8571C6.55724 46.6082 6.378 46.4063 6.15724 46.4063ZM4.59549 46.694H5.42099V46.91H4.59549V46.694ZM5.00025 52.1488C4.93254 52.1487 4.86758 52.1185 4.81966 52.0647C4.77172 52.0108 4.7447 51.9378 4.74451 51.8617C4.74741 51.7876 4.77561 51.7177 4.82321 51.6665C4.87079 51.6152 4.93414 51.5866 5 51.5866C5.06586 51.5866 5.12921 51.6152 5.17679 51.6665C5.22439 51.7177 5.25259 51.7876 5.25549 51.8617C5.25524 52.0006 5.14051 52.1488 5.00025 52.1488ZM6.25724 51.1642H3.74275V47.1668H6.25724V51.1642Z" fill="url(#paint1_linear_1_3)"/>
<path d="M288.26 49.985C288.26 49.6957 288.358 49.061 288.554 48.081C288.237 48.081 287.964 47.9923 287.735 47.815C287.511 47.6377 287.376 47.3623 287.329 46.989C287.707 46.9143 288.064 46.8023 288.4 46.653C288.741 46.499 289.025 46.3683 289.254 46.261C289.483 46.1537 289.688 46.1 289.87 46.1C290.201 46.1 290.367 46.2867 290.367 46.66C290.367 46.8887 290.276 47.4207 290.094 48.256C289.912 49.0867 289.821 49.6817 289.821 50.041C289.821 50.3957 289.889 50.6873 290.024 50.916C289.711 51.0887 289.413 51.175 289.128 51.175C288.549 51.175 288.26 50.7783 288.26 49.985Z" fill="url(#paint2_linear_1_3)"/>
<path d="M253.385 48.935C253.385 48.0857 253.642 47.402 254.155 46.884C254.668 46.3613 255.338 46.1 256.164 46.1C256.402 46.1 256.591 46.135 256.731 46.205C256.773 46.2517 256.801 46.3637 256.815 46.541C257.193 46.6297 257.471 46.8327 257.648 47.15C257.83 47.4673 257.921 47.864 257.921 48.34C257.921 49.166 257.674 49.845 257.179 50.377C256.689 50.909 256.115 51.175 255.457 51.175C254.799 51.175 254.288 50.9697 253.924 50.559C253.565 50.1483 253.385 49.607 253.385 48.935ZM254.757 49.04C254.757 49.376 254.818 49.6513 254.939 49.866C255.065 50.076 255.252 50.181 255.499 50.181C255.746 50.181 255.973 49.992 256.178 49.614C256.388 49.2313 256.493 48.8067 256.493 48.34C256.493 47.668 256.213 47.332 255.653 47.332C255.564 47.332 255.455 47.3437 255.324 47.367C254.946 47.857 254.757 48.4147 254.757 49.04Z" fill="url(#paint3_linear_1_3)"/>
<path d="M229.26 49.985C229.26 49.6957 229.358 49.061 229.554 48.081C229.237 48.081 228.964 47.9923 228.735 47.815C228.511 47.6377 228.376 47.3623 228.329 46.989C228.707 46.9143 229.064 46.8023 229.4 46.653C229.741 46.499 230.025 46.3683 230.254 46.261C230.483 46.1537 230.688 46.1 230.87 46.1C231.201 46.1 231.367 46.2867 231.367 46.66C231.367 46.8887 231.276 47.4207 231.094 48.256C230.912 49.0867 230.821 49.6817 230.821 50.041C230.821 50.3957 230.889 50.6873 231.024 50.916C230.711 51.0887 230.413 51.175 230.128 51.175C229.549 51.175 229.26 50.7783 229.26 49.985Z" fill="url(#paint4_linear_1_3)"/>
<path d="M200.385 48.935C200.385 48.0857 200.642 47.402 201.155 46.884C201.668 46.3613 202.338 46.1 203.164 46.1C203.402 46.1 203.591 46.135 203.731 46.205C203.773 46.2517 203.801 46.3637 203.815 46.541C204.193 46.6297 204.471 46.8327 204.648 47.15C204.83 47.4673 204.921 47.864 204.921 48.34C204.921 49.166 204.674 49.845 204.179 50.377C203.689 50.909 203.115 51.175 202.457 51.175C201.799 51.175 201.288 50.9697 200.924 50.559C200.565 50.1483 200.385 49.607 200.385 48.935ZM201.757 49.04C201.757 49.376 201.818 49.6513 201.939 49.866C202.065 50.076 202.252 50.181 202.499 50.181C202.746 50.181 202.973 49.992 203.178 49.614C203.388 49.2313 203.493 48.8067 203.493 48.34C203.493 47.668 203.213 47.332 202.653 47.332C202.564 47.332 202.455 47.3437 202.324 47.367C201.946 47.857 201.757 48.4147 201.757 49.04Z" fill="url(#paint5_linear_1_3)"/>
<path d="M160.26 49.985C160.26 49.6957 160.358 49.061 160.554 48.081C160.237 48.081 159.964 47.9923 159.735 47.815C159.511 47.6377 159.376 47.3623 159.329 46.989C159.707 46.9143 160.064 46.8023 160.4 46.653C160.741 46.499 161.025 46.3683 161.254 46.261C161.483 46.1537 161.688 46.1 161.87 46.1C162.201 46.1 162.367 46.2867 162.367 46.66C162.367 46.8887 162.276 47.4207 162.094 48.256C161.912 49.0867 161.821 49.6817 161.821 50.041C161.821 50.3957 161.889 50.6873 162.024 50.916C161.711 51.0887 161.413 51.175 161.128 51.175C160.549 51.175 160.26 50.7783 160.26 49.985Z" fill="url(#paint6_linear_1_3)"/>
<path d="M131.385 48.935C131.385 48.0857 131.642 47.402 132.155 46.884C132.668 46.3613 133.338 46.1 134.164 46.1C134.402 46.1 134.591 46.135 134.731 46.205C134.773 46.2517 134.801 46.3637 134.815 46.541C135.193 46.6297 135.471 46.8327 135.648 47.15C135.83 47.4673 135.921 47.864 135.921 48.34C135.921 49.166 135.674 49.845 135.179 50.377C134.689 50.909 134.115 51.175 133.457 51.175C132.799 51.175 132.288 50.9697 131.924 50.559C131.565 50.1483 131.385 49.607 131.385 48.935ZM132.757 49.04C132.757 49.376 132.818 49.6513 132.939 49.866C133.065 50.076 133.252 50.181 133.499 50.181C133.746 50.181 133.973 49.992 134.178 49.614C134.388 49.2313 134.493 48.8067 134.493 48.34C134.493 47.668 134.213 47.332 133.653 47.332C133.564 47.332 133.455 47.3437 133.324 47.367C132.946 47.857 132.757 48.4147 132.757 49.04Z" fill="url(#paint7_linear_1_3)"/>
<path d="M97.26 49.985C97.26 49.6957 97.358 49.061 97.554 48.081C97.2367 48.081 96.9637 47.9923 96.735 47.815C96.511 47.6377 96.3757 47.3623 96.329 46.989C96.707 46.9143 97.064 46.8023 97.4 46.653C97.7407 46.499 98.0253 46.3683 98.254 46.261C98.4827 46.1537 98.688 46.1 98.87 46.1C99.2013 46.1 99.367 46.2867 99.367 46.66C99.367 46.8887 99.276 47.4207 99.094 48.256C98.912 49.0867 98.821 49.6817 98.821 50.041C98.821 50.3957 98.8887 50.6873 99.024 50.916C98.7113 51.0887 98.4127 51.175 98.128 51.175C97.5493 51.175 97.26 50.7783 97.26 49.985Z" fill="url(#paint8_linear_1_3)"/>
<path d="M70.385 48.935C70.385 48.0857 70.6417 47.402 71.155 46.884C71.6683 46.3613 72.338 46.1 73.164 46.1C73.402 46.1 73.591 46.135 73.731 46.205C73.773 46.2517 73.801 46.3637 73.815 46.541C74.193 46.6297 74.4707 46.8327 74.648 47.15C74.83 47.4673 74.921 47.864 74.921 48.34C74.921 49.166 74.6737 49.845 74.179 50.377C73.689 50.909 73.115 51.175 72.457 51.175C71.799 51.175 71.288 50.9697 70.924 50.559C70.5647 50.1483 70.385 49.607 70.385 48.935ZM71.757 49.04C71.757 49.376 71.8177 49.6513 71.939 49.866C72.065 50.076 72.2517 50.181 72.499 50.181C72.7463 50.181 72.9727 49.992 73.178 49.614C73.388 49.2313 73.493 48.8067 73.493 48.34C73.493 47.668 73.213 47.332 72.653 47.332C72.5643 47.332 72.4547 47.3437 72.324 47.367C71.946 47.857 71.757 48.4147 71.757 49.04Z" fill="url(#paint9_linear_1_3)"/>
<path d="M43.26 49.985C43.26 49.6957 43.358 49.061 43.554 48.081C43.2367 48.081 42.9637 47.9923 42.735 47.815C42.511 47.6377 42.3757 47.3623 42.329 46.989C42.707 46.9143 43.064 46.8023 43.4 46.653C43.7407 46.499 44.0253 46.3683 44.254 46.261C44.4827 46.1537 44.688 46.1 44.87 46.1C45.2013 46.1 45.367 46.2867 45.367 46.66C45.367 46.8887 45.276 47.4207 45.094 48.256C44.912 49.0867 44.821 49.6817 44.821 50.041C44.821 50.3957 44.8887 50.6873 45.024 50.916C44.7113 51.0887 44.4127 51.175 44.128 51.175C43.5493 51.175 43.26 50.7783 43.26 49.985Z" fill="url(#paint10_linear_1_3)"/>
<path d="M12.385 48.935C12.385 48.0857 12.6417 47.402 13.155 46.884C13.6683 46.3613 14.338 46.1 15.164 46.1C15.402 46.1 15.591 46.135 15.731 46.205C15.773 46.2517 15.801 46.3637 15.815 46.541C16.193 46.6297 16.4707 46.8327 16.648 47.15C16.83 47.4673 16.921 47.864 16.921 48.34C16.921 49.166 16.6737 49.845 16.179 50.377C15.689 50.909 15.115 51.175 14.457 51.175C13.799 51.175 13.288 50.9697 12.924 50.559C12.5647 50.1483 12.385 49.607 12.385 48.935ZM13.757 49.04C13.757 49.376 13.8177 49.6513 13.939 49.866C14.065 50.076 14.2517 50.181 14.499 50.181C14.7463 50.181 14.9727 49.992 15.178 49.614C15.388 49.2313 15.493 48.8067 15.493 48.34C15.493 47.668 15.213 47.332 14.653 47.332C14.5643 47.332 14.4547 47.3437 14.324 47.367C13.946 47.857 13.757 48.4147 13.757 49.04Z" fill="url(#paint11_linear_1_3)"/>
</g>
<mask id="mask0_1_3" style="mask-type:alpha" maskUnits="userSpaceOnUse" x="0" y="53" width="331" height="49">
<rect y="53" width="331" height="49" fill="#D9D9D9"/>
</mask>
<g mask="url(#mask0_1_3)">
<path d="M91.26 53.76C92.28 53.76 92.79 55.14 92.79 57.9C92.79 59.4 92.16 61.23 90.9 63.39C89.64 65.49 87.99 67.44 85.95 69.24C83.97 70.98 81.75 72.42 79.29 73.56C76.83 74.7 74.22 75.27 71.46 75.27C68.76 75.27 66.63 74.4 65.07 72.66C63.57 70.86 62.82 68.88 62.82 66.72C62.82 64.5 63.18 62.01 63.9 59.25C64.62 56.49 65.4 53.61 66.24 50.61C68.52 42.63 69.69 37.02 69.75 33.78C69.75 32.4 69.57 31.35 69.21 30.63C68.85 29.85 68.16 29.46 67.14 29.46C65.34 29.46 63.42 30.54 61.38 32.7C59.34 34.86 57.42 37.62 55.62 40.98C51.48 48.66 49.29 56.16 49.05 63.48C49.17 64.32 49.29 65.16 49.41 66C49.53 66.84 49.59 67.74 49.59 68.7C49.59 70.62 48.63 72.39 46.71 74.01C44.85 75.57 42.75 76.35 40.41 76.35C39.03 76.35 38.01 75.69 37.35 74.37C36.69 72.99 36.36 71.31 36.36 69.33C36.36 67.35 36.81 64.65 37.71 61.23C38.61 57.81 39.6 54.18 40.68 50.34C43.56 40.2 45.03 32.64 45.09 27.66C45.09 25.14 44.76 23.16 44.1 21.72C43.5 20.28 42.3 19.56 40.5 19.56C37.26 19.56 34.05 21.87 30.87 26.49C27.69 31.11 24.84 38.28 22.32 48C21.66 50.52 21.15 52.71 20.79 54.57L20.7 56.28C21.84 61.8 22.41 65.4 22.41 67.08C22.41 70.56 21.18 72.9 18.72 74.1C17.58 74.64 16.47 75.15 15.39 75.63C14.37 76.11 13.26 76.35 12.06 76.35C9.06 76.35 7.56 73.5 7.56 67.8C7.56 62.04 9.15 50.82 12.33 34.14C13.47 28.14 14.04 24.78 14.04 24.06C14.04 19.2 12.81 16.77 10.35 16.77C9.51 16.77 8.73 17.01 8.01 17.49C7.35 17.97 6.66 18.48 5.94 19.02C5.28 19.56 4.59 20.07 3.87 20.55C3.15 21.03 2.31 21.27 1.35 21.27C0.45 21.27 0 20.46 0 18.84C0 15.54 1.53 12.84 4.59 10.74C7.53 8.58 11.1 7.49999 15.3 7.49999C20.7 7.49999 23.88 10.02 24.84 15.06C25.08 16.56 25.26 18.15 25.38 19.83C29.82 11.49 35.43 7.32 42.21 7.32C49.59 7.32 53.82 10.86 54.9 17.94C55.26 19.98 55.41 22.17 55.35 24.51V25.23C59.25 19.83 63.87 17.13 69.21 17.13C76.77 17.13 80.55 21.69 80.55 30.81C80.55 34.77 79.92 39.42 78.66 44.76C77.46 50.04 76.56 53.85 75.96 56.19C75.42 58.47 75.15 60.24 75.15 61.5C75.15 63.78 75.93 64.92 77.49 64.92C79.11 64.92 82.92 61.8 88.92 55.56C90 54.36 90.78 53.76 91.26 53.76ZM108.825 31.44C112.845 31.38 115.845 32.13 117.825 33.69C119.805 35.19 120.795 37.38 120.795 40.26C120.795 43.08 119.925 45.51 118.185 47.55C116.505 49.53 114.435 50.94 111.975 51.78C113.715 53.58 115.275 55.41 116.655 57.27C118.095 59.13 118.815 61.08 118.815 63.12C118.815 67.14 117.225 70.26 114.045 72.48C110.865 74.64 106.425 75.72 100.725 75.72C95.0855 75.72 90.8555 74.61 88.0355 72.39C85.2155 70.11 83.8055 67.56 83.8055 64.74C83.8055 61.86 84.4955 59.25 85.8755 56.91C87.3155 54.57 88.8455 53.4 90.4655 53.4C91.4255 53.4 92.1155 53.76 92.5355 54.48C92.9555 55.14 93.7355 57.12 94.8755 60.42C95.2955 61.62 95.9855 62.76 96.9455 63.84C99.1655 66.3 102.675 67.53 107.475 67.53C106.755 65.25 105.585 63.3 103.965 61.68C102.405 60 100.845 58.38 99.2855 56.82C97.7255 55.26 96.3455 53.61 95.1455 51.87C93.9455 50.07 93.3455 47.97 93.3455 45.57C93.3455 41.25 94.9655 37.74 98.2055 35.04C101.265 32.64 104.805 31.44 108.825 31.44ZM108.465 48.09C110.865 45.51 112.065 43.44 112.065 41.88C112.065 41.16 111.795 40.53 111.255 39.99C110.775 39.39 110.055 39.09 109.095 39.09C108.135 39.09 107.205 39.21 106.305 39.45C105.465 39.69 104.775 39.87 104.235 39.99C104.235 42.27 105.645 44.97 108.465 48.09ZM158.899 34.05C159.739 31.41 161.089 30.09 162.949 30.09C164.629 30.15 166.219 31.35 167.719 33.69C169.219 35.97 169.969 37.74 169.969 39C169.849 41.46 169.099 45.39 167.719 50.79C166.339 56.13 164.389 63.09 161.869 71.67C165.829 68.61 169.729 64.62 173.569 59.7C174.889 58.02 175.999 56.67 176.899 55.65C177.859 54.57 178.639 54.03 179.239 54.03C180.079 54.03 180.499 54.99 180.499 56.91C180.499 60.69 178.369 65.1 174.109 70.14C169.909 75.18 164.749 79.11 158.629 81.93C157.909 84.33 157.129 86.61 156.289 88.77C155.449 90.93 154.369 92.82 153.049 94.44C150.169 97.92 145.789 99.66 139.909 99.66C135.949 99.66 132.559 98.52 129.739 96.24C126.979 93.96 125.599 91.11 125.599 87.69C125.599 85.83 126.199 84.36 127.399 83.28C128.659 82.2 130.369 81.33 132.529 80.67C134.689 80.01 137.209 79.44 140.089 78.96C143.029 78.48 146.149 77.88 149.449 77.16C149.749 76.14 149.989 75.15 150.169 74.19C150.409 73.17 150.649 72.15 150.889 71.13C147.589 74.19 143.539 75.72 138.739 75.72C133.999 75.72 130.339 74.4 127.759 71.76C125.179 69.12 123.919 65.91 123.979 62.13C123.979 51.93 127.369 43.89 134.149 38.01C138.829 33.99 143.689 31.98 148.729 31.98C150.469 31.98 152.329 32.19 154.309 32.61C156.349 33.03 157.879 33.51 158.899 34.05ZM137.209 59.16C137.209 63.78 138.919 66.09 142.339 66.09C144.259 66.09 146.209 65.37 148.189 63.93C150.169 62.49 151.759 60.15 152.959 56.91C153.859 52.71 154.789 48.84 155.749 45.3C156.769 41.76 157.459 39.3 157.819 37.92C152.779 38.58 148.069 40.83 143.689 44.67C139.369 48.51 137.209 53.34 137.209 59.16ZM146.659 85.44C144.499 85.86 142.609 86.19 140.989 86.43C139.369 86.67 138.019 86.88 136.939 87.06C135.919 87.24 135.139 87.45 134.599 87.69C134.119 87.93 133.879 88.32 133.879 88.86C133.879 89.94 134.539 90.87 135.859 91.65C137.239 92.43 138.589 92.79 139.909 92.73C142.189 92.73 144.439 90.3 146.659 85.44ZM183.58 32.7C179.14 30.78 176.92 28.92 176.92 27.12C176.92 26.16 177.31 25.71 178.09 25.77C179.17 25.77 180.4 26.04 181.78 26.58C183.16 27.06 184.57 27.45 186.01 27.75C190.93 18.45 196.51 12.36 202.75 9.48C204.85 8.52 206.95 8.01 209.05 7.94999C213.19 7.94999 216.34 8.97 218.5 11.01C220.72 12.99 221.83 15.42 221.83 18.3C221.83 23.46 219.04 27.45 213.46 30.27C208.9 32.55 202.69 33.96 194.83 34.5C192.01 41.46 190.6 48.93 190.6 56.91C190.6 62.85 191.98 66.3 194.74 67.26C196.66 67.92 198.1 67.95 199.06 67.35C200.02 66.69 200.77 65.85 201.31 64.83C201.85 63.75 202.12 62.19 202.12 60.15C202.18 58.11 201.61 56.4 200.41 55.02C199.27 53.58 198.16 52.26 197.08 51.06C197.62 49.08 198.4 47.43 199.42 46.11C201.34 43.53 202.99 42.24 204.37 42.24C205.75 42.24 206.86 42.72 207.7 43.68C208.6 44.64 209.32 45.84 209.86 47.28C210.4 48.72 210.82 50.28 211.12 51.96C211.48 53.64 211.87 55.2 212.29 56.64C212.71 58.08 213.22 59.28 213.82 60.24C214.48 61.2 215.32 61.68 216.34 61.68C217.42 61.68 218.38 61.29 219.22 60.51C220.06 59.67 220.81 58.77 221.47 57.81C222.13 56.85 222.73 55.98 223.27 55.2C223.81 54.36 224.35 53.94 224.89 53.94C225.49 53.94 226.06 54.42 226.6 55.38C227.2 56.34 227.5 57.24 227.5 58.08C227.5 60 226.54 62.28 224.62 64.92C222.76 67.56 220.36 68.88 217.42 68.88C214.48 68.82 212.2 68.19 210.58 66.99C209.56 69.51 207.82 71.61 205.36 73.29C202.9 74.97 199.39 75.81 194.83 75.81C190.33 75.81 186.46 74.64 183.22 72.3C179.32 69.48 177.37 65.1 177.37 59.16C177.37 50.7 179.44 41.88 183.58 32.7ZM211.93 19.92C211.87 17.82 211.09 16.77 209.59 16.77C208.15 16.77 206.26 17.88 203.92 20.1C201.58 22.32 199.33 25.41 197.17 29.37C203.71 28.23 208.18 26.22 210.58 23.34C211.42 22.26 211.87 21.12 211.93 19.92ZM233.314 75.27C227.314 75.27 224.314 69.66 224.314 58.44C224.314 52.32 225.064 46.77 226.564 41.79C228.904 34.11 231.544 30.27 234.484 30.27C236.224 30.27 237.604 31.44 238.624 33.78C239.464 35.58 239.854 37.35 239.794 39.09C239.794 41.49 239.074 45.72 237.634 51.78C236.254 57.06 235.564 60.33 235.564 61.59C235.564 62.85 235.864 63.72 236.464 64.2C237.124 64.68 237.874 64.92 238.714 64.92C239.614 64.92 240.724 64.35 242.044 63.21C243.364 62.07 244.684 60.84 246.004 59.52C247.324 58.14 248.524 56.88 249.604 55.74C250.744 54.6 251.524 54.03 251.944 54.03C252.784 54.03 253.204 55.05 253.204 57.09C253.204 61.29 251.074 65.4 246.814 69.42C242.614 73.38 238.114 75.33 233.314 75.27ZM237.004 22.98C235.384 20.58 234.574 18 234.574 15.24C234.574 12.48 234.994 10.2 235.834 8.4C236.734 6.54 237.574 5.19 238.354 4.35C239.134 3.45 240.034 3 241.054 3C242.734 3 244.264 4.26 245.644 6.78C247.024 9.24 247.714 11.31 247.714 12.99C247.714 16.11 246.604 18.57 244.384 20.37C242.224 22.11 239.764 22.98 237.004 22.98ZM252.666 70.14C252.006 68.52 251.526 66.66 251.226 64.56C250.926 62.4 250.776 59.4 250.776 55.56C250.776 51.72 251.496 46.53 252.936 39.99H248.886C248.166 39.99 247.806 39.69 247.806 39.09C247.806 37.65 247.926 36.48 248.166 35.58C248.466 34.62 249.126 33.54 250.146 32.34H252.306C253.146 32.34 254.046 32.31 255.006 32.25C257.886 23.01 260.826 18.39 263.826 18.39C266.226 18.45 267.906 19.98 268.866 22.98C269.106 23.82 269.376 24.72 269.676 25.68L265.986 32.16C270.186 32.28 272.826 32.34 273.906 32.34C275.046 32.34 275.646 32.46 275.706 32.7C275.826 32.88 275.886 33.18 275.886 33.6C275.886 34.68 275.616 36.03 275.076 37.65C274.596 39.27 274.026 40.05 273.366 39.99L264.366 39.54C263.106 46.86 262.476 52.92 262.476 57.72C262.476 62.52 263.166 64.92 264.546 64.92C265.686 64.92 267.756 63.99 270.756 62.13C273.756 60.21 275.916 58.38 277.236 56.64C278.556 54.9 279.636 54.03 280.476 54.03C281.316 54.03 281.736 55.05 281.736 57.09C281.736 59.13 281.016 61.23 279.576 63.39C278.136 65.49 276.306 67.44 274.086 69.24C271.926 70.98 269.496 72.42 266.796 73.56C264.156 74.7 261.846 75.27 259.866 75.27C257.886 75.27 256.356 74.82 255.276 73.92C254.256 72.96 253.386 71.7 252.666 70.14ZM297.79 31.44C301.81 31.38 304.81 32.13 306.79 33.69C308.77 35.19 309.76 37.38 309.76 40.26C309.76 43.08 308.89 45.51 307.15 47.55C305.47 49.53 303.4 50.94 300.94 51.78C302.68 53.58 304.24 55.41 305.62 57.27C307.06 59.13 307.78 61.08 307.78 63.12C307.78 67.14 306.19 70.26 303.01 72.48C299.83 74.64 295.39 75.72 289.69 75.72C284.05 75.72 279.82 74.61 277 72.39C274.18 70.11 272.77 67.56 272.77 64.74C272.77 61.86 273.46 59.25 274.84 56.91C276.28 54.57 277.81 53.4 279.43 53.4C280.39 53.4 281.08 53.76 281.5 54.48C281.92 55.14 282.7 57.12 283.84 60.42C284.26 61.62 284.95 62.76 285.91 63.84C288.13 66.3 291.64 67.53 296.44 67.53C295.72 65.25 294.55 63.3 292.93 61.68C291.37 60 289.81 58.38 288.25 56.82C286.69 55.26 285.31 53.61 284.11 51.87C282.91 50.07 282.31 47.97 282.31 45.57C282.31 41.25 283.93 37.74 287.17 35.04C290.23 32.64 293.77 31.44 297.79 31.44ZM297.43 48.09C299.83 45.51 301.03 43.44 301.03 41.88C301.03 41.16 300.76 40.53 300.22 39.99C299.74 39.39 299.02 39.09 298.06 39.09C297.1 39.09 296.17 39.21 295.27 39.45C294.43 39.69 293.74 39.87 293.2 39.99C293.2 42.27 294.61 44.97 297.43 48.09Z" fill="url(#paint12_linear_1_3)"/>
</g>
<mask id="mask1_1_3" style="mask-type:alpha" maskUnits="userSpaceOnUse" x="0" y="-11" width="331" height="56">
<rect y="-11" width="331" height="56" fill="#D9D9D9"/>
</mask>
<g mask="url(#mask1_1_3)">
<path d="M91.26 54.76C92.28 54.76 92.79 56.14 92.79 58.9C92.79 60.4 92.16 62.23 90.9 64.39C89.64 66.49 87.99 68.44 85.95 70.24C83.97 71.98 81.75 73.42 79.29 74.56C76.83 75.7 74.22 76.27 71.46 76.27C68.76 76.27 66.63 75.4 65.07 73.66C63.57 71.86 62.82 69.88 62.82 67.72C62.82 65.5 63.18 63.01 63.9 60.25C64.62 57.49 65.4 54.61 66.24 51.61C68.52 43.63 69.69 38.02 69.75 34.78C69.75 33.4 69.57 32.35 69.21 31.63C68.85 30.85 68.16 30.46 67.14 30.46C65.34 30.46 63.42 31.54 61.38 33.7C59.34 35.86 57.42 38.62 55.62 41.98C51.48 49.66 49.29 57.16 49.05 64.48C49.17 65.32 49.29 66.16 49.41 67C49.53 67.84 49.59 68.74 49.59 69.7C49.59 71.62 48.63 73.39 46.71 75.01C44.85 76.57 42.75 77.35 40.41 77.35C39.03 77.35 38.01 76.69 37.35 75.37C36.69 73.99 36.36 72.31 36.36 70.33C36.36 68.35 36.81 65.65 37.71 62.23C38.61 58.81 39.6 55.18 40.68 51.34C43.56 41.2 45.03 33.64 45.09 28.66C45.09 26.14 44.76 24.16 44.1 22.72C43.5 21.28 42.3 20.56 40.5 20.56C37.26 20.56 34.05 22.87 30.87 27.49C27.69 32.11 24.84 39.28 22.32 49C21.66 51.52 21.15 53.71 20.79 55.57L20.7 57.28C21.84 62.8 22.41 66.4 22.41 68.08C22.41 71.56 21.18 73.9 18.72 75.1C17.58 75.64 16.47 76.15 15.39 76.63C14.37 77.11 13.26 77.35 12.06 77.35C9.06 77.35 7.56 74.5 7.56 68.8C7.56 63.04 9.15 51.82 12.33 35.14C13.47 29.14 14.04 25.78 14.04 25.06C14.04 20.2 12.81 17.77 10.35 17.77C9.51 17.77 8.73 18.01 8.01 18.49C7.35 18.97 6.66 19.48 5.94 20.02C5.28 20.56 4.59 21.07 3.87 21.55C3.15 22.03 2.31 22.27 1.35 22.27C0.45 22.27 0 21.46 0 19.84C0 16.54 1.53 13.84 4.59 11.74C7.53 9.58 11.1 8.49999 15.3 8.49999C20.7 8.49999 23.88 11.02 24.84 16.06C25.08 17.56 25.26 19.15 25.38 20.83C29.82 12.49 35.43 8.32 42.21 8.32C49.59 8.32 53.82 11.86 54.9 18.94C55.26 20.98 55.41 23.17 55.35 25.51V26.23C59.25 20.83 63.87 18.13 69.21 18.13C76.77 18.13 80.55 22.69 80.55 31.81C80.55 35.77 79.92 40.42 78.66 45.76C77.46 51.04 76.56 54.85 75.96 57.19C75.42 59.47 75.15 61.24 75.15 62.5C75.15 64.78 75.93 65.92 77.49 65.92C79.11 65.92 82.92 62.8 88.92 56.56C90 55.36 90.78 54.76 91.26 54.76ZM108.825 32.44C112.845 32.38 115.845 33.13 117.825 34.69C119.805 36.19 120.795 38.38 120.795 41.26C120.795 44.08 119.925 46.51 118.185 48.55C116.505 50.53 114.435 51.94 111.975 52.78C113.715 54.58 115.275 56.41 116.655 58.27C118.095 60.13 118.815 62.08 118.815 64.12C118.815 68.14 117.225 71.26 114.045 73.48C110.865 75.64 106.425 76.72 100.725 76.72C95.0855 76.72 90.8555 75.61 88.0355 73.39C85.2155 71.11 83.8055 68.56 83.8055 65.74C83.8055 62.86 84.4955 60.25 85.8755 57.91C87.3155 55.57 88.8455 54.4 90.4655 54.4C91.4255 54.4 92.1155 54.76 92.5355 55.48C92.9555 56.14 93.7355 58.12 94.8755 61.42C95.2955 62.62 95.9855 63.76 96.9455 64.84C99.1655 67.3 102.675 68.53 107.475 68.53C106.755 66.25 105.585 64.3 103.965 62.68C102.405 61 100.845 59.38 99.2855 57.82C97.7255 56.26 96.3455 54.61 95.1455 52.87C93.9455 51.07 93.3455 48.97 93.3455 46.57C93.3455 42.25 94.9655 38.74 98.2055 36.04C101.265 33.64 104.805 32.44 108.825 32.44ZM108.465 49.09C110.865 46.51 112.065 44.44 112.065 42.88C112.065 42.16 111.795 41.53 111.255 40.99C110.775 40.39 110.055 40.09 109.095 40.09C108.135 40.09 107.205 40.21 106.305 40.45C105.465 40.69 104.775 40.87 104.235 40.99C104.235 43.27 105.645 45.97 108.465 49.09ZM158.899 35.05C159.739 32.41 161.089 31.09 162.949 31.09C164.629 31.15 166.219 32.35 167.719 34.69C169.219 36.97 169.969 38.74 169.969 40C169.849 42.46 169.099 46.39 167.719 51.79C166.339 57.13 164.389 64.09 161.869 72.67C165.829 69.61 169.729 65.62 173.569 60.7C174.889 59.02 175.999 57.67 176.899 56.65C177.859 55.57 178.639 55.03 179.239 55.03C180.079 55.03 180.499 55.99 180.499 57.91C180.499 61.69 178.369 66.1 174.109 71.14C169.909 76.18 164.749 80.11 158.629 82.93C157.909 85.33 157.129 87.61 156.289 89.77C155.449 91.93 154.369 93.82 153.049 95.44C150.169 98.92 145.789 100.66 139.909 100.66C135.949 100.66 132.559 99.52 129.739 97.24C126.979 94.96 125.599 92.11 125.599 88.69C125.599 86.83 126.199 85.36 127.399 84.28C128.659 83.2 130.369 82.33 132.529 81.67C134.689 81.01 137.209 80.44 140.089 79.96C143.029 79.48 146.149 78.88 149.449 78.16C149.749 77.14 149.989 76.15 150.169 75.19C150.409 74.17 150.649 73.15 150.889 72.13C147.589 75.19 143.539 76.72 138.739 76.72C133.999 76.72 130.339 75.4 127.759 72.76C125.179 70.12 123.919 66.91 123.979 63.13C123.979 52.93 127.369 44.89 134.149 39.01C138.829 34.99 143.689 32.98 148.729 32.98C150.469 32.98 152.329 33.19 154.309 33.61C156.349 34.03 157.879 34.51 158.899 35.05ZM137.209 60.16C137.209 64.78 138.919 67.09 142.339 67.09C144.259 67.09 146.209 66.37 148.189 64.93C150.169 63.49 151.759 61.15 152.959 57.91C153.859 53.71 154.789 49.84 155.749 46.3C156.769 42.76 157.459 40.3 157.819 38.92C152.779 39.58 148.069 41.83 143.689 45.67C139.369 49.51 137.209 54.34 137.209 60.16ZM146.659 86.44C144.499 86.86 142.609 87.19 140.989 87.43C139.369 87.67 138.019 87.88 136.939 88.06C135.919 88.24 135.139 88.45 134.599 88.69C134.119 88.93 133.879 89.32 133.879 89.86C133.879 90.94 134.539 91.87 135.859 92.65C137.239 93.43 138.589 93.79 139.909 93.73C142.189 93.73 144.439 91.3 146.659 86.44ZM183.58 33.7C179.14 31.78 176.92 29.92 176.92 28.12C176.92 27.16 177.31 26.71 178.09 26.77C179.17 26.77 180.4 27.04 181.78 27.58C183.16 28.06 184.57 28.45 186.01 28.75C190.93 19.45 196.51 13.36 202.75 10.48C204.85 9.52 206.95 9.01 209.05 8.94999C213.19 8.94999 216.34 9.97 218.5 12.01C220.72 13.99 221.83 16.42 221.83 19.3C221.83 24.46 219.04 28.45 213.46 31.27C208.9 33.55 202.69 34.96 194.83 35.5C192.01 42.46 190.6 49.93 190.6 57.91C190.6 63.85 191.98 67.3 194.74 68.26C196.66 68.92 198.1 68.95 199.06 68.35C200.02 67.69 200.77 66.85 201.31 65.83C201.85 64.75 202.12 63.19 202.12 61.15C202.18 59.11 201.61 57.4 200.41 56.02C199.27 54.58 198.16 53.26 197.08 52.06C197.62 50.08 198.4 48.43 199.42 47.11C201.34 44.53 202.99 43.24 204.37 43.24C205.75 43.24 206.86 43.72 207.7 44.68C208.6 45.64 209.32 46.84 209.86 48.28C210.4 49.72 210.82 51.28 211.12 52.96C211.48 54.64 211.87 56.2 212.29 57.64C212.71 59.08 213.22 60.28 213.82 61.24C214.48 62.2 215.32 62.68 216.34 62.68C217.42 62.68 218.38 62.29 219.22 61.51C220.06 60.67 220.81 59.77 221.47 58.81C222.13 57.85 222.73 56.98 223.27 56.2C223.81 55.36 224.35 54.94 224.89 54.94C225.49 54.94 226.06 55.42 226.6 56.38C227.2 57.34 227.5 58.24 227.5 59.08C227.5 61 226.54 63.28 224.62 65.92C222.76 68.56 220.36 69.88 217.42 69.88C214.48 69.82 212.2 69.19 210.58 67.99C209.56 70.51 207.82 72.61 205.36 74.29C202.9 75.97 199.39 76.81 194.83 76.81C190.33 76.81 186.46 75.64 183.22 73.3C179.32 70.48 177.37 66.1 177.37 60.16C177.37 51.7 179.44 42.88 183.58 33.7ZM211.93 20.92C211.87 18.82 211.09 17.77 209.59 17.77C208.15 17.77 206.26 18.88 203.92 21.1C201.58 23.32 199.33 26.41 197.17 30.37C203.71 29.23 208.18 27.22 210.58 24.34C211.42 23.26 211.87 22.12 211.93 20.92ZM233.314 76.27C227.314 76.27 224.314 70.66 224.314 59.44C224.314 53.32 225.064 47.77 226.564 42.79C228.904 35.11 231.544 31.27 234.484 31.27C236.224 31.27 237.604 32.44 238.624 34.78C239.464 36.58 239.854 38.35 239.794 40.09C239.794 42.49 239.074 46.72 237.634 52.78C236.254 58.06 235.564 61.33 235.564 62.59C235.564 63.85 235.864 64.72 236.464 65.2C237.124 65.68 237.874 65.92 238.714 65.92C239.614 65.92 240.724 65.35 242.044 64.21C243.364 63.07 244.684 61.84 246.004 60.52C247.324 59.14 248.524 57.88 249.604 56.74C250.744 55.6 251.524 55.03 251.944 55.03C252.784 55.03 253.204 56.05 253.204 58.09C253.204 62.29 251.074 66.4 246.814 70.42C242.614 74.38 238.114 76.33 233.314 76.27ZM237.004 23.98C235.384 21.58 234.574 19 234.574 16.24C234.574 13.48 234.994 11.2 235.834 9.4C236.734 7.54 237.574 6.19 238.354 5.35C239.134 4.45 240.034 4 241.054 4C242.734 4 244.264 5.26 245.644 7.78C247.024 10.24 247.714 12.31 247.714 13.99C247.714 17.11 246.604 19.57 244.384 21.37C242.224 23.11 239.764 23.98 237.004 23.98ZM252.666 71.14C252.006 69.52 251.526 67.66 251.226 65.56C250.926 63.4 250.776 60.4 250.776 56.56C250.776 52.72 251.496 47.53 252.936 40.99H248.886C248.166 40.99 247.806 40.69 247.806 40.09C247.806 38.65 247.926 37.48 248.166 36.58C248.466 35.62 249.126 34.54 250.146 33.34H252.306C253.146 33.34 254.046 33.31 255.006 33.25C257.886 24.01 260.826 19.39 263.826 19.39C266.226 19.45 267.906 20.98 268.866 23.98C269.106 24.82 269.376 25.72 269.676 26.68L265.986 33.16C270.186 33.28 272.826 33.34 273.906 33.34C275.046 33.34 275.646 33.46 275.706 33.7C275.826 33.88 275.886 34.18 275.886 34.6C275.886 35.68 275.616 37.03 275.076 38.65C274.596 40.27 274.026 41.05 273.366 40.99L264.366 40.54C263.106 47.86 262.476 53.92 262.476 58.72C262.476 63.52 263.166 65.92 264.546 65.92C265.686 65.92 267.756 64.99 270.756 63.13C273.756 61.21 275.916 59.38 277.236 57.64C278.556 55.9 279.636 55.03 280.476 55.03C281.316 55.03 281.736 56.05 281.736 58.09C281.736 60.13 281.016 62.23 279.576 64.39C278.136 66.49 276.306 68.44 274.086 70.24C271.926 71.98 269.496 73.42 266.796 74.56C264.156 75.7 261.846 76.27 259.866 76.27C257.886 76.27 256.356 75.82 255.276 74.92C254.256 73.96 253.386 72.7 252.666 71.14ZM297.79 32.44C301.81 32.38 304.81 33.13 306.79 34.69C308.77 36.19 309.76 38.38 309.76 41.26C309.76 44.08 308.89 46.51 307.15 48.55C305.47 50.53 303.4 51.94 300.94 52.78C302.68 54.58 304.24 56.41 305.62 58.27C307.06 60.13 307.78 62.08 307.78 64.12C307.78 68.14 306.19 71.26 303.01 73.48C299.83 75.64 295.39 76.72 289.69 76.72C284.05 76.72 279.82 75.61 277 73.39C274.18 71.11 272.77 68.56 272.77 65.74C272.77 62.86 273.46 60.25 274.84 57.91C276.28 55.57 277.81 54.4 279.43 54.4C280.39 54.4 281.08 54.76 281.5 55.48C281.92 56.14 282.7 58.12 283.84 61.42C284.26 62.62 284.95 63.76 285.91 64.84C288.13 67.3 291.64 68.53 296.44 68.53C295.72 66.25 294.55 64.3 292.93 62.68C291.37 61 289.81 59.38 288.25 57.82C286.69 56.26 285.31 54.61 284.11 52.87C282.91 51.07 282.31 48.97 282.31 46.57C282.31 42.25 283.93 38.74 287.17 36.04C290.23 33.64 293.77 32.44 297.79 32.44ZM297.43 49.09C299.83 46.51 301.03 44.44 301.03 42.88C301.03 42.16 300.76 41.53 300.22 40.99C299.74 40.39 299.02 40.09 298.06 40.09C297.1 40.09 296.17 40.21 295.27 40.45C294.43 40.69 293.74 40.87 293.2 40.99C293.2 43.27 294.61 45.97 297.43 49.09Z" fill="url(#paint13_linear_1_3)"/>
</g>
</g>
<defs>
<linearGradient id="paint0_linear_1_3" x1="304.076" y1="50.3992" x2="309.922" y2="50.0467" gradientUnits="userSpaceOnUse">
<stop stop-color="#EE4610"/>
<stop offset="1" stop-color="#EE4610"/>
</linearGradient>
<linearGradient id="paint1_linear_1_3" x1="2.5189" y1="50.1655" x2="8.35948" y2="49.7742" gradientUnits="userSpaceOnUse">
<stop stop-color="#EE4610"/>
<stop offset="1" stop-color="#EE4610"/>
</linearGradient>
<linearGradient id="paint2_linear_1_3" x1="290" y1="44" x2="290" y2="52" gradientUnits="userSpaceOnUse">
<stop stop-color="#EE4610"/>
<stop offset="1" stop-color="#F68B1D"/>
</linearGradient>
<linearGradient id="paint3_linear_1_3" x1="256" y1="44" x2="256" y2="52" gradientUnits="userSpaceOnUse">
<stop stop-color="#EE4610"/>
<stop offset="1" stop-color="#F68B1D"/>
</linearGradient>
<linearGradient id="paint4_linear_1_3" x1="231" y1="44" x2="231" y2="52" gradientUnits="userSpaceOnUse">
<stop stop-color="#EE4610"/>
<stop offset="1" stop-color="#F68B1D"/>
</linearGradient>
<linearGradient id="paint5_linear_1_3" x1="203" y1="44" x2="203" y2="52" gradientUnits="userSpaceOnUse">
<stop stop-color="#EE4610"/>
<stop offset="1" stop-color="#F68B1D"/>
</linearGradient>
<linearGradient id="paint6_linear_1_3" x1="162" y1="44" x2="162" y2="52" gradientUnits="userSpaceOnUse">
<stop stop-color="#EE4610"/>
<stop offset="1" stop-color="#F68B1D"/>
</linearGradient>
<linearGradient id="paint7_linear_1_3" x1="134" y1="44" x2="134" y2="52" gradientUnits="userSpaceOnUse">
<stop stop-color="#EE4610"/>
<stop offset="1" stop-color="#F68B1D"/>
</linearGradient>
<linearGradient id="paint8_linear_1_3" x1="99" y1="44" x2="99" y2="52" gradientUnits="userSpaceOnUse">
<stop stop-color="#EE4610"/>
<stop offset="1" stop-color="#F68B1D"/>
</linearGradient>
<linearGradient id="paint9_linear_1_3" x1="73" y1="44" x2="73" y2="52" gradientUnits="userSpaceOnUse">
<stop stop-color="#EE4610"/>
<stop offset="1" stop-color="#F68B1D"/>
</linearGradient>
<linearGradient id="paint10_linear_1_3" x1="45" y1="44" x2="45" y2="52" gradientUnits="userSpaceOnUse">
<stop stop-color="#EE4610"/>
<stop offset="1" stop-color="#F68B1D"/>
</linearGradient>
<linearGradient id="paint11_linear_1_3" x1="15" y1="44" x2="15" y2="52" gradientUnits="userSpaceOnUse">
<stop stop-color="#EE4610"/>
<stop offset="1" stop-color="#F68B1D"/>
</linearGradient>
<linearGradient id="paint12_linear_1_3" x1="3.37773e-06" y1="84.7096" x2="317.479" y2="46.6286" gradientUnits="userSpaceOnUse">
<stop stop-color="#EE4610"/>
<stop offset="1" stop-color="#F68B1D"/>
</linearGradient>
<linearGradient id="paint13_linear_1_3" x1="3.37773e-06" y1="85.7096" x2="317.479" y2="47.6286" gradientUnits="userSpaceOnUse">
<stop stop-color="#EE4610"/>
<stop offset="1" stop-color="#F68B1D"/>
</linearGradient>
<clipPath id="clip0_1_3">
<rect width="310" height="100" fill="white"/>
</clipPath>
<clipPath id="clip1_1_3">
<rect width="310" height="7.84314" fill="white" transform="translate(0 45)"/>
</clipPath>
</defs>
</svg>
