<svg width="219" height="217" viewBox="0 0 219 217" fill="none" xmlns="http://www.w3.org/2000/svg">
<path fill-rule="evenodd" clip-rule="evenodd" d="M84.1368 97.3921C81.5209 99.5725 80.5275 102.967 83.0202 105.585C85.3682 108.051 89.9128 108.574 92.8449 106.608C99.9239 101.864 92.5454 93.1095 84.9056 94.9214C83.4895 95.2566 83.844 97.0078 85.2401 97.0772C87.475 97.187 89.8646 97.2621 91.6501 98.6203C93.5671 100.081 93.6087 102.55 92.0362 104.229C87.8727 108.675 80.6389 102.129 85.0121 98.1536C85.5646 97.6522 84.7143 96.911 84.1368 97.3921Z" fill="#7CABFF"/>
<path fill-rule="evenodd" clip-rule="evenodd" d="M157.697 105.262C158.632 108.413 159.659 111.53 160.726 114.645C160.984 115.395 161.764 115.629 162.472 115.191C165.256 113.471 168.044 111.78 170.681 109.875C171.188 109.509 171.077 108.771 170.575 108.457C167.487 106.529 163.314 103.683 159.395 103.662C158.399 103.658 157.7 104.934 158.711 105.464C160.295 106.293 162.189 106.589 163.878 107.228C165.83 107.965 167.76 108.83 169.48 109.949C169.521 109.432 169.558 108.914 169.597 108.397C166.648 110.049 163.873 111.899 161.068 113.743C161.62 113.844 162.172 113.945 162.725 114.045C161.528 110.968 160.3 107.912 158.974 104.879C158.693 104.24 157.498 104.59 157.697 105.262Z" fill="#FF7081"/>
<path fill-rule="evenodd" clip-rule="evenodd" d="M177.61 120.864C181.859 119.103 186.209 117.08 190.038 114.704C191.443 113.831 190.058 112.128 188.576 112.8C184.483 114.654 180.493 117.05 176.842 119.493C176.11 119.984 176.649 121.262 177.61 120.864Z" fill="#FBC580"/>
<path fill-rule="evenodd" clip-rule="evenodd" d="M20.378 133.317C19.4919 129.422 18.3386 125.379 16.6577 121.673C16.0404 120.311 13.7869 121.018 14.1619 122.391C15.1924 126.184 16.8535 130.025 18.6539 133.604C19.0156 134.322 20.5788 134.199 20.378 133.317Z" fill="#FF957E"/>
<path fill-rule="evenodd" clip-rule="evenodd" d="M34.4232 96.3382L34.1541 96.1296C32.9713 95.2083 31.0315 95.0277 29.8804 96.1296C28.7181 97.2431 28.7611 98.7721 29.8804 99.8855C29.9608 99.9644 30.0393 100.042 30.1178 100.122C31.1773 101.171 33.3581 101.142 34.4232 100.122C35.4828 99.1071 35.6977 97.3285 34.4232 96.3382Z" fill="#241352"/>
<path fill-rule="evenodd" clip-rule="evenodd" d="M146.694 202.618C146.694 202.618 101.92 211.762 83.9364 195.972L90.3715 158.259C92.3265 147.418 91.1615 126.561 100.617 119.161C102.447 117.728 104.208 117.016 104.208 117.016C110.842 114.203 122.642 112.685 133.974 112.646C147.739 112.6 161.906 121.738 165.519 133.398L150.621 163.993L146.694 202.618Z" fill="#FF7081"/>
<path fill-rule="evenodd" clip-rule="evenodd" d="M143.033 138.067C143.033 138.067 163.115 171.906 153.145 173.708C120.338 179.636 101.298 184.497 101.298 184.497L99.6254 195.641C100.114 197.325 165.996 195.87 173.8 188.127C179.309 182.659 186.633 170.026 171.051 142.681L166.316 133.379L143.033 138.067Z" fill="#FFAFA7"/>
<path fill-rule="evenodd" clip-rule="evenodd" d="M105.901 119.493L55.8262 136.385L54.2592 113.495L43.5385 109.882C43.5385 109.882 27.993 146.623 47.4345 153.463C66.876 160.305 88.7817 147.663 88.7817 147.663L105.901 119.493Z" fill="#FFAFA7"/>
<path fill-rule="evenodd" clip-rule="evenodd" d="M111.392 114.72C94.1579 119.593 83.8802 125.305 59.6184 134.288L72.0771 158.949L93.5501 152.829L111.392 114.72Z" fill="#FF7081"/>
<path fill-rule="evenodd" clip-rule="evenodd" d="M140.422 132.969L152.951 158.949L181.208 154.344L162.172 125.086L139.633 132.969" fill="#FF7081"/>
<path fill-rule="evenodd" clip-rule="evenodd" d="M125.069 150.472C131.129 150.191 137.114 150.41 143.169 150.476C143.699 150.483 143.667 149.86 143.169 149.81C137.202 149.216 131.041 149.453 125.069 149.88C124.619 149.914 124.609 150.494 125.069 150.472Z" fill="#002C68"/>
<path fill-rule="evenodd" clip-rule="evenodd" d="M151.936 120.249C131.563 121.885 145.498 148.593 150.719 156.679C151.008 157.13 151.789 156.726 151.502 156.272C146.312 148.103 132.425 123.247 152.002 120.691C152.283 120.654 152.22 120.226 151.936 120.249Z" fill="#002C68"/>
<path fill-rule="evenodd" clip-rule="evenodd" d="M95.1747 135.62C92.5891 144.462 90.8528 153.657 90.2128 162.762C90.1855 163.139 90.9277 163.233 90.9907 162.852C92.4937 153.8 94.0053 144.773 95.699 135.743C95.7535 135.456 95.2615 135.323 95.1747 135.62Z" fill="#002C68"/>
<path fill-rule="evenodd" clip-rule="evenodd" d="M143.787 86.3854C144.103 82.5497 144.421 78.714 144.736 74.8783C148.169 74.0287 149.953 70.1725 148.582 67.2806C147.213 64.3888 143.325 62.7647 139.794 63.2079C142.021 61.8753 141.852 58.6934 140.023 56.9545C138.195 55.2155 135.33 54.6516 132.637 54.5603C129.944 54.469 127.219 54.7561 124.569 54.3247C122.223 53.9404 119.923 52.9966 117.555 53.2587C115.187 53.5223 112.922 55.8634 114.2 57.6347C110.784 57.1945 107.088 56.794 104.053 58.2414C101.018 59.6888 99.4945 63.8072 102.102 65.7949C100.379 66.5665 99.9487 68.7575 100.917 70.2284C101.886 71.6979 103.87 72.4709 105.798 72.5931C107.727 72.7139 109.641 72.2854 111.513 71.8599" fill="#241352"/>
<path fill-rule="evenodd" clip-rule="evenodd" d="M143.119 78.9609L142.441 86.9018C142.441 86.9018 150.037 87.8124 147.874 93.9701C145.707 100.128 140.51 97.4338 140.51 97.4338C140.51 97.4338 139.209 113.214 121.018 108.211C106.54 104.228 107.424 87.569 109.263 73.3664C109.975 67.8643 115.833 64.0808 121.95 65.1396L132.887 67.0328C139.209 68.1268 143.608 73.255 143.119 78.9609Z" fill="#FFAFA7"/>
<path fill-rule="evenodd" clip-rule="evenodd" d="M141.986 93.9873L137.047 116.897C135.933 122.058 130.086 125.36 124.213 124.142C118.77 123.012 115.285 118.388 116.263 113.596L118.943 100.466L141.986 93.9873Z" fill="#FFAFA7"/>
<path fill-rule="evenodd" clip-rule="evenodd" d="M121.573 94.0488C121.602 94.0397 121.656 94.3843 121.127 94.6231C120.579 94.8498 119.699 94.3556 119.473 93.5441C119.18 92.7627 119.224 91.8167 119.271 90.845C119.329 89.8113 119.39 88.758 119.451 87.6517C119.759 83.1226 120.193 79.4623 120.429 79.4744C120.66 79.4895 120.603 83.1709 120.299 87.7016C120.211 88.8048 120.13 89.8596 120.049 90.8918C119.956 91.8726 119.87 92.728 120.047 93.3869C120.175 94.0518 120.699 94.3783 121.039 94.3284C121.388 94.274 121.514 94.0065 121.573 94.0488Z" fill="#241352"/>
<path fill-rule="evenodd" clip-rule="evenodd" d="M115.319 106.437C115.403 106.35 116.293 106.826 117.858 107.364C119.41 107.904 121.696 108.456 124.283 108.497C126.875 108.54 129.186 108.063 130.767 107.573C132.36 107.088 133.274 106.64 133.353 106.731C133.419 106.796 132.619 107.396 131.026 108.021C129.451 108.646 127.019 109.234 124.265 109.189C121.512 109.145 119.116 108.477 117.573 107.802C116.016 107.125 115.252 106.5 115.319 106.437Z" fill="#241352"/>
<path fill-rule="evenodd" clip-rule="evenodd" d="M119.253 97.3005C119.358 97.2294 119.776 97.5443 120.573 97.819C121.35 98.0977 122.581 98.3028 123.797 98.0013C125.012 97.6931 125.858 96.9681 126.283 96.3893C126.724 95.8037 126.827 95.3589 126.967 95.3696C127.071 95.3682 127.204 95.86 126.856 96.5997C126.528 97.3206 125.599 98.276 124.072 98.6659C122.538 99.0424 121.07 98.6873 120.263 98.2505C119.427 97.8083 119.165 97.3474 119.253 97.3005Z" fill="#241352"/>
<path fill-rule="evenodd" clip-rule="evenodd" d="M142.771 94.5355C142.759 94.4208 143.214 94.3642 143.719 94.0913C143.971 93.9504 144.189 93.7501 144.268 93.4699C144.35 93.1839 144.257 92.9182 144.004 92.847C143.795 92.7759 143.596 92.8354 143.55 92.9022L142.817 92.5697C143.504 91.3255 144.118 90.466 144.298 90.5357C144.475 90.6054 144.164 91.581 143.573 92.863L142.842 92.5291C143.15 92.0703 143.823 91.9658 144.31 92.14C144.667 92.2431 144.982 92.5567 145.066 92.8528C145.167 93.1548 145.124 93.4466 145.022 93.6877C144.821 94.1798 144.346 94.4688 143.98 94.5747C143.216 94.7867 142.767 94.6212 142.771 94.5355Z" fill="#241352"/>
<path fill-rule="evenodd" clip-rule="evenodd" d="M128.655 79.2655C128.578 79.0872 129.384 78.6684 130.403 78.9352C131.423 79.1964 131.915 79.9511 131.76 80.0699C131.608 80.2109 131.018 79.828 130.217 79.6318C129.423 79.4148 128.716 79.4618 128.655 79.2655Z" fill="#241352"/>
<path fill-rule="evenodd" clip-rule="evenodd" d="M112.184 76.1409C112.084 75.9695 112.969 75.4498 114.207 75.5507C115.445 75.6433 116.216 76.2929 116.084 76.445C115.959 76.6178 115.153 76.3372 114.138 76.2681C113.122 76.1782 112.274 76.3303 112.184 76.1409Z" fill="#241352"/>
<path fill-rule="evenodd" clip-rule="evenodd" d="M141.961 87.3384C136.875 82.8844 135.381 75.4642 134.001 69.2079C129.292 72.2886 122.812 73.0457 117.383 71.1513C115.677 72.9507 113.675 74.5215 111.462 75.7968C110.832 76.159 110.085 76.5124 109.37 76.3179C108.517 76.0863 108.136 75.2074 107.933 74.4279C107.284 71.9323 107.26 69.2599 108.229 66.8503C109.199 64.4393 111.229 62.3222 113.892 61.3973C116.735 60.407 119.936 60.8375 122.888 61.5249C127.336 62.5612 131.624 64.1527 135.591 66.2387C139.482 68.286 143.22 70.9954 144.87 74.7664C146.521 78.5359 146.515 85.8611 142.535 87.7674" fill="#241352"/>
<path fill-rule="evenodd" clip-rule="evenodd" d="M130.127 85.0029C129.901 84.9905 129.761 84.5153 129.811 83.9429C129.863 83.3704 130.088 82.9177 130.312 82.9302C130.538 82.9427 130.679 83.4178 130.626 83.9902C130.575 84.5614 130.351 85.0154 130.127 85.0029Z" fill="#241352"/>
<path fill-rule="evenodd" clip-rule="evenodd" d="M115.221 83.6206C114.995 83.6081 114.856 83.133 114.907 82.5605C114.958 81.9881 115.182 81.5354 115.406 81.5479C115.632 81.5603 115.773 82.0355 115.722 82.6079C115.67 83.1791 115.447 83.6331 115.221 83.6206Z" fill="#241352"/>
<path fill-rule="evenodd" clip-rule="evenodd" d="M42.3604 110.94C42.3604 110.94 44.5775 98.8707 47.2277 99.0006C49.8779 99.1305 55.1749 99.0006 55.1749 99.0006C55.1749 99.0006 55.618 87.5203 57.0905 89.3465C58.5614 91.1728 59.0245 106.619 53.3476 114.029L42.3604 110.94Z" fill="#FFAFA7"/>
<path fill-rule="evenodd" clip-rule="evenodd" d="M101.194 184.519C101.194 184.519 77.9965 188.156 78.4519 190.853C78.904 193.549 80.5337 196.267 80.5337 196.267L101.194 195.832V184.519Z" fill="#FFAFA7"/>
<path fill-rule="evenodd" clip-rule="evenodd" d="M127.081 196.745L126.901 193.859L77.967 191.235L61.555 152.729L7.84454 155.319L26.1689 196.959L127.081 196.745Z" fill="#6F35A5"/>
<path fill-rule="evenodd" clip-rule="evenodd" d="M37.6596 173.651C37.7794 175.556 39.6288 177.016 41.7932 176.912C43.956 176.806 45.6134 175.177 45.4919 173.271C45.3738 171.366 43.5244 169.906 41.3616 170.012C39.1972 170.117 37.5415 171.746 37.6596 173.651Z" fill="white"/>
<path fill-rule="evenodd" clip-rule="evenodd" d="M36.0933 173.728C36.2606 176.395 38.8511 178.439 41.8779 178.292C44.9063 178.146 47.2244 175.864 47.0588 173.196C46.8931 170.528 44.3026 168.484 41.2742 168.632C38.2457 168.777 35.926 171.06 36.0933 173.728Z" fill="white"/>
<mask id="mask0_117_463" style="mask-type:luminance" maskUnits="userSpaceOnUse" x="0" y="195" width="222" height="22">
<path d="M0 195.531H221.983V217H0V195.531Z" fill="white"/>
</mask>
<g mask="url(#mask0_117_463)">
<path fill-rule="evenodd" clip-rule="evenodd" d="M-0.000854492 197.779L209.703 195.531L221.983 201.07C221.983 201.07 61.0003 239.015 -0.000854492 197.779Z" fill="#FAA54E"/>
</g>
<path fill-rule="evenodd" clip-rule="evenodd" d="M123.969 17.3166C123.969 17.3166 113.317 17.7832 112.961 27.7324C112.961 27.7324 113.14 33.173 116.513 35.1932C119.886 37.2135 119.707 39.3917 119.707 39.3917H128.583C128.583 39.3917 128.229 36.5932 129.649 35.0382C131.069 33.4831 134.619 30.2194 134.088 25.4006C133.555 20.5803 129.47 16.8499 123.969 17.3166Z" fill="#FFBC7A"/>
<path fill-rule="evenodd" clip-rule="evenodd" d="M119.596 41.9297C122.731 41.8053 125.904 42.0997 129.02 41.9449C129.469 41.9214 129.622 41.3229 129.131 41.2358C126.102 40.6995 122.641 40.9967 119.596 41.2897C119.129 41.334 119.105 41.949 119.596 41.9297Z" fill="#6F35A5"/>
<path fill-rule="evenodd" clip-rule="evenodd" d="M121.187 44.7052C122.485 44.643 123.792 44.5987 125.094 44.6098C126.39 44.6208 127.717 44.7978 129.004 44.7204C129.477 44.6913 129.623 44.1191 129.121 44.0113C126.63 43.475 123.6 43.7846 121.083 44.0763C120.652 44.1274 120.752 44.7259 121.187 44.7052Z" fill="#6F35A5"/>
<path fill-rule="evenodd" clip-rule="evenodd" d="M121.932 45.7992C122.97 45.8641 124.041 46.1295 125.074 46.1101C125.586 46.0991 125.68 45.4467 125.193 45.3085C124.189 45.0224 122.973 45.1219 121.932 45.1592C121.473 45.1758 121.479 45.7701 121.932 45.7992Z" fill="#6F35A5"/>
<path fill-rule="evenodd" clip-rule="evenodd" d="M122.462 38.9434C122.718 36.128 121.61 33.0129 121.048 30.2501C120.725 30.3671 120.404 30.4825 120.082 30.5995C120.548 31.2529 121.319 33.1386 122.506 33.0714C123.732 33.0012 124.188 31.1287 124.358 30.3656H123.302C123.539 31.2354 123.568 33.3331 125.162 33.1342C126.513 32.9661 127.423 31.25 127.836 30.3086C127.472 30.2224 127.105 30.1361 126.738 30.0499C125.922 32.8039 125.531 36.2903 126.347 39.0648C126.494 39.5647 127.42 39.4653 127.402 38.9434C127.302 36.0257 126.825 33.1693 127.836 30.3086C128.055 29.6946 127 29.4768 126.738 30.0499C126.588 30.3744 125.716 32.2221 124.889 31.9838C124.681 31.9239 124.406 30.2764 124.358 30.1171C124.237 29.6859 123.399 29.6522 123.302 30.1171C123.182 30.6828 122.907 32.2235 122.129 31.7631C121.678 31.497 121.28 30.5483 120.995 30.1419C120.669 29.6771 119.94 30.006 120.029 30.4913C120.539 33.2541 120.679 36.473 121.975 39.0575C122.088 39.2796 122.444 39.1393 122.462 38.9434Z" fill="#6F35A5"/>
<path fill-rule="evenodd" clip-rule="evenodd" d="M90.7025 35.9206C95.6786 34.7344 100.815 33.7121 105.674 32.2767C106.062 32.1618 105.92 31.7204 105.498 31.7991C100.432 32.7414 95.4597 34.1458 90.4888 35.3436C90.0027 35.4611 90.2095 36.0381 90.7025 35.9206Z" fill="#FFBC7A"/>
<path fill-rule="evenodd" clip-rule="evenodd" d="M96.9142 23.2842C100.005 23.2331 103.223 23.3768 106.29 23.0575C106.805 23.0036 106.829 22.4231 106.29 22.3913C103.207 22.202 100.004 22.4839 96.9142 22.5655C96.348 22.5807 96.3429 23.2939 96.9142 23.2842Z" fill="#FFBC7A"/>
<path fill-rule="evenodd" clip-rule="evenodd" d="M111.243 18.6902C107.781 15.9791 104.475 12.596 100.53 10.4505C99.9121 10.1145 99.3366 10.8611 99.7852 11.3187C102.811 14.4008 107.056 16.6907 110.616 19.2543C111.054 19.5706 111.682 19.0324 111.243 18.6902Z" fill="#FFBC7A"/>
<path fill-rule="evenodd" clip-rule="evenodd" d="M119.236 15.0024C119.269 14.101 118.531 13.2342 118.069 12.4838C117.522 11.5965 117.051 10.5677 116.299 9.82515C115.919 9.45074 115.15 9.83302 115.346 10.3537C115.71 11.3244 116.46 12.1864 117.054 13.047C117.556 13.78 118.042 14.8042 118.908 15.1801C119.059 15.2462 119.229 15.1691 119.236 15.0024Z" fill="#FFBC7A"/>
<mask id="mask1_117_463" style="mask-type:luminance" maskUnits="userSpaceOnUse" x="124" y="0" width="3" height="14">
<path d="M124.541 0.00537109H126.11V13.7471H124.541V0.00537109Z" fill="white"/>
</mask>
<g mask="url(#mask1_117_463)">
<path fill-rule="evenodd" clip-rule="evenodd" d="M125.93 13.333C126.063 9.12126 126.227 4.66661 125.724 0.477775C125.649 -0.142454 124.767 -0.162313 124.717 0.477775C124.388 4.68341 124.739 9.12737 125.048 13.333C125.087 13.8799 125.913 13.8906 125.93 13.333Z" fill="#FFBC7A"/>
</g>
<path fill-rule="evenodd" clip-rule="evenodd" d="M130.963 15.0302C132.075 13.5378 133.233 12.0411 134.078 10.4052C134.377 9.8282 133.547 9.38592 133.145 9.90582C132.001 11.3835 131.144 13.0414 130.268 14.6597C130.04 15.0844 130.67 15.4227 130.963 15.0302Z" fill="#FFBC7A"/>
<path fill-rule="evenodd" clip-rule="evenodd" d="M136.171 17.9402C138.403 17.116 140.505 16.0446 142.628 15.0275C144.725 14.0247 147.072 13.1518 148.899 11.7919C149.27 11.5133 148.874 10.9462 148.423 11.0762C146.285 11.6876 144.352 12.889 142.406 13.8661C140.205 14.9732 137.939 16.0232 135.873 17.3217C135.551 17.5245 135.736 18.1002 136.171 17.9402Z" fill="#FFBC7A"/>
<path fill-rule="evenodd" clip-rule="evenodd" d="M137.629 23.959C139.491 24.4787 142.694 24.0951 144.14 22.9883C144.643 22.6033 144.106 22.0382 143.508 22.1231C142.514 22.2607 141.597 22.6794 140.607 22.8639C139.622 23.0469 138.613 23.044 137.629 23.205C137.12 23.2885 137.208 23.8404 137.629 23.959Z" fill="#FFBC7A"/>
<path fill-rule="evenodd" clip-rule="evenodd" d="M139.228 31.2174C145.566 32.4666 152.106 33.8946 158.589 34.5494C159.372 34.6279 159.478 33.6618 158.771 33.4958C152.559 32.0395 145.89 31.2843 139.509 30.4147C138.853 30.3259 138.557 31.0849 139.228 31.2174Z" fill="#FFBC7A"/>
<path fill-rule="evenodd" clip-rule="evenodd" d="M47.2466 130.091C47.4634 128.84 47.4214 127.649 48.2282 126.545C49.8369 124.346 52.1196 124.9 54.33 125.866C56.5824 126.851 58.7021 127.441 61.1512 126.522C64.9753 125.084 66.7689 120.075 63.1212 117.719C61.9396 116.955 60.7764 118.215 60.9344 119.18C61.1546 120.528 61.9244 122.009 60.5948 123.168C58.8181 124.717 56.7337 123.417 54.9603 122.722C53.0441 121.971 51.0085 121.806 49.0317 122.5C45.6295 123.695 43.1619 127.703 45.8648 130.408C46.2447 130.79 47.1541 130.618 47.2466 130.091Z" fill="#7E2E84"/>
<path fill-rule="evenodd" clip-rule="evenodd" d="M81.4968 168.397C86.2705 168.644 91.2894 168.743 96.0563 168.415C97.8076 168.294 97.5912 166.628 95.8924 166.582C91.1981 166.453 86.279 166.74 81.627 167.175C80.6939 167.262 80.4149 168.34 81.4968 168.397Z" fill="#7E2E84"/>
<path fill-rule="evenodd" clip-rule="evenodd" d="M164.071 60.4087C163.436 61.5024 165.514 89.7567 165.514 89.7567L181.202 88.601L179.373 96.0605L187.039 88.3929L202.389 86.821L201.457 59.4331L164.071 60.4087Z" fill="#FAA54E"/>
<path fill-rule="evenodd" clip-rule="evenodd" d="M172.579 72.8496L175.901 82.9297L180.551 82.1383L180.097 80.1091L181.416 79.4171L183.906 81.5677L191.782 80.2276L192.803 77.5985L190.562 77.1611L193.455 76.3169L192.826 73.5006L190.324 73.6923L193.76 72.8745L192.979 69.3793L184.976 70.7414C184.976 70.7414 185.492 65.8579 183.129 64.2705L181.32 64.5792C181.32 64.5792 181.93 66.1124 181.873 67.0575C181.818 68.0026 180.244 72.3639 180.244 72.3639L177.787 73.3675L177.204 71.9455L172.579 72.8496Z" fill="white"/>
<path fill-rule="evenodd" clip-rule="evenodd" d="M10.9824 53.9043L13.6546 82.0211H72.3516L75.6 91.9138L79.0271 81.0649L90.212 80.4918L85.0563 55.3083L10.9824 53.9043Z" fill="#FAA54E"/>
<path fill-rule="evenodd" clip-rule="evenodd" d="M18.5112 64.1572C38.6118 63.4828 58.641 63.528 78.6918 64.9596C79.4073 65.01 79.4107 64.1301 78.6918 64.0875C58.6643 62.9027 38.5703 62.4518 18.5112 63.4001C17.8903 63.4298 17.882 64.1779 18.5112 64.1572Z" fill="white"/>
<path fill-rule="evenodd" clip-rule="evenodd" d="M20.0801 70.377C40.1796 69.7026 60.211 69.7478 80.2607 71.1793C80.9762 71.2297 80.9796 70.3499 80.2607 70.3059C60.2343 69.1225 40.1398 68.6716 20.0801 69.6199C19.4592 69.6496 19.4509 70.3977 20.0801 70.377Z" fill="white"/>
<path fill-rule="evenodd" clip-rule="evenodd" d="M20.0835 74.7604C33.661 75.1419 47.0815 74.3209 60.6456 75.3257C61.3653 75.3796 61.3704 74.4342 60.6456 74.3928C47.0965 73.6257 33.6493 74.1163 20.0835 73.9505C19.4523 73.9422 19.4556 74.7424 20.0835 74.7604Z" fill="white"/>
</svg>
